<svg xmlns="http://www.w3.org/2000/svg" width="212.033" height="28.016" viewBox="0 0 212.033 28.016">
  <g id="Group_477" data-name="Group 477" transform="translate(-50 -115.306)">
    <path id="Path_230" data-name="Path 230" d="M20.2,14.2H37.62a7.59,7.59,0,0,1,5.72,2.21A7.891,7.891,0,0,1,45.55,22.2a5.721,5.721,0,0,1-.65,2.8,8.232,8.232,0,0,1-1.755,2.21,6.258,6.258,0,0,1,3.445,5.655,7.641,7.641,0,0,1-2.21,5.785A7.891,7.891,0,0,1,38.6,40.85H20.2ZM37.62,25.12a2.6,2.6,0,0,0,1.885-.715,2.761,2.761,0,0,0,.715-1.95v-.78a2.877,2.877,0,0,0-.715-1.95,2.361,2.361,0,0,0-1.885-.715H25.465v6.11Zm1.04,10.92a2.877,2.877,0,0,0,1.95-.715,2.761,2.761,0,0,0,.715-1.95V32.53a2.877,2.877,0,0,0-.715-1.95,2.417,2.417,0,0,0-1.95-.715h-13.2V36.04Z" transform="translate(29.8 101.756)" fill="#fff"/>
    <path id="Path_231" data-name="Path 231" d="M71.4,14.2h5.33V40.85H71.4Z" transform="translate(11.881 101.756)" fill="#fff"/>
    <path id="Path_232" data-name="Path 232" d="M96.4,39.27a13.343,13.343,0,0,1-4.94-4.94A14.316,14.316,0,0,1,89.7,27.245a14.316,14.316,0,0,1,1.755-7.085,12.456,12.456,0,0,1,4.94-4.94,14.11,14.11,0,0,1,7.02-1.82,13.967,13.967,0,0,1,7.865,2.275,13.051,13.051,0,0,1,4.94,6.11l-6.11.065a8.161,8.161,0,0,0-2.86-2.535,8.274,8.274,0,0,0-3.77-.91,7.8,7.8,0,0,0-4.225,1.17A8.149,8.149,0,0,0,96.33,22.76a9.495,9.495,0,0,0-1.04,4.485,9.141,9.141,0,0,0,1.04,4.485,8.432,8.432,0,0,0,2.925,3.12,7.8,7.8,0,0,0,4.225,1.17,8.023,8.023,0,0,0,5.005-1.69,7.88,7.88,0,0,0,2.86-4.42H103.48V25.1h13.585a10.958,10.958,0,0,1,.2,2.145,13.338,13.338,0,0,1-.2,2.405,13.091,13.091,0,0,1-2.405,5.98,12.331,12.331,0,0,1-4.745,4.03,14.166,14.166,0,0,1-6.435,1.43A13.537,13.537,0,0,1,96.4,39.27Z" transform="translate(5.476 102.036)" fill="#fff"/>
    <path id="Path_233" data-name="Path 233" d="M160.765,14.2h18.98a7.59,7.59,0,0,1,5.72,2.21,7.891,7.891,0,0,1,2.21,5.785,7.394,7.394,0,0,1-2.21,5.59,7.8,7.8,0,0,1-5.72,2.145H166.03V40.85H160.7V14.2Zm18.98,10.92a2.6,2.6,0,0,0,1.885-.715,2.762,2.762,0,0,0,.715-1.95v-.78a2.877,2.877,0,0,0-.715-1.95,2.361,2.361,0,0,0-1.885-.715H166.03v6.11Z" transform="translate(-19.374 101.756)" fill="#fff"/>
    <path id="Path_234" data-name="Path 234" d="M266.18,40.085a10.061,10.061,0,0,1-4.42-2.99,6.977,6.977,0,0,1-1.56-4.485h5.265a3.106,3.106,0,0,0,2.015,2.73,11.553,11.553,0,0,0,5.4,1.04,12.555,12.555,0,0,0,5.525-.975,3.037,3.037,0,0,0,1.885-2.86,2.492,2.492,0,0,0-1.82-2.34,17.634,17.634,0,0,0-5.785-.715c-4.16,0-7.215-.585-9.1-1.82-1.885-1.17-2.8-3.12-2.8-5.785a7.1,7.1,0,0,1,3.12-6.24c2.08-1.43,5.07-2.145,9.035-2.145a17.7,17.7,0,0,1,6.37,1.04,10,10,0,0,1,4.29,2.99,6.92,6.92,0,0,1,1.5,4.485H279.83a3.177,3.177,0,0,0-1.885-2.73,11.013,11.013,0,0,0-5.005-1.04,11.583,11.583,0,0,0-5.07.91,2.854,2.854,0,0,0-1.755,2.665,2.192,2.192,0,0,0,1.69,2.145,15.794,15.794,0,0,0,5.46.65c4.355,0,7.475.65,9.425,1.885s2.925,3.25,2.925,5.98a7.394,7.394,0,0,1-3.25,6.435c-2.145,1.5-5.33,2.21-9.425,2.21A18.951,18.951,0,0,1,266.18,40.085Z" transform="translate(-54.197 102.001)" fill="#fff"/>
    <path id="Path_235" data-name="Path 235" d="M313.28,40.085a10.062,10.062,0,0,1-4.42-2.99,6.977,6.977,0,0,1-1.56-4.485h5.265a3.106,3.106,0,0,0,2.015,2.73,11.553,11.553,0,0,0,5.4,1.04,12.556,12.556,0,0,0,5.525-.975,3.037,3.037,0,0,0,1.885-2.86,2.492,2.492,0,0,0-1.82-2.34,17.634,17.634,0,0,0-5.785-.715c-4.16,0-7.215-.585-9.1-1.82-1.885-1.17-2.8-3.12-2.8-5.785a7.1,7.1,0,0,1,3.12-6.24c2.08-1.43,5.07-2.145,9.035-2.145a17.7,17.7,0,0,1,6.37,1.04,10,10,0,0,1,4.29,2.99,6.92,6.92,0,0,1,1.5,4.485H326.93a3.177,3.177,0,0,0-1.885-2.73,11.013,11.013,0,0,0-5.005-1.04,11.583,11.583,0,0,0-5.07.91,2.854,2.854,0,0,0-1.755,2.665,2.192,2.192,0,0,0,1.69,2.145,15.794,15.794,0,0,0,5.46.65c4.355,0,7.475.65,9.425,1.885s2.925,3.25,2.925,5.98a7.394,7.394,0,0,1-3.25,6.435c-2.145,1.5-5.33,2.21-9.425,2.21A19.444,19.444,0,0,1,313.28,40.085Z" transform="translate(-70.682 102.001)" fill="#fff"/>
    <g id="Group_215" data-name="Group 215" transform="translate(173.007 115.306)">
      <path id="Path_332" data-name="Path 332" d="M232.92,22.43l-2.405.65L222,18.66l9.75-3.51.845-.325.585-.2,4.03-1.43a9.7,9.7,0,0,1,.585,5.07,11.326,11.326,0,0,1-.325,1.43,9.965,9.965,0,0,1-.715,1.755" transform="translate(-212.835 -13.2)" fill="#fff"/>
      <line id="Line_12" data-name="Line 12" x1="9.62" y2="2.6" transform="translate(10.335 9.815)"/>
      <path id="Path_333" data-name="Path 333" d="M213.125,35.025c-.13-.13-.26-.195-.325-.325" transform="translate(-209.615 -20.725)" fill="#fff"/>
      <path id="Path_335" data-name="Path 335" d="M248.26,25.6a10.833,10.833,0,0,1,0,5.4c-.065.26-.2.585-.26.845" transform="translate(-221.935 -17.54)" fill="#fff"/>
      <path id="Path_337" data-name="Path 337" d="M233.42,28.3l-9.62,2.6h0" transform="translate(-213.465 -18.485)" fill="#fff"/>
      <path id="Path_338" data-name="Path 338" d="M234.13,36a13.351,13.351,0,0,1-4.29,8.06,13.183,13.183,0,0,1-18.655-1.105A12.672,12.672,0,0,1,208,36v-.2" transform="translate(-207.935 -21.11)" fill="#fff"/>
      <path id="Path_340" data-name="Path 340" d="M207.9,36.1h26.325" transform="translate(-207.9 -21.215)" fill="#fff"/>
      <path id="Path_341" data-name="Path 341" d="M235.855,31.84H213.3l3.575-.975,3.25-.91h0l9.62-2.6,3.64-.975,1.885-.52.845-.26" transform="translate(-209.79 -17.54)" fill="#fff"/>
      <path id="Path_342" data-name="Path 342" d="M225.036,24.475l-7.28,2.08-2.8.78-3.77,1.105a1.418,1.418,0,0,1-.26-.325,9.691,9.691,0,0,1-2.34-4.68A10.055,10.055,0,0,1,209.436,17l2.405,1.17,1.3.585,2.99,1.43Z" transform="translate(-208.071 -14.53)" fill="#fff"/>
      <line id="Line_13" data-name="Line 13" transform="translate(5.655 2.73)"/>
      <rect id="Rectangle_122" data-name="Rectangle 122" width="26.52" height="0.455" transform="translate(0.195 26.715)" fill="#fff"/>
      <path id="Path_344" data-name="Path 344" d="M233.915,55.88l-22.36-.13-.455-.65h23.335Z" transform="translate(-209.02 -27.865)" fill="#fff"/>
    </g>
  </g>
</svg>
