<?xml version="1.0" encoding="utf-8"?>
<svg width="176.794" height="23.359" viewBox="-10.335 0 187.129 23.359" xmlns="http://www.w3.org/2000/svg" xmlns:xlink="http://www.w3.org/1999/xlink" xmlns:bx="https://boxy-svg.com">
  <defs>
    <path id="path-0" d="M 50.7839620804159 5.337865991279166 L 79.3278199377811 38.16331886017563" style="fill: none;"/>
  </defs>
  <g id="Group_221" data-name="Group 221" transform="matrix(1, 0, 0, 1, -50, -115.306)">
    <path id="Path_231" data-name="Path 231" d="M 65.597 115.732 L 70.041 115.732 L 70.041 137.953 L 65.597 137.953 L 65.597 115.732 Z" fill="#353745"/>
    <path id="Path_232" data-name="Path 232" d="M 78.321 136.526 C 76.607 135.543 75.185 134.121 74.202 132.407 C 73.212 130.597 72.708 128.562 72.739 126.499 C 72.708 124.436 73.212 122.401 74.202 120.591 C 75.154 118.853 76.583 117.424 78.321 116.472 C 80.106 115.465 82.124 114.941 84.174 114.954 C 86.501 114.918 88.785 115.58 90.732 116.854 C 92.596 118.089 94.034 119.868 94.851 121.949 L 89.756 122.003 C 89.14 121.119 88.322 120.395 87.371 119.889 C 86.398 119.391 85.321 119.13 84.228 119.13 C 82.984 119.112 81.762 119.45 80.705 120.106 C 79.669 120.754 78.827 121.669 78.267 122.755 C 77.676 123.912 77.378 125.196 77.4 126.495 C 77.365 127.795 77.664 129.083 78.267 130.235 C 78.843 131.297 79.683 132.192 80.706 132.835 C 81.763 133.491 82.985 133.829 84.229 133.811 C 85.739 133.826 87.21 133.329 88.402 132.402 C 89.596 131.483 90.438 130.182 90.787 128.717 C 90.787 128.717 95.786 128.188 95.671 128.85 C 95.429 130.653 94.739 132.367 93.666 133.836 C 92.656 135.276 91.179 136.088 89.595 136.851 C 87.925 137.665 86.087 138.073 84.229 138.043 C 82.158 138.089 80.114 137.564 78.321 136.526 Z" fill="#353745"/>
    <path id="Path_233" data-name="Path 233" d="M160.754,14.2H176.58a6.329,6.329,0,0,1,4.769,1.843,6.58,6.58,0,0,1,1.843,4.824,6.165,6.165,0,0,1-1.843,4.661,6.5,6.5,0,0,1-4.769,1.789H165.144v9.105H160.7V14.2Zm15.826,9.105a2.168,2.168,0,0,0,1.572-.6,2.3,2.3,0,0,0,.6-1.626v-.65a2.4,2.4,0,0,0-.6-1.626,1.969,1.969,0,0,0-1.572-.6H165.144v5.095Z" transform="translate(-34.552 101.648)" fill="#353745"/>
    <path id="Path_234" data-name="Path 234" d="M265.186,35.667a8.389,8.389,0,0,1-3.685-2.493,5.817,5.817,0,0,1-1.3-3.74h4.39a2.59,2.59,0,0,0,1.68,2.276,9.633,9.633,0,0,0,4.5.867,10.469,10.469,0,0,0,4.607-.813,2.532,2.532,0,0,0,1.572-2.385,2.078,2.078,0,0,0-1.518-1.951,14.7,14.7,0,0,0-4.824-.6c-3.469,0-6.016-.488-7.588-1.518a5.238,5.238,0,0,1-2.331-4.824,5.919,5.919,0,0,1,2.6-5.2c1.734-1.192,4.227-1.789,7.534-1.789a14.759,14.759,0,0,1,5.311.867,8.337,8.337,0,0,1,3.577,2.493,5.77,5.77,0,0,1,1.247,3.74h-4.39A2.649,2.649,0,0,0,275,18.324a9.183,9.183,0,0,0-4.173-.867,9.658,9.658,0,0,0-4.227.759,2.38,2.38,0,0,0-1.463,2.222,1.827,1.827,0,0,0,1.409,1.789,13.169,13.169,0,0,0,4.553.542c3.631,0,6.233.542,7.859,1.572a5.477,5.477,0,0,1,2.439,4.986,6.165,6.165,0,0,1-2.71,5.366c-1.789,1.247-4.444,1.843-7.859,1.843A15.8,15.8,0,0,1,265.186,35.667Z" transform="translate(-80.125 101.969)" fill="#353745"/>
    <path id="Path_235" data-name="Path 235" d="M312.286,35.667a8.39,8.39,0,0,1-3.685-2.493,5.818,5.818,0,0,1-1.3-3.74h4.39a2.59,2.59,0,0,0,1.68,2.276,9.633,9.633,0,0,0,4.5.867,10.469,10.469,0,0,0,4.607-.813,2.532,2.532,0,0,0,1.572-2.385,2.078,2.078,0,0,0-1.518-1.951,14.7,14.7,0,0,0-4.824-.6c-3.469,0-6.016-.488-7.588-1.518a5.238,5.238,0,0,1-2.331-4.824,5.919,5.919,0,0,1,2.6-5.2c1.734-1.192,4.227-1.789,7.534-1.789a14.759,14.759,0,0,1,5.311.867,8.338,8.338,0,0,1,3.577,2.493,5.77,5.77,0,0,1,1.247,3.74h-4.39a2.649,2.649,0,0,0-1.572-2.276,9.183,9.183,0,0,0-4.173-.867,9.658,9.658,0,0,0-4.227.759,2.38,2.38,0,0,0-1.463,2.222,1.827,1.827,0,0,0,1.409,1.789,13.169,13.169,0,0,0,4.553.542c3.631,0,6.233.542,7.859,1.572a5.477,5.477,0,0,1,2.439,4.986,6.165,6.165,0,0,1-2.71,5.366c-1.789,1.247-4.444,1.843-7.859,1.843A16.212,16.212,0,0,1,312.286,35.667Z" transform="translate(-101.697 101.969)" fill="#353745"/>
    <g id="Group_215" data-name="Group 215" transform="translate(151.73 115.306)">
      <path id="Path_332" data-name="Path 332" d="M231.105,20.9l-2.005.542L222,17.753l8.13-2.927.7-.271.488-.163,3.36-1.192a8.085,8.085,0,0,1,.488,4.227,9.445,9.445,0,0,1-.271,1.192,8.308,8.308,0,0,1-.6,1.463" transform="translate(-214.358 -13.2)" fill="#353745"/>
      <line id="Line_12" data-name="Line 12" x1="8.021" y2="2.168" transform="translate(8.617 8.184)"/>
      <path id="Path_333" data-name="Path 333" d="M213.071,34.971c-.108-.108-.217-.163-.271-.271" transform="translate(-210.144 -23.047)" fill="#353745"/>
      <path id="Path_335" data-name="Path 335" d="M248.217,25.6a9.033,9.033,0,0,1,0,4.5c-.054.217-.163.488-.217.7" transform="translate(-226.267 -18.879)" fill="#353745"/>
      <path id="Path_337" data-name="Path 337" d="M231.821,28.3,223.8,30.468h0" transform="translate(-215.183 -20.116)" fill="#353745"/>
      <path id="Path_338" data-name="Path 338" d="M229.788,35.963a11.132,11.132,0,0,1-3.577,6.721,10.992,10.992,0,0,1-15.555-.921,10.566,10.566,0,0,1-2.656-5.8V35.8" transform="translate(-207.946 -23.551)" fill="#353745"/>
      <path id="Path_340" data-name="Path 340" d="M207.9,36.1h21.95" transform="translate(-207.9 -23.689)" fill="#353745"/>
      <path id="Path_341" data-name="Path 341" d="M232.107,30.8H213.3l2.981-.813,2.71-.759h0l8.021-2.168,3.035-.813,1.572-.434.7-.217" transform="translate(-210.373 -18.879)" fill="#353745"/>
      <path id="Path_342" data-name="Path 342" d="M222.269,23.233l-6.07,1.734-2.331.65-3.143.921a1.182,1.182,0,0,1-.217-.271,8.08,8.08,0,0,1-1.951-3.9,8.384,8.384,0,0,1,.7-5.366l2.005.976,1.084.488,2.493,1.192Z" transform="translate(-208.124 -14.94)" fill="#353745"/>
      <line id="Line_13" data-name="Line 13" transform="translate(4.715 2.276)"/>
      <rect id="Rectangle_122" data-name="Rectangle 122" width="22.113" height="0.379" transform="translate(0.163 22.275)" fill="#353745"/>
      <path id="Path_344" data-name="Path 344" d="M230.124,55.75l-18.644-.108L211.1,55.1h19.457Z" transform="translate(-209.366 -32.391)" fill="#353745"/>
    </g>
    <path id="path-1" data-name="Path 233" d="M 41.467 115.846 L 57.293 115.846 C 59.071 115.762 60.803 116.431 62.062 117.689 C 63.308 118.979 63.974 120.721 63.905 122.513 C 63.979 124.258 63.309 125.952 62.062 127.174 C 60.782 128.394 59.06 129.04 57.293 128.963 L 45.857 128.963 L 45.857 138.068 L 41.413 138.068 L 41.413 115.846 L 41.467 115.846 Z M 57.293 124.951 C 57.877 124.971 58.443 124.755 58.865 124.351 C 59.27 123.908 59.485 123.325 59.465 122.725 L 59.465 122.075 C 59.475 121.477 59.261 120.897 58.865 120.449 C 58.457 120.024 57.881 119.804 57.293 119.849 L 45.857 119.849 L 45.857 124.944 L 57.293 124.951 Z" fill="#353745"/>
    <path id="path-2" data-name="Path 231" d="M 97.643 115.706 L 102.087 115.706 L 102.087 137.927 L 97.643 137.927 L 97.643 115.706 Z" fill="#353745"/>
  </g>
  <path fill="rgb(160,241,60)" stroke="rgb(160,241,60)" stroke-width="0" d="M 30.77 -21.296 C 31.011 -21.446 33.194 -21.272 33.195 -21.225 C 33.197 -21.177 31.01 -20.875 30.77 -21.011 C 30.667 -21.069 30.667 -21.232 30.77 -21.296 Z" style="fill: rgb(166, 209, 48); stroke: rgb(129, 151, 57); stroke-width: 2px;"/>
  <text style="fill: rgb(51, 51, 51); font-family: Arial, sans-serif; font-size: 28px; white-space: pre;" transform="matrix(0.715583, -0.854131, 0.797002, 0.667723, 3.752473, 62.881512)"><textPath xlink:href="#path-0"> </textPath></text>
  <path id="path-3" data-name="Path 231" d="M 56.235 -0.919 L 59.461 -4.053 L 59.031 13.27 L 54.903 13.27 L 56.235 -0.919 Z" fill="#353745" style="" transform="matrix(0.672656, 0.739956, -0.739956, 0.672656, 22.128289, -40.803575)"/>
  <path id="path-4" data-name="Path 231" d="M 50.685 10.627 L 55.195 10.627 L 51.924 27.965 L 49.229 24.086 L 50.685 10.627 Z" fill="#353745" style="" transform="matrix(0.533801, -0.84561, 0.84561, 0.533801, 13.48248, 51.742683)" bx:origin="0.744 0.174"/>
</svg>