<svg id="cancel" xmlns="http://www.w3.org/2000/svg" width="56.932" height="56.932" viewBox="0 0 56.932 56.932">
  <circle id="Ellipse_30" data-name="Ellipse 30" cx="28.466" cy="28.466" r="28.466" transform="translate(0 0)" fill="#e24c4b"/>
  <path id="Path_531" data-name="Path 531" d="M100.482,72.018a28.549,28.549,0,0,1-28.466,28.466A28.011,28.011,0,0,1,49.777,89.809a28.085,28.085,0,0,0,17.791,6.227A28.549,28.549,0,0,0,96.034,67.57a28.085,28.085,0,0,0-6.227-17.791A28.01,28.01,0,0,1,100.482,72.018Z" transform="translate(-43.55 -43.552)" fill="#d1403f"/>
  <path id="Path_532" data-name="Path 532" d="M144.11,144.11a2.792,2.792,0,0,1-3.914,0l-9.073-9.073-9.073,9.073a2.768,2.768,0,0,1-3.914-3.914l9.073-9.073-9.073-9.073a2.768,2.768,0,1,1,3.914-3.914l9.073,9.073,9.073-9.073a2.768,2.768,0,0,1,3.914,3.914l-9.073,9.073,9.073,9.073A2.792,2.792,0,0,1,144.11,144.11Z" transform="translate(-102.656 -102.656)" fill="#fff"/>
</svg>
