<?xml version="1.0" encoding="utf-8"?>
<!-- Generator: Adobe Illustrator 25.2.1, SVG Export Plug-In . SVG Version: 6.00 Build 0)  -->
<svg version="1.1" id="katman_1" xmlns="http://www.w3.org/2000/svg" xmlns:xlink="http://www.w3.org/1999/xlink" x="0px" y="0px"
	 viewBox="0 0 24 24" style="enable-background:new 0 0 24 24;" xml:space="preserve">
<path class="st0" d="M19.8,16.3c-0.9-0.9-1.8-1.8-2.7-2.7c-0.3-0.3-0.5-0.7-0.4-1.1c0.1-0.5,0.3-0.8,0.8-0.9
	c0.4-0.2,0.9-0.1,1.2,0.3c0.4,0.4,0.8,0.8,1.1,1.1c1.2,1.2,2.4,2.4,3.6,3.6c0.6,0.6,0.6,1.3,0,1.9c-1.6,1.6-3.1,3.1-4.7,4.7
	c-0.5,0.5-1.3,0.5-1.7,0c-0.5-0.5-0.5-1.2,0.1-1.7c0.9-0.9,1.8-1.8,2.7-2.7c0,0,0,0,0-0.1c-0.1-0.1-0.2,0-0.3,0
	c-6.1,0-12.1,0-18.2,0c-0.6,0-1.1-0.3-1.3-0.8c-0.2-0.7,0.3-1.5,1.1-1.6c0.1,0,0.2,0,0.3,0c6,0,12,0,18,0
	C19.5,16.3,19.6,16.3,19.8,16.3z"/>
<path class="st0" d="M4.3,5.3c0.1,0,0.2,0,0.3,0c6.1,0,12.1,0,18.2,0c0.7,0,1.3,0.5,1.3,1.2c0,0.6-0.4,1.1-1,1.2c-0.1,0-0.3,0-0.4,0
	c-6,0-12,0-18,0c-0.1,0-0.2,0-0.4,0c0,0.1,0.1,0.2,0.2,0.3c0.8,0.8,1.7,1.7,2.5,2.5c0.7,0.7,0.4,1.7-0.5,2c-0.5,0.1-0.9,0-1.2-0.4
	C3.6,10.5,2.1,9,0.5,7.4C0.3,7.2,0.2,7,0.1,6.7c-0.1-0.4,0-0.8,0.3-1.1C2,4.1,3.6,2.4,5.2,0.9c0.5-0.5,1.2-0.5,1.7,0
	c0.5,0.5,0.5,1.2,0,1.7C6.1,3.4,5.3,4.2,4.4,5.1C4.4,5.1,4.3,5.2,4.3,5.3C4.2,5.2,4.2,5.3,4.3,5.3z"/>
</svg>
