<svg xmlns="http://www.w3.org/2000/svg" width="26.765" height="32.628" viewBox="0 0 26.765 32.628">
  <g id="clock_1_" data-name="clock (1)" transform="translate(0 0)">
    <path id="Path_124" data-name="Path 124" d="M23.822,10.872,25.194,9.5a1.912,1.912,0,1,0-2.7-2.7L21.026,8.261a13.385,13.385,0,0,0-5.095-2.154v-1.9h1.275a.637.637,0,0,0,.637-.637V1.912A1.914,1.914,0,0,0,15.931,0h-5.1A1.914,1.914,0,0,0,8.921,1.912V3.569a.637.637,0,0,0,.637.637h1.275v1.9A13.383,13.383,0,0,0,5.739,8.261L4.274,6.8a1.912,1.912,0,1,0-2.7,2.7l1.372,1.372a13.383,13.383,0,1,0,20.88,0ZM23.392,7.7a.637.637,0,0,1,.9.9L22.976,9.916q-.445-.457-.932-.87ZM10.2,1.912a.638.638,0,0,1,.637-.637h5.1a.638.638,0,0,1,.637.637v1.02H10.2Zm4.461,2.294V5.924a13.71,13.71,0,0,0-2.549,0V4.206ZM2.472,7.7a.638.638,0,0,1,.9,0L4.72,9.045q-.485.413-.932.87L2.472,8.6a.638.638,0,0,1,0-.9ZM13.382,31.354A12.109,12.109,0,0,1,11.565,7.273a12.3,12.3,0,0,1,3.634,0A12.1,12.1,0,0,1,20.707,9.6a12.223,12.223,0,0,1,1.773,1.652,12.109,12.109,0,0,1-9.1,20.1Zm0,0" fill="#bad8f5"/>
    <path id="Path_125" data-name="Path 125" d="M181.912,200.922a1.912,1.912,0,0,0,.637-3.714v-4.57a.637.637,0,1,0-1.275,0v4.57a1.912,1.912,0,0,0,.637,3.714Zm0-2.549a.637.637,0,1,1-.637.637A.638.638,0,0,1,181.912,198.373Zm0,0" transform="translate(-168.53 -179.764)" fill="#bad8f5"/>
    <path id="Path_126" data-name="Path 126" d="M76.347,160.171c-.01-.012-.02-.023-.031-.034s-.025-.023-.037-.034a9.594,9.594,0,0,0-4.017-2.378.637.637,0,1,0-.361,1.222,8.306,8.306,0,0,1,3.044,1.66l-.43.43a.637.637,0,1,0,.9.9l.431-.431a8.207,8.207,0,0,1,1.971,4.75h-.613a.637.637,0,0,0,0,1.275h.613a8.206,8.206,0,0,1-1.971,4.75l-.431-.431a.637.637,0,1,0-.9.9l.431.431a8.209,8.209,0,0,1-4.75,1.972v-.613a.637.637,0,0,0-1.275,0v.613a8.207,8.207,0,0,1-4.75-1.971l.431-.431a.637.637,0,0,0-.9-.9l-.431.431a8.207,8.207,0,0,1-1.971-4.75h.613a.637.637,0,1,0,0-1.275H61.3a8.207,8.207,0,0,1,1.971-4.75l.431.431a.637.637,0,0,0,.9-.9l-.43-.43a8.3,8.3,0,0,1,3.044-1.66.637.637,0,1,0-.361-1.222,9.591,9.591,0,0,0-4.016,2.377c-.013.011-.026.023-.038.035s-.021.022-.031.034a9.543,9.543,0,0,0,0,13.447c.01.012.02.023.031.034s.022.021.034.031a9.544,9.544,0,0,0,13.447,0c.012-.01.023-.02.034-.031s.021-.022.031-.034a9.543,9.543,0,0,0,0-13.447Zm0,0" transform="translate(-56.176 -147.648)" fill="#bad8f5"/>
    <path id="Path_127" data-name="Path 127" d="M200.637,153.275a.637.637,0,1,0-.637-.637A.638.638,0,0,0,200.637,153.275Zm0,0" transform="translate(-187.255 -142.313)" fill="#bad8f5"/>
  </g>
</svg>
