<svg xmlns="http://www.w3.org/2000/svg" width="46.7" height="46.629" viewBox="0 0 46.7 46.629">
  <path id="download" d="M34.085,33.11,20.891,46.295a.564.564,0,0,1-.79,0L6.162,32.364a.564.564,0,0,1,0-.79L19.355,18.38a.564.564,0,0,1,.79,0L34.085,32.319A.564.564,0,0,1,34.085,33.11Zm-19.5-13.239a.163.163,0,0,0-.242,0L7.662,26.553a.163.163,0,0,0,0,.243l1.5,1.509,6.925-6.925ZM30.95,36.235,24.026,43.16l1.509,1.509a.163.163,0,0,0,.242,0l6.682-6.682a.163.163,0,0,0,0-.243ZM16.6,42.792,9.673,35.867,8.165,37.376a.163.163,0,0,0,0,.243L14.847,44.3a.163.163,0,0,0,.243,0Zm.817-14.343H23.81a.258.258,0,0,1,.162.063.2.2,0,0,1,.063.162l-.009,6.386a.23.23,0,0,1-.386.162l-1.76-1.76-3.988,3.988a.228.228,0,0,1-.323,0L15.017,34.9a.228.228,0,0,1,0-.323l3.988-3.988-1.751-1.751a.221.221,0,0,1-.045-.242A.213.213,0,0,1,17.415,28.448Zm20.729.736L51.338,15.991a.564.564,0,0,0,0-.79L37.4,1.262a.564.564,0,0,0-.79,0L23.415,14.455a.564.564,0,0,0,0,.79L37.354,29.185A.564.564,0,0,0,38.145,29.185Zm-11.73-18L33.34,4.261,31.831,2.753a.163.163,0,0,0-.242,0L24.906,9.435a.163.163,0,0,0,0,.242ZM42.779,27.559a.163.163,0,0,0,.243,0L49.7,20.877a.163.163,0,0,0,0-.242l-1.509-1.509L41.27,26.05Zm6.556-17.37a.163.163,0,0,0,0-.242L42.653,3.265a.163.163,0,0,0-.242,0L40.9,4.773,47.827,11.7ZM33.483,12.506V18.9a.258.258,0,0,0,.063.162.2.2,0,0,0,.162.063l6.386-.009a.23.23,0,0,0,.162-.386l-1.76-1.76,3.988-3.988a.228.228,0,0,0,0-.323l-2.551-2.551a.228.228,0,0,0-.323,0L35.621,14.1l-1.751-1.751a.23.23,0,0,0-.386.162Z" transform="translate(-5.4 -0.5)" fill="none" stroke="#bad8f5" stroke-miterlimit="10" stroke-width="1.2"/>
</svg>
