<svg id="discount" xmlns="http://www.w3.org/2000/svg" width="22.064" height="22.995" viewBox="0 0 22.064 22.995">
  <g id="Group_450" data-name="Group 450" transform="translate(0 0)">
    <g id="Group_449" data-name="Group 449">
      <path id="Path_443" data-name="Path 443" d="M31.359,11.793a.674.674,0,0,1,0-.6l.858-1.754a2,2,0,0,0-.861-2.651l-1.725-.915a.674.674,0,0,1-.35-.482l-.337-1.924a2,2,0,0,0-2.255-1.638l-1.934.274a.674.674,0,0,1-.566-.184L22.785.565A2,2,0,0,0,20,.565l-1.4,1.358a.674.674,0,0,1-.566.184l-1.934-.274a2,2,0,0,0-2.255,1.638L13.5,5.4a.674.674,0,0,1-.35.482l-1.725.915a2,2,0,0,0-.861,2.651l.858,1.754a.674.674,0,0,1,0,.6l-.858,1.754a2,2,0,0,0,.861,2.651l1.725.915a.674.674,0,0,1,.35.482l.337,1.924a2,2,0,0,0,1.968,1.659,2.051,2.051,0,0,0,.287-.02l1.934-.274a.674.674,0,0,1,.566.184L20,22.426a2,2,0,0,0,2.787,0l1.4-1.358a.675.675,0,0,1,.566-.184l1.934.274a2,2,0,0,0,2.255-1.638l.337-1.923a.674.674,0,0,1,.35-.482l1.725-.915a2,2,0,0,0,.861-2.651Zm-.625,3.234-1.725.915a1.992,1.992,0,0,0-1.035,1.424l-.337,1.923a.675.675,0,0,1-.763.554l-1.934-.274a1.991,1.991,0,0,0-1.674.544l-1.4,1.358a.675.675,0,0,1-.943,0l-1.4-1.358a1.99,1.99,0,0,0-1.389-.564,2.035,2.035,0,0,0-.285.02l-1.934.274a.676.676,0,0,1-.763-.554l-.337-1.924a1.991,1.991,0,0,0-1.035-1.424l-1.725-.915a.675.675,0,0,1-.291-.9l.858-1.754a1.992,1.992,0,0,0,0-1.76l-.858-1.754a.675.675,0,0,1,.291-.9l1.725-.915a1.992,1.992,0,0,0,1.035-1.424L15.145,3.7a.675.675,0,0,1,.763-.554l1.934.274a1.992,1.992,0,0,0,1.674-.544l1.4-1.358a.675.675,0,0,1,.943,0l1.4,1.358a1.991,1.991,0,0,0,1.674.544l1.934-.274a.675.675,0,0,1,.763.554l.337,1.924a1.991,1.991,0,0,0,1.035,1.424l1.725.915a.675.675,0,0,1,.291.9l-.858,1.754a1.992,1.992,0,0,0,0,1.76l.858,1.754A.675.675,0,0,1,30.734,15.027Z" transform="translate(-10.359 0.002)" fill="#4187b5"/>
    </g>
  </g>
  <g id="Group_452" data-name="Group 452" transform="translate(5.993 6.458)">
    <g id="Group_451" data-name="Group 451">
      <path id="Path_444" data-name="Path 444" d="M153.676,143.986a.663.663,0,0,0-.938,0l-8.753,8.753a.663.663,0,1,0,.938.938l8.753-8.753A.663.663,0,0,0,153.676,143.986Z" transform="translate(-143.792 -143.792)" fill="#4187b5"/>
    </g>
  </g>
  <g id="Group_454" data-name="Group 454" transform="translate(5.948 5.529)">
    <g id="Group_453" data-name="Group 453">
      <path id="Path_445" data-name="Path 445" d="M145.233,123.116a2.431,2.431,0,1,0,2.431,2.431A2.434,2.434,0,0,0,145.233,123.116Zm0,3.537a1.105,1.105,0,1,1,1.105-1.105A1.106,1.106,0,0,1,145.233,126.653Z" transform="translate(-142.802 -123.116)" fill="#4187b5"/>
    </g>
  </g>
  <g id="Group_456" data-name="Group 456" transform="translate(11.253 12.603)">
    <g id="Group_455" data-name="Group 455">
      <path id="Path_446" data-name="Path 446" d="M263.353,280.61a2.431,2.431,0,1,0,2.432,2.431A2.434,2.434,0,0,0,263.353,280.61Zm0,3.537a1.105,1.105,0,1,1,1.105-1.105A1.107,1.107,0,0,1,263.353,284.147Z" transform="translate(-260.922 -280.61)" fill="#4187b5"/>
    </g>
  </g>
</svg>
