<svg xmlns="http://www.w3.org/2000/svg" width="56" height="56" viewBox="0 0 56 56">
  <g data-name="Group 814">
    <g data-name="Rectangle 307" fill="none" stroke="#bad8f5" stroke-width="2">
      <rect width="56" height="56" rx="14" stroke="none"/>
      <rect x="1" y="1" width="54" height="54" rx="13"/>
    </g>
    <g fill="#bad8f5">
      <path data-name="Path 547" d="M37.837 26.304a1.146 1.146 0 0 0-1.147 1.147v9.173a1.148 1.148 0 0 1-1.147 1.147H19.492a1.148 1.148 0 0 1-1.147-1.147V20.571a1.148 1.148 0 0 1 1.147-1.147h9.173a1.147 1.147 0 0 0 0-2.293h-9.173a3.444 3.444 0 0 0-3.44 3.44v16.052a3.444 3.444 0 0 0 3.44 3.44h16.052a3.444 3.444 0 0 0 3.44-3.44v-9.172a1.146 1.146 0 0 0-1.147-1.147Zm0 0"/>
      <path data-name="Path 548" d="M25.966 26.52a.486.486 0 0 0-.132.245l-.68 3.4a.481.481 0 0 0 .472.575.457.457 0 0 0 .094-.01l3.4-.68a.479.479 0 0 0 .246-.132l7.61-7.61-3.4-3.4Zm0 0"/>
      <path data-name="Path 549" d="M39.255 16.63a2.373 2.373 0 0 0-3.353 0l-1.313 1.313 3.355 3.352 1.313-1.313a2.371 2.371 0 0 0 0-3.352Zm0 0"/>
    </g>
  </g>
</svg>
