<svg xmlns="http://www.w3.org/2000/svg" width="412" height="412" viewBox="0 74.25 624.557 476.058" style="enable-background:new 0 0 606.365 606.366" xml:space="preserve">
  <path d="M564.159 148.675h-14.028v-14.027c0-33.021-26.862-59.884-59.883-59.884H60.399C27.378 74.765.515 101.629.515 134.649v281.35c0 33.02 26.864 59.884 59.884 59.884h14.027v14.027c0 33.021 26.864 59.884 59.884 59.884h429.847c33.021 0 59.885-26.863 59.885-59.884V208.56c-.001-33.021-26.863-59.884-59.883-59.884zm15.757 341.233c0 8.704-7.055 15.759-15.758 15.759H134.31c-8.704 0-15.759-7.055-15.759-15.759V208.56c0-8.705 7.055-15.759 15.759-15.759h429.849c8.702 0 15.758 7.055 15.758 15.759v281.349zM44.64 415.997V134.649c0-8.704 7.055-15.759 15.759-15.759h429.849c8.702 0 15.758 7.055 15.758 15.759v14.027H134.31c-33.02 0-59.884 26.864-59.884 59.884v223.197H60.4c-8.705 0-15.76-7.055-15.76-15.759z"/>
  <path d="m517.096 440.325-14.519-14.52-70.3-70.3c-6.154-6.155-16.132-6.155-22.286 0l-39.946 39.945-74.625-74.625c-6.154-6.155-16.133-6.155-22.286 0l-110.93 110.931-8.57 8.569c-3.677 3.677-5.155 8.718-4.439 13.494a15.685 15.685 0 0 0 4.439 8.793l8.916 8.915a15.689 15.689 0 0 0 8.296 4.355c1.882.344 3.813.344 5.694 0a15.674 15.674 0 0 0 8.297-4.355l17.708-17.708 22.063-22.063 48.526-48.526c6.154-6.155 16.133-6.155 22.286 0l48.525 48.526 22.063 22.063 17.709 17.708a15.687 15.687 0 0 0 8.297 4.355c1.881.344 3.812.344 5.693 0a15.677 15.677 0 0 0 8.297-4.355l8.916-8.915a15.7 15.7 0 0 0 4.438-8.793c.716-4.776-.76-9.816-4.438-13.494l-8.57-8.569-5.102-5.103 19.886-19.888 24.992 24.991 22.063 22.063 17.707 17.708a15.689 15.689 0 0 0 7.797 4.253c3.744.811 7.723.246 11.135-1.695a15.773 15.773 0 0 0 3.356-2.556l8.914-8.915c5.779-5.778 6.132-14.928 1.06-21.118a16.604 16.604 0 0 0-1.06-1.17z"/>
  <path d="M394.86 476.655a16.47 16.47 0 0 1-2.94-.267 16.176 16.176 0 0 1-8.568-4.497l-88.298-88.298c-2.879-2.88-6.707-4.465-10.779-4.465s-7.9 1.585-10.779 4.465l-88.297 88.298a16.172 16.172 0 0 1-8.568 4.497 16.497 16.497 0 0 1-5.879 0 16.176 16.176 0 0 1-8.568-4.497l-8.916-8.915a16.145 16.145 0 0 1-4.585-9.08c-.763-5.09.951-10.3 4.585-13.934L272.77 320.464c3.074-3.074 7.161-4.767 11.507-4.767s8.434 1.693 11.507 4.767l74.261 74.261 39.583-39.582c3.074-3.074 7.16-4.767 11.507-4.767s8.434 1.693 11.507 4.767l84.818 84.819c.375.375.744.781 1.094 1.205a16.211 16.211 0 0 1-1.094 21.81l-8.914 8.915a16.266 16.266 0 0 1-11.503 4.762h-.001c-1.162 0-2.326-.124-3.459-.37a16.206 16.206 0 0 1-8.053-4.392l-64.397-64.397-19.158 19.16 13.308 13.308a16.352 16.352 0 0 1 4.582 13.934 16.151 16.151 0 0 1-4.582 9.08l-8.916 8.915a16.176 16.176 0 0 1-8.568 4.497c-.969.175-1.958.266-2.942.266zm-110.583-98.557c4.347 0 8.434 1.693 11.507 4.767l88.298 88.298a15.148 15.148 0 0 0 8.025 4.212c1.811.332 3.698.332 5.508 0a15.148 15.148 0 0 0 8.025-4.212l8.916-8.915a15.137 15.137 0 0 0 4.293-8.506 15.32 15.32 0 0 0-4.293-13.053l-14.036-14.036 20.614-20.616 65.126 65.126a15.182 15.182 0 0 0 7.542 4.114c3.644.787 7.548.194 10.772-1.641a15.285 15.285 0 0 0 3.246-2.473l8.914-8.915a15.186 15.186 0 0 0 1.026-20.428 16.2 16.2 0 0 0-1.026-1.131l-84.818-84.819c-2.879-2.88-6.707-4.465-10.779-4.465s-7.9 1.585-10.779 4.465l-40.311 40.31-74.989-74.989c-2.879-2.88-6.707-4.465-10.779-4.465s-7.899 1.585-10.779 4.465L153.999 440.69a15.316 15.316 0 0 0-4.293 13.053 15.12 15.12 0 0 0 4.293 8.506l8.916 8.915a15.148 15.148 0 0 0 8.025 4.212 15.36 15.36 0 0 0 5.509 0 15.145 15.145 0 0 0 8.025-4.212l88.297-88.298a16.164 16.164 0 0 1 11.506-4.767zm221.729-157.713a60.489 60.489 0 0 0-22.169-4.185c-33.528 0-60.804 27.276-60.804 60.803 0 33.528 27.276 60.803 60.804 60.803a60.473 60.473 0 0 0 22.169-4.185 61.014 61.014 0 0 0 22.063-14.945c10.268-10.891 16.571-25.558 16.571-41.673 0-16.113-6.303-30.782-16.571-41.673a61.01 61.01 0 0 0-22.063-14.945zm-22.172 73.296c-9.209 0-16.677-7.468-16.677-16.678s7.468-16.677 16.677-16.677c9.211 0 16.679 7.468 16.679 16.677.001 9.21-7.466 16.678-16.679 16.678z"/>
</svg>
