<svg xmlns="http://www.w3.org/2000/svg" width="16.982" height="21.99" viewBox="0 0 16.982 21.99">
  <path id="invoice_1_" data-name="invoice(1)" d="M.48,21.621,1.6,20.592a1.852,1.852,0,0,1,2.5-.02l1.413,1.261a.618.618,0,0,0,.827,0l1.392-1.256a1.854,1.854,0,0,1,2.49,0l1.392,1.256a.618.618,0,0,0,.827,0l1.413-1.261a1.852,1.852,0,0,1,2.5.021l1.116,1.029V0H.48ZM4.83,7.173h7.951a.62.62,0,0,1,0,1.239H4.83a.62.62,0,1,1,0-1.239Zm0,4.307h7.951a.62.62,0,0,1,0,1.239H4.83a.62.62,0,1,1,0-1.239Zm0,0" transform="translate(-0.48)" fill="#bad8f5"/>
</svg>
