<svg id="menu" xmlns="http://www.w3.org/2000/svg" width="15.781" height="12.021" viewBox="0 0 15.781 12.021">
  <g id="Group_781" data-name="Group 781" transform="translate(3.699)">
    <g id="Group_780" data-name="Group 780">
      <path id="Path_525" data-name="Path 525" d="M130.7,61h-9.308a1.387,1.387,0,1,0,0,2.774H130.7a1.387,1.387,0,0,0,0-2.774Z" transform="translate(-120 -61)" fill="#bad8f5"/>
    </g>
  </g>
  <g id="Group_783" data-name="Group 783" transform="translate(3.699 4.623)">
    <g id="Group_782" data-name="Group 782">
      <path id="Path_526" data-name="Path 526" d="M130.7,211h-9.308a1.387,1.387,0,1,0,0,2.774H130.7a1.387,1.387,0,1,0,0-2.774Z" transform="translate(-120 -211)" fill="#bad8f5"/>
    </g>
  </g>
  <g id="Group_785" data-name="Group 785" transform="translate(3.699 9.247)">
    <g id="Group_784" data-name="Group 784">
      <path id="Path_527" data-name="Path 527" d="M130.7,361h-9.308a1.387,1.387,0,1,0,0,2.774H130.7a1.387,1.387,0,1,0,0-2.774Z" transform="translate(-120 -361)" fill="#bad8f5"/>
    </g>
  </g>
  <g id="Group_787" data-name="Group 787">
    <g id="Group_786" data-name="Group 786">
      <path id="Path_528" data-name="Path 528" d="M1.387,61a1.387,1.387,0,1,0,1.387,1.387A1.389,1.389,0,0,0,1.387,61Z" transform="translate(0 -61)" fill="#bad8f5"/>
    </g>
  </g>
  <g id="Group_789" data-name="Group 789" transform="translate(0 4.623)">
    <g id="Group_788" data-name="Group 788">
      <path id="Path_529" data-name="Path 529" d="M1.387,211a1.387,1.387,0,1,0,1.387,1.387A1.389,1.389,0,0,0,1.387,211Z" transform="translate(0 -211)" fill="#bad8f5"/>
    </g>
  </g>
  <g id="Group_791" data-name="Group 791" transform="translate(0 9.247)">
    <g id="Group_790" data-name="Group 790">
      <path id="Path_530" data-name="Path 530" d="M1.387,361a1.387,1.387,0,1,0,1.387,1.387A1.389,1.389,0,0,0,1.387,361Z" transform="translate(0 -361)" fill="#bad8f5"/>
    </g>
  </g>
</svg>
