<svg xmlns="http://www.w3.org/2000/svg" width="125.033" height="86.512" viewBox="0 0 125.033 86.512">
  <g id="Group_411" data-name="Group 411" transform="translate(0 0)" style="isolation: isolate">
    <path id="Path_361" data-name="Path 361" d="M504.337,175.616a19.092,19.092,0,0,0-2.376,3.37l21.821,23L537.671,188.1a19.043,19.043,0,0,0-29.829-15.59Z" transform="translate(-454.731 -161.909)" fill="#77e0b5"/>
    <g id="Group_400" data-name="Group 400" transform="translate(2.212 0)">
      <g id="Group_341" data-name="Group 341" transform="translate(24.136 74.553)">
        <path id="Path_362" data-name="Path 362" d="M368.012,607.708a.982.982,0,0,1-.7-.276l-2.439-2.439.431-.431L367.739,607a.429.429,0,0,0,.366.09,1.008,1.008,0,0,0,.541-.292c.3-.3.389-.719.2-.906l-2.439-2.439.431-.431,2.439,2.439a1.261,1.261,0,0,1-.2,1.768,1.607,1.607,0,0,1-.88.464A1.232,1.232,0,0,1,368.012,607.708Z" transform="translate(-364.869 -603.023)" fill="#4f3cc9"/>
      </g>
      <path id="Path_363" data-name="Path 363" d="M344.161,580.284l-.835-.835a.72.72,0,0,0-1.017-.033l-2.723,2.723a.72.72,0,0,0,.033,1.017l.835.835a.72.72,0,0,0,1.017.033l2.723-2.723A.72.72,0,0,0,344.161,580.284Z" transform="translate(-319.136 -508.294)" fill="#ff688f"/>
      <path id="Path_364" data-name="Path 364" d="M342.432,597.01l-.652-.652a.563.563,0,0,1-.026-.794l-.645.645a.563.563,0,0,0,.026.794l.652.652a.563.563,0,0,0,.794.026l.645-.645A.563.563,0,0,1,342.432,597.01Z" transform="translate(-320.462 -522.146)" fill="#4f3cc9"/>
      <g id="Group_342" data-name="Group 342" transform="translate(19.962 69.934)">
        <path id="Path_365" data-name="Path 365" d="M339.344,578.981a1.04,1.04,0,0,1-.74-.307l-.835-.834a1.049,1.049,0,0,1,0-1.481L341.126,573a1.049,1.049,0,0,1,1.481,0l.835.835a1.047,1.047,0,0,1,0,1.481l-3.357,3.357A1.04,1.04,0,0,1,339.344,578.981Zm2.522-5.676a.437.437,0,0,0-.31.128L338.2,576.79a.439.439,0,0,0,0,.62l.835.835a.448.448,0,0,0,.619,0l3.357-3.357a.438.438,0,0,0,0-.619l-.835-.835A.437.437,0,0,0,341.866,573.305Z" transform="translate(-337.463 -572.696)" fill="#4f3cc9"/>
      </g>
      <g id="Group_343" data-name="Group 343">
        <path id="Path_366" data-name="Path 366" d="M218.379,152.388,206.4,140.412l2.885-.175.15-2.478,2.478-.15.15-2.479,2.479-.15.15-2.478,2.479-.15.15-2.479,2.478-.15.15-2.479,2.479-.15.15-2.479,2.48-.151.176-2.886,12.581,12.581-.431.431-11.624-11.624-.126,2.073-2.479.151-.15,2.479-2.479.151-.15,2.479-2.478.15-.15,2.479-2.479.15-.15,2.479-2.479.15-.15,2.479-2.478.15-.15,2.478-2.072.125,11.019,11.019Z" transform="translate(-206.403 -121.579)" fill="#4f3cc9"/>
      </g>
      <rect id="Rectangle_151" data-name="Rectangle 151" width="11.075" height="6.806" transform="translate(104.867 53.591) rotate(45)" fill="#4f3cc9"/>
      <g id="Group_344" data-name="Group 344" transform="translate(66.623 26.243)">
        <path id="Path_367" data-name="Path 367" d="M671.77,338.15a4.162,4.162,0,0,1-2.952-1.221L652.2,320.316l.431-.431L669.249,336.5a3.57,3.57,0,0,0,5.043,0l16.283-16.283a3.566,3.566,0,0,0,0-5.043L662.9,287.5a3.566,3.566,0,0,0-5.043,0l-13.617,13.617-.431-.431,13.617-13.617a4.175,4.175,0,0,1,5.9,0L691,314.743a4.175,4.175,0,0,1,0,5.9l-16.283,16.283A4.162,4.162,0,0,1,671.77,338.15Z" transform="translate(-643.812 -285.848)" fill="#4f3cc9"/>
      </g>
      <g id="Group_347" data-name="Group 347" transform="translate(74.329 59.959)">
        <g id="Group_345" data-name="Group 345">
          <path id="Path_368" data-name="Path 368" d="M719.477,527.334a3.871,3.871,0,0,1-5.474,0L697.39,510.72q-.23.543-.529,1.112l16.322,16.322a3.87,3.87,0,0,0,5.473,0l8.352-8.352Z" transform="translate(-696.487 -510.185)" fill="#4f3cc9"/>
          <path id="Path_369" data-name="Path 369" d="M713.84,526.614a4.162,4.162,0,0,1-2.952-1.221l-16.481-16.481.1-.2c.2-.373.37-.74.518-1.09l.177-.416,16.933,16.933a3.566,3.566,0,0,0,5.043,0l7.531-7.531.431.431-8.352,8.352A4.162,4.162,0,0,1,713.84,526.614ZM695.154,508.8l16.165,16.165a3.572,3.572,0,0,0,3.795.809,4.244,4.244,0,0,1-.453.024,4.147,4.147,0,0,1-2.952-1.223l-16.3-16.3Q695.288,508.532,695.154,508.8Z" transform="translate(-694.407 -507.209)" fill="#4f3cc9"/>
        </g>
        <g id="Group_346" data-name="Group 346" transform="translate(30.306 1.471)">
          <path id="Path_370" data-name="Path 370" d="M902.724,518.28l-7.931,7.931,7.931-7.931Z" transform="translate(-894.578 -518.064)" fill="#4f3cc9"/>
          <rect id="Rectangle_152" data-name="Rectangle 152" width="11.216" height="0.609" transform="translate(0 7.931) rotate(-44.999)" fill="#4f3cc9"/>
        </g>
      </g>
      <path id="Path_371" data-name="Path 371" d="M655.877,178.648a3.87,3.87,0,0,0-5.474,0l-14.9,14.9a3.87,3.87,0,0,0,0,5.473l27.672,27.672a3.87,3.87,0,0,0,5.473,0l14.9-14.9a3.87,3.87,0,0,0,0-5.473Z" transform="translate(-569.188 -168.995)" fill="#ff688f"/>
      <path id="Path_372" data-name="Path 372" d="M644.807,477.848l-2.067,2.638a1.385,1.385,0,0,0,.1,1.789l1.012,1.012a1.027,1.027,0,0,0,1.171.227l2.067-2.638a1.385,1.385,0,0,0-.1-1.789l-1.012-1.012A1.028,1.028,0,0,0,644.807,477.848Z" transform="translate(-576.044 -422.643)" fill="#77e0b5"/>
      <path id="Path_373" data-name="Path 373" d="M565.857,559.26a1.385,1.385,0,0,0-1.789-.1l-2.638,2.067a1.027,1.027,0,0,0,.227,1.171l1.012,1.012a1.385,1.385,0,0,0,1.789.1l2.638-2.067a1.027,1.027,0,0,0-.227-1.171Z" transform="translate(-507.276 -491.05)" fill="#ff688f"/>
      <rect id="Rectangle_153" data-name="Rectangle 153" width="24.616" height="16.685" transform="translate(17 36.205) rotate(-45)" fill="#77e0b5"/>
      <g id="Group_348" data-name="Group 348" transform="translate(12.511 11.749)">
        <path id="Path_374" data-name="Path 374" d="M333.223,263.657a2.961,2.961,0,0,1-2.2-.837l-24.316-22.111-17.365-17.7c-1.264-1.288-1.033-3.651.667-6.833a41.624,41.624,0,0,1,6.884-8.945,41.053,41.053,0,0,1,8.776-7.016c3.122-1.733,5.441-1.968,6.7-.68l9.216,9.392-.431.439-9.216-9.392c-2.32-2.365-9.111,2.082-14.619,7.7s-9.871,12.535-7.551,14.9l17.359,17.692,24.316,22.111c2.224,2.267,8.3-1.559,13.161-6.509s8.612-11.149,6.388-13.415l-.012-.013L329.3,217.668l-5.71-5.82.431-.439,5.729,5.839,21.683,24.77c1.209,1.24,1.081,3.415-.371,6.291a34.109,34.109,0,0,1-6.023,8,33.588,33.588,0,0,1-7.844,6.138A8.955,8.955,0,0,1,333.223,263.657Z" transform="translate(-288.541 -198.719)" fill="#4f3cc9"/>
      </g>
      <g id="Group_349" data-name="Group 349" transform="translate(10.013 22.618)">
        <path id="Path_375" data-name="Path 375" d="M318.97,316.374l-24.31-21.689L277.3,277.32c-2.32-2.32,1.3-8.43,6.354-13.813-6.218,5.832-11.466,13.567-8.787,16.246l17.365,17.365,24.31,21.689c2.6,2.6,9.63-2.05,14.784-7.627C326.584,315.558,321.176,318.58,318.97,316.374Z" transform="translate(-273.841 -263.285)" fill="#4f3cc9"/>
        <path id="Path_376" data-name="Path 376" d="M316.832,318.615a3,3,0,0,1-2.2-.823L290.316,296.1l-17.365-17.365a2.962,2.962,0,0,1-.806-2.235c.061-3.818,4.865-10.008,9.6-14.449l.43.431a36.366,36.366,0,0,0-5.891,7.983c-.895,1.786-1.7,4.174-.47,5.406l17.359,17.359,24.316,21.694a2.426,2.426,0,0,0,1.788.659c2.606,0,6.672-2.655,10.141-5.861l.43.43c-3.847,4.162-9.335,8.393-12.927,8.463ZM290.741,295.66l24.316,21.694a2.447,2.447,0,0,0,1.853.65c1.869-.037,4.658-1.454,7.593-3.739-2.984,1.816-5.861,2.661-7.439,1.094l-24.316-21.695L275.384,276.3c-1.6-1.6-.657-4.621,1.338-7.843-2.439,3.185-3.936,6.129-3.967,8.051a2.378,2.378,0,0,0,.627,1.794Z" transform="translate(-272.145 -262.049)" fill="#4f3cc9"/>
      </g>
      <g id="Group_350" data-name="Group 350" transform="translate(16.128 31.806)">
        <path id="Path_377" data-name="Path 377" d="M328.292,345.661a2.034,2.034,0,0,1-1.5-.559l-13.8-13.8a2.4,2.4,0,0,1,0-3.4l1.444-1.444.431.431-1.444,1.444a1.793,1.793,0,0,0,0,2.536l13.8,13.8c.638.638,1.865.349,2.781-.006l.22.568A5.471,5.471,0,0,1,328.292,345.661Z" transform="translate(-312.289 -326.464)" fill="#4f3cc9"/>
      </g>
      <g id="Group_351" data-name="Group 351" transform="translate(20.627 15.719)">
        <path id="Path_378" data-name="Path 378" d="M357.468,255.809l-.315-.522c5.68-3.429,14.1-12.447,14.608-16.629a1.665,1.665,0,0,0-.357-1.44l-13.8-13.8a1.793,1.793,0,0,0-2.536,0l-12.812,12.812-.431-.431,12.812-12.812a2.4,2.4,0,0,1,3.4,0l13.8,13.8a2.232,2.232,0,0,1,.531,1.944C371.829,243.143,363.382,252.239,357.468,255.809Z" transform="translate(-341.83 -222.288)" fill="#4f3cc9"/>
      </g>
      <path id="Path_379" data-name="Path 379" d="M423.136,224.9a2.1,2.1,0,0,0-2.966,0l-1.292,1.292a2.1,2.1,0,0,1,2.966,0l13.8,13.8c1.781,1.781-1.762,7.183-6.352,11.93,5.185-5.014,9.589-11.277,7.644-13.222Z" transform="translate(-386.515 -208.298)" fill="#4f3cc9"/>
      <g id="Group_352" data-name="Group 352" transform="translate(22.03 22.938)">
        <rect id="Rectangle_154" data-name="Rectangle 154" width="20.299" height="0.609" transform="translate(0 14.353) rotate(-44.999)" fill="#4f3cc9"/>
      </g>
      <g id="Group_353" data-name="Group 353" transform="translate(64.925 38.715)">
        <path id="Path_380" data-name="Path 380" d="M639.524,383.571l-.571-.214a5.937,5.937,0,0,0-1.208-6.137l-5.083-5.363.442-.419,5.083,5.363A6.551,6.551,0,0,1,639.524,383.571Z" transform="translate(-632.663 -371.438)" fill="#4f3cc9"/>
      </g>
      <g id="Group_354" data-name="Group 354" transform="translate(38.696 15.055)">
        <path id="Path_381" data-name="Path 381" d="M483.972,239.355l-17.594-18.566a5.242,5.242,0,0,0-5.11-1.507l-.654.17-.153-.59.654-.17a5.852,5.852,0,0,1,5.706,1.678l17.594,18.566Z" transform="translate(-460.461 -218.51)" fill="#4f3cc9"/>
      </g>
      <g id="Group_355" data-name="Group 355" transform="translate(49.327 37.029)">
        <path id="Path_382" data-name="Path 382" d="M532.7,368a1.353,1.353,0,0,1-.962-.411l-1.012-1.012a1.7,1.7,0,0,1-.127-2.192l2.371-3.026a1.339,1.339,0,0,1,2.039-.13l1.012,1.012a1.7,1.7,0,0,1,.127,2.192l-2.37,3.026a1.363,1.363,0,0,1-1,.538Zm1.345-6.571H534a.762.762,0,0,0-.553.306l-2.371,3.026a1.074,1.074,0,0,0,.078,1.385l1.012,1.012a.745.745,0,0,0,.575.231.762.762,0,0,0,.554-.306l2.371-3.026a1.074,1.074,0,0,0-.078-1.385l-1.012-1.012A.754.754,0,0,0,534.046,361.431Z" transform="translate(-530.26 -360.822)" fill="#4f3cc9"/>
      </g>
      <path id="Path_383" data-name="Path 383" d="M534.374,368.833l-1.012-1.012a1.385,1.385,0,0,1-.1-1.789l2.051-2.617a1.115,1.115,0,0,0-.422.333l-2.371,3.026a1.385,1.385,0,0,0,.1,1.789l1.012,1.012a1.034,1.034,0,0,0,1.584-.1l.32-.408A1.028,1.028,0,0,1,534.374,368.833Z" transform="translate(-482.61 -325.991)" fill="#4f3cc9"/>
      <path id="Path_384" data-name="Path 384" d="M561.929,396.387l-1.012-1.012a1.385,1.385,0,0,1-.1-1.789l2.051-2.618a1.116,1.116,0,0,0-.422.333l-2.371,3.025a1.385,1.385,0,0,0,.1,1.789l1.012,1.012a1.034,1.034,0,0,0,1.584-.1l.32-.408A1.028,1.028,0,0,1,561.929,396.387Z" transform="translate(-505.968 -349.281)" fill="#4f3cc9"/>
      <path id="Path_385" data-name="Path 385" d="M589.484,423.942l-1.012-1.012a1.385,1.385,0,0,1-.1-1.789l2.051-2.618a1.113,1.113,0,0,0-.422.333l-2.371,3.026a1.385,1.385,0,0,0,.1,1.789l1.012,1.012a1.034,1.034,0,0,0,1.584-.1l.32-.408A1.028,1.028,0,0,1,589.484,423.942Z" transform="translate(-529.326 -372.571)" fill="#4f3cc9"/>
      <path id="Path_386" data-name="Path 386" d="M617.039,451.5l-1.012-1.012a1.385,1.385,0,0,1-.1-1.789l2.051-2.617a1.115,1.115,0,0,0-.422.333l-2.37,3.026a1.385,1.385,0,0,0,.1,1.789l1.012,1.012a1.034,1.034,0,0,0,1.584-.1l.32-.408A1.027,1.027,0,0,1,617.039,451.5Z" transform="translate(-552.684 -395.862)" fill="#4f3cc9"/>
      <g id="Group_356" data-name="Group 356" transform="translate(43.661 43.572)">
        <path id="Path_387" data-name="Path 387" d="M495.564,409.83a1.487,1.487,0,0,1-1.059-.439l-1.012-1.012a1.5,1.5,0,0,1,0-2.117l2.7-2.7h0a1.5,1.5,0,0,1,2.117,0l1.012,1.012a1.5,1.5,0,0,1,0,2.117l-2.7,2.7A1.488,1.488,0,0,1,495.564,409.83Zm1.686-6.095a.882.882,0,0,0-.628.26h0l-2.7,2.7a.889.889,0,0,0,0,1.255l1.012,1.012a.888.888,0,0,0,1.256,0l2.7-2.7a.889.889,0,0,0,0-1.256L497.878,404A.882.882,0,0,0,497.25,403.735Z" transform="translate(-493.056 -403.126)" fill="#4f3cc9"/>
      </g>
      <path id="Path_388" data-name="Path 388" d="M497.186,422.744l-1.012-1.012a1.192,1.192,0,0,1,0-1.686l-.775.775a1.192,1.192,0,0,0,0,1.686l1.012,1.012a1.192,1.192,0,0,0,1.686,0l.775-.775A1.192,1.192,0,0,1,497.186,422.744Z" transform="translate(-451.086 -373.882)" fill="#4f3cc9"/>
      <path id="Path_389" data-name="Path 389" d="M524.741,450.3l-1.012-1.012a1.193,1.193,0,0,1,0-1.686l-.775.775a1.192,1.192,0,0,0,0,1.686l1.012,1.012a1.193,1.193,0,0,0,1.686,0l.775-.775A1.192,1.192,0,0,1,524.741,450.3Z" transform="translate(-474.444 -397.175)" fill="#4f3cc9"/>
      <path id="Path_390" data-name="Path 390" d="M552.3,477.855l-1.012-1.012a1.192,1.192,0,0,1,0-1.686l-.775.775a1.192,1.192,0,0,0,0,1.686l1.012,1.012a1.192,1.192,0,0,0,1.686,0l.775-.775A1.193,1.193,0,0,1,552.3,477.855Z" transform="translate(-497.802 -420.469)" fill="#4f3cc9"/>
      <path id="Path_391" data-name="Path 391" d="M579.852,505.41,578.84,504.4a1.193,1.193,0,0,1,0-1.686l-.775.775a1.193,1.193,0,0,0,0,1.686l1.012,1.012a1.193,1.193,0,0,0,1.686,0l.775-.775A1.192,1.192,0,0,1,579.852,505.41Z" transform="translate(-521.161 -443.762)" fill="#4f3cc9"/>
      <g id="Group_357" data-name="Group 357" transform="translate(53.524 41.293)">
        <path id="Path_392" data-name="Path 392" d="M560.257,395.557a1.353,1.353,0,0,1-.963-.411l-1.012-1.012a1.7,1.7,0,0,1-.127-2.192l2.371-3.026a1.339,1.339,0,0,1,2.039-.13l1.012,1.012a1.7,1.7,0,0,1,.127,2.192l-2.37,3.026a1.363,1.363,0,0,1-1,.538Zm1.345-6.571h-.042a.761.761,0,0,0-.553.306l-2.371,3.026a1.074,1.074,0,0,0,.078,1.385l1.012,1.012a.745.745,0,0,0,.575.231.762.762,0,0,0,.554-.306l2.37-3.026a1.074,1.074,0,0,0-.078-1.385l-1.012-1.012A.754.754,0,0,0,561.6,388.986Z" transform="translate(-557.815 -388.376)" fill="#4f3cc9"/>
      </g>
      <g id="Group_358" data-name="Group 358" transform="translate(47.857 47.837)">
        <path id="Path_393" data-name="Path 393" d="M523.115,437.388a1.492,1.492,0,0,1-1.059-.438l-1.012-1.012a1.5,1.5,0,0,1,0-2.117l2.7-2.7a1.5,1.5,0,0,1,2.117,0l1.012,1.012a1.5,1.5,0,0,1,0,2.117l-2.7,2.7A1.493,1.493,0,0,1,523.115,437.388Zm1.059-5.834-2.7,2.7a.888.888,0,0,0,0,1.255l1.012,1.012a.889.889,0,0,0,1.255,0l2.7-2.7a.888.888,0,0,0,0-1.255l-1.012-1.012a.889.889,0,0,0-1.255,0Z" transform="translate(-520.606 -430.686)" fill="#4f3cc9"/>
      </g>
      <g id="Group_359" data-name="Group 359" transform="translate(57.721 45.558)">
        <path id="Path_394" data-name="Path 394" d="M587.811,423.111a1.352,1.352,0,0,1-.962-.411l-1.012-1.012a1.7,1.7,0,0,1-.127-2.192l2.371-3.026a1.363,1.363,0,0,1,1-.538,1.344,1.344,0,0,1,1.043.408l1.012,1.012a1.7,1.7,0,0,1,.127,2.192l-2.371,3.026a1.363,1.363,0,0,1-1,.538Zm.749-6.264-2.37,3.026a1.074,1.074,0,0,0,.078,1.385l1.012,1.012a.749.749,0,0,0,.575.231.762.762,0,0,0,.554-.306l2.371-3.026a1.074,1.074,0,0,0-.078-1.385l-1.012-1.012a.742.742,0,0,0-.575-.231.762.762,0,0,0-.554.306Z" transform="translate(-585.369 -415.931)" fill="#4f3cc9"/>
      </g>
      <g id="Group_360" data-name="Group 360" transform="translate(52.054 52.101)">
        <path id="Path_395" data-name="Path 395" d="M550.67,464.94a1.487,1.487,0,0,1-1.059-.439L548.6,463.49a1.5,1.5,0,0,1,0-2.117l2.7-2.7h0a1.5,1.5,0,0,1,2.117,0l1.012,1.012a1.5,1.5,0,0,1,0,2.117l-2.7,2.7A1.487,1.487,0,0,1,550.67,464.94Zm1.686-6.095a.883.883,0,0,0-.628.26h0l-2.7,2.7a.889.889,0,0,0,0,1.255l1.012,1.012a.888.888,0,0,0,1.255,0l2.7-2.7a.889.889,0,0,0,0-1.255l-1.012-1.012A.883.883,0,0,0,552.356,458.845Z" transform="translate(-548.161 -458.236)" fill="#4f3cc9"/>
      </g>
      <g id="Group_361" data-name="Group 361" transform="translate(61.918 49.823)">
        <path id="Path_396" data-name="Path 396" d="M615.367,450.668a1.353,1.353,0,0,1-.962-.41l-1.012-1.012a1.7,1.7,0,0,1-.127-2.192l2.37-3.026a1.363,1.363,0,0,1,1-.538,1.346,1.346,0,0,1,1.043.408l1.012,1.012a1.7,1.7,0,0,1,.127,2.192l-2.37,3.026a1.362,1.362,0,0,1-1,.538Zm.749-6.264-2.371,3.026a1.074,1.074,0,0,0,.078,1.385l1.012,1.012a.745.745,0,0,0,.575.231.762.762,0,0,0,.554-.306l2.37-3.026a1.074,1.074,0,0,0-.078-1.385l-1.012-1.012a.742.742,0,0,0-.575-.231.762.762,0,0,0-.554.306Z" transform="translate(-612.925 -443.487)" fill="#4f3cc9"/>
      </g>
      <g id="Group_362" data-name="Group 362" transform="translate(36.967 49.579)">
        <path id="Path_397" data-name="Path 397" d="M451.7,448.2a1.658,1.658,0,0,1-1.172-.468l-1.012-1.012a1.348,1.348,0,0,1-.408-1.043,1.363,1.363,0,0,1,.538-1l3.026-2.371a1.7,1.7,0,0,1,2.192.127l1.012,1.012a1.348,1.348,0,0,1,.408,1.043,1.363,1.363,0,0,1-.538,1l-3.026,2.371A1.653,1.653,0,0,1,451.7,448.2Zm1.994-5.626a1.048,1.048,0,0,0-.647.216l-3.026,2.371a.762.762,0,0,0-.306.553.747.747,0,0,0,.231.575l1.012,1.012a1.075,1.075,0,0,0,1.385.078l3.026-2.371a.762.762,0,0,0,.306-.553.747.747,0,0,0-.231-.575l-1.012-1.012A1.046,1.046,0,0,0,453.7,442.577Z" transform="translate(-449.108 -441.973)" fill="#4f3cc9"/>
      </g>
      <path id="Path_398" data-name="Path 398" d="M455.089,460.974a1.385,1.385,0,0,1-1.789-.1l-1.012-1.012a1.03,1.03,0,0,1-.249-1.123l-.508.4a1.034,1.034,0,0,0-.1,1.584l1.012,1.012a1.385,1.385,0,0,0,1.789.1l3.026-2.371a1.108,1.108,0,0,0,.351-.461Z" transform="translate(-413.837 -406.593)" fill="#4f3cc9"/>
      <path id="Path_399" data-name="Path 399" d="M482.644,488.529a1.385,1.385,0,0,1-1.789-.1l-1.012-1.012a1.03,1.03,0,0,1-.249-1.123l-.508.4a1.034,1.034,0,0,0-.1,1.584L480,489.286a1.385,1.385,0,0,0,1.789.1l3.026-2.371a1.108,1.108,0,0,0,.351-.461Z" transform="translate(-437.195 -429.887)" fill="#4f3cc9"/>
      <path id="Path_400" data-name="Path 400" d="M510.2,516.085a1.385,1.385,0,0,1-1.789-.1l-1.012-1.012a1.03,1.03,0,0,1-.249-1.123l-.508.4a1.034,1.034,0,0,0-.1,1.584l1.012,1.012a1.385,1.385,0,0,0,1.789.1l3.026-2.371a1.11,1.11,0,0,0,.351-.461Z" transform="translate(-460.553 -453.181)" fill="#4f3cc9"/>
      <path id="Path_401" data-name="Path 401" d="M537.755,543.64a1.385,1.385,0,0,1-1.789-.1l-1.012-1.012a1.03,1.03,0,0,1-.249-1.123l-.508.4a1.034,1.034,0,0,0-.1,1.584l1.012,1.012a1.385,1.385,0,0,0,1.789.1l3.026-2.371a1.109,1.109,0,0,0,.351-.461Z" transform="translate(-483.912 -476.475)" fill="#4f3cc9"/>
      <g id="Group_363" data-name="Group 363" transform="translate(41.164 53.843)">
        <path id="Path_402" data-name="Path 402" d="M479.258,475.757a1.659,1.659,0,0,1-1.173-.468l-1.012-1.012a1.348,1.348,0,0,1-.408-1.043,1.363,1.363,0,0,1,.538-1l3.026-2.37a1.7,1.7,0,0,1,2.192.127l1.012,1.012a1.348,1.348,0,0,1,.408,1.043,1.363,1.363,0,0,1-.538,1l-3.026,2.37A1.652,1.652,0,0,1,479.258,475.757Zm-1.679-3.039a.762.762,0,0,0-.306.554.747.747,0,0,0,.231.575l1.012,1.012a1.074,1.074,0,0,0,1.385.078l3.026-2.371a.761.761,0,0,0,.306-.553.747.747,0,0,0-.231-.575l-1.012-1.012a1.074,1.074,0,0,0-1.385-.078Z" transform="translate(-476.663 -469.527)" fill="#4f3cc9"/>
      </g>
      <g id="Group_364" data-name="Group 364" transform="translate(45.361 58.107)">
        <path id="Path_403" data-name="Path 403" d="M506.813,503.313a1.658,1.658,0,0,1-1.172-.468l-1.012-1.012a1.348,1.348,0,0,1-.408-1.043,1.363,1.363,0,0,1,.538-1l3.026-2.371a1.7,1.7,0,0,1,2.192.127l1.012,1.012a1.348,1.348,0,0,1,.408,1.043,1.363,1.363,0,0,1-.538,1l-3.026,2.37A1.653,1.653,0,0,1,506.813,503.313Zm1.994-5.626a1.048,1.048,0,0,0-.647.216l-3.026,2.371a.762.762,0,0,0-.306.553.747.747,0,0,0,.231.575l1.012,1.012a1.075,1.075,0,0,0,1.385.078l3.025-2.371a.762.762,0,0,0,.306-.554.747.747,0,0,0-.231-.575l-1.012-1.012A1.046,1.046,0,0,0,508.806,497.687Z" transform="translate(-504.218 -497.083)" fill="#4f3cc9"/>
      </g>
      <g id="Group_365" data-name="Group 365" transform="translate(49.558 62.371)">
        <path id="Path_404" data-name="Path 404" d="M534.369,530.868a1.658,1.658,0,0,1-1.172-.468l-1.012-1.012a1.348,1.348,0,0,1-.408-1.043,1.363,1.363,0,0,1,.538-1l3.026-2.37a1.7,1.7,0,0,1,2.192.127l1.012,1.012a1.347,1.347,0,0,1,.408,1.043,1.362,1.362,0,0,1-.538,1l-3.026,2.371A1.652,1.652,0,0,1,534.369,530.868Zm-1.678-3.039a.763.763,0,0,0-.306.554.746.746,0,0,0,.231.575l1.012,1.012a1.074,1.074,0,0,0,1.385.078l3.026-2.37a.763.763,0,0,0,.306-.554.747.747,0,0,0-.231-.575l-1.012-1.012a1.074,1.074,0,0,0-1.385-.078Z" transform="translate(-531.774 -524.637)" fill="#4f3cc9"/>
      </g>
      <g id="Group_366" data-name="Group 366" transform="translate(56.251 56.366)">
        <path id="Path_405" data-name="Path 405" d="M578.225,492.5a1.492,1.492,0,0,1-1.058-.438l-1.012-1.012a1.5,1.5,0,0,1,0-2.117l2.7-2.7a1.5,1.5,0,0,1,2.117,0l1.012,1.012a1.5,1.5,0,0,1,0,2.117l-2.7,2.7A1.493,1.493,0,0,1,578.225,492.5Zm1.059-5.834-2.7,2.7a.887.887,0,0,0,0,1.256l1.012,1.012a.889.889,0,0,0,1.256,0l2.7-2.7a.889.889,0,0,0,0-1.255l-1.012-1.012a.889.889,0,0,0-1.256,0Z" transform="translate(-575.716 -485.796)" fill="#4f3cc9"/>
      </g>
      <path id="Path_406" data-name="Path 406" d="M644.594,479.053l-1.012-1.012a1.385,1.385,0,0,1-.1-1.789l2.051-2.617a1.115,1.115,0,0,0-.422.333l-2.37,3.026a1.385,1.385,0,0,0,.1,1.789l1.012,1.012a1.035,1.035,0,0,0,1.584-.1l.32-.408A1.028,1.028,0,0,1,644.594,479.053Z" transform="translate(-576.043 -419.154)" fill="#4f3cc9"/>
      <path id="Path_407" data-name="Path 407" d="M607.408,532.966l-1.012-1.012a1.192,1.192,0,0,1,0-1.686l-.775.775a1.193,1.193,0,0,0,0,1.686l1.012,1.012a1.192,1.192,0,0,0,1.686,0l.775-.775A1.192,1.192,0,0,1,607.408,532.966Z" transform="translate(-544.519 -467.056)" fill="#4f3cc9"/>
      <g id="Group_367" data-name="Group 367" transform="translate(66.116 54.088)">
        <path id="Path_408" data-name="Path 408" d="M642.923,478.224a1.353,1.353,0,0,1-.962-.411l-1.012-1.012a1.7,1.7,0,0,1-.127-2.192l2.37-3.026a1.363,1.363,0,0,1,1-.538,1.348,1.348,0,0,1,1.043.408l1.012,1.012a1.7,1.7,0,0,1,.127,2.192L644,477.683a1.362,1.362,0,0,1-1,.538Zm.749-6.264-2.371,3.026a1.074,1.074,0,0,0,.078,1.385l1.012,1.012a.747.747,0,0,0,.576.231.762.762,0,0,0,.553-.306l2.371-3.026a1.074,1.074,0,0,0-.078-1.385l-1.012-1.012a.746.746,0,0,0-.575-.231.762.762,0,0,0-.554.306Z" transform="translate(-640.481 -471.044)" fill="#4f3cc9"/>
      </g>
      <path id="Path_409" data-name="Path 409" d="M565.311,571.2a1.385,1.385,0,0,1-1.789-.1l-1.012-1.012a1.03,1.03,0,0,1-.249-1.123l-.508.4a1.034,1.034,0,0,0-.1,1.584l1.012,1.012a1.385,1.385,0,0,0,1.789.1l3.026-2.371a1.109,1.109,0,0,0,.351-.461Z" transform="translate(-507.271 -499.594)" fill="#4f3cc9"/>
      <g id="Group_368" data-name="Group 368" transform="translate(53.755 66.811)">
        <path id="Path_410" data-name="Path 410" d="M561.924,558.424a1.658,1.658,0,0,1-1.172-.468l-1.012-1.012a1.348,1.348,0,0,1-.408-1.043,1.362,1.362,0,0,1,.538-1l3.026-2.371a1.7,1.7,0,0,1,2.192.127l1.012,1.012a1.348,1.348,0,0,1,.408,1.043,1.362,1.362,0,0,1-.538,1l-3.026,2.371A1.653,1.653,0,0,1,561.924,558.424Zm1.994-5.626a1.05,1.05,0,0,0-.647.216l-3.026,2.371a.762.762,0,0,0-.306.553.747.747,0,0,0,.231.575l1.012,1.012a1.074,1.074,0,0,0,1.385.078l3.026-2.371a.763.763,0,0,0,.306-.553.746.746,0,0,0-.231-.575l-1.012-1.012A1.046,1.046,0,0,0,563.918,552.8Z" transform="translate(-559.329 -552.194)" fill="#4f3cc9"/>
      </g>
      <g id="Group_369" data-name="Group 369" transform="translate(60.448 60.63)">
        <path id="Path_411" data-name="Path 411" d="M605.781,520.052a1.486,1.486,0,0,1-1.058-.438L603.71,518.6a1.5,1.5,0,0,1,0-2.117l2.7-2.7a1.5,1.5,0,0,1,2.117,0l1.012,1.012a1.5,1.5,0,0,1,0,2.117l-2.7,2.7A1.487,1.487,0,0,1,605.781,520.052Zm1.686-6.094a.882.882,0,0,0-.628.26l-2.7,2.7a.889.889,0,0,0,0,1.255l1.012,1.012a.888.888,0,0,0,1.255,0l2.7-2.7a.889.889,0,0,0,0-1.256l-1.012-1.012A.882.882,0,0,0,607.467,513.957Z" transform="translate(-603.272 -513.348)" fill="#4f3cc9"/>
      </g>
      <g id="Group_370" data-name="Group 370" transform="translate(29.881 30.366)">
        <rect id="Rectangle_155" data-name="Rectangle 155" width="26.692" height="0.609" transform="translate(0 18.874) rotate(-45)" fill="#4f3cc9"/>
      </g>
      <g id="Group_374" data-name="Group 374" transform="translate(35.443 35.261)">
        <g id="Group_371" data-name="Group 371" transform="translate(0 10.261)">
          <rect id="Rectangle_156" data-name="Rectangle 156" width="0.609" height="3.198" transform="translate(0 0.431) rotate(-44.999)" fill="#4f3cc9"/>
        </g>
        <g id="Group_372" data-name="Group 372" transform="translate(5.131 5.131)">
          <rect id="Rectangle_157" data-name="Rectangle 157" width="0.609" height="3.727" transform="translate(0 0.431) rotate(-45)" fill="#4f3cc9"/>
        </g>
        <g id="Group_373" data-name="Group 373" transform="translate(10.261 0)">
          <rect id="Rectangle_158" data-name="Rectangle 158" width="0.609" height="3.198" transform="translate(0 0.431) rotate(-45.001)" fill="#4f3cc9"/>
        </g>
      </g>
      <rect id="Rectangle_159" data-name="Rectangle 159" width="4.386" height="1.261" transform="translate(30.106 17.325) rotate(135)" fill="#77e0b5"/>
      <rect id="Rectangle_160" data-name="Rectangle 160" width="2.072" height="1.261" transform="translate(26.148 21.338) rotate(135)" fill="#ff688f"/>
      <path id="Path_412" data-name="Path 412" d="M462.165,403.764h-2.043v2.043Z" transform="translate(-421.477 -360.134)" fill="#4f3cc9"/>
      <path id="Path_413" data-name="Path 413" d="M487.618,364.9h2.043v-2.043Z" transform="translate(-444.785 -325.548)" fill="#4f3cc9"/>
      <g id="Group_375" data-name="Group 375" transform="translate(64.323 60.604)">
        <path id="Path_414" data-name="Path 414" d="M629.141,521.751l-.431-.431,7.641-7.641a2.263,2.263,0,0,1,2.682-.4l.248.133-.287.537-.248-.133a1.657,1.657,0,0,0-1.964.291Z" transform="translate(-628.71 -513.01)" fill="#4f3cc9"/>
      </g>
      <g id="Group_376" data-name="Group 376" transform="translate(60.35 70.977)">
        <path id="Path_415" data-name="Path 415" d="M603.406,584.657l-.508-.95a2.262,2.262,0,0,1,.4-2.682l1.48-1.48.431.431-1.48,1.48a1.656,1.656,0,0,0-.291,1.964l.508.95Z" transform="translate(-602.626 -579.545)" fill="#4f3cc9"/>
      </g>
      <rect id="Rectangle_161" data-name="Rectangle 161" width="11.666" height="1.766" transform="translate(24.95 39.779) rotate(-45)" fill="#fff"/>
      <rect id="Rectangle_162" data-name="Rectangle 162" width="1.016" height="1.88" transform="translate(33.298 21.191) rotate(-45)" fill="#fff"/>
      <rect id="Rectangle_163" data-name="Rectangle 163" width="1.016" height="1.88" transform="translate(32.238 22.267) rotate(-45)" fill="#fff"/>
      <path id="Path_416" data-name="Path 416" d="M411.1,268.624l.346.346-.3.3.639.639.3-.3.346.346.718-.719-1.33-1.33Z" transform="translate(-379.921 -245.281)" fill="#fff"/>
      <rect id="Rectangle_164" data-name="Rectangle 164" width="5.833" height="1.766" transform="translate(27.645 42.554) rotate(-45)" fill="#fff"/>
      <rect id="Rectangle_165" data-name="Rectangle 165" width="8.963" height="1.766" transform="translate(33.257 36.833) rotate(-45)" fill="#fff"/>
      <g id="Group_377" data-name="Group 377" transform="translate(64.995 6.942)">
        <path id="Path_417" data-name="Path 417" d="M664.858,219.233a4.432,4.432,0,0,1-3.144-1.3l-27.288-27.288a4.452,4.452,0,0,1,0-6.288l15.9-15.9a4.446,4.446,0,0,1,6.288,0l8.276,8.276-.431.431-8.276-8.276a3.837,3.837,0,0,0-5.427,0l-15.9,15.9a3.842,3.842,0,0,0,0,5.427L662.144,217.5a3.842,3.842,0,0,0,5.427,0l15.9-15.9a3.842,3.842,0,0,0,0-5.427l-16.659-16.659.431-.431L683.9,195.746a4.451,4.451,0,0,1,0,6.288l-15.9,15.9A4.432,4.432,0,0,1,664.858,219.233Z" transform="translate(-633.125 -167.156)" fill="#4f3cc9"/>
      </g>
      <g id="Group_378" data-name="Group 378" transform="translate(64.064 24.963)">
        <path id="Path_418" data-name="Path 418" d="M664.1,315.9a3.87,3.87,0,0,1-5.474,0l-27.672-27.672a3.87,3.87,0,0,1,0-5.473l-.82.82a3.87,3.87,0,0,0,0,5.473L657.8,316.719a3.87,3.87,0,0,0,5.473,0l16.283-16.282h0Z" transform="translate(-628.694 -282.538)" fill="#4f3cc9"/>
        <path id="Path_419" data-name="Path 419" d="M658.855,316.958a4.147,4.147,0,0,1-2.952-1.223l-27.672-27.672a4.18,4.18,0,0,1,0-5.9l.82-.82.431.431a3.57,3.57,0,0,0,0,5.043l27.672,27.672a3.565,3.565,0,0,0,5.042,0h0l15.462-15.462.431.431-16.282,16.283A4.147,4.147,0,0,1,658.855,316.958Zm-31-33.129a3.571,3.571,0,0,0,.806,3.8L656.334,315.3a3.575,3.575,0,0,0,3.8.809,4.285,4.285,0,0,1-.461.025,4.147,4.147,0,0,1-2.952-1.223l-27.672-27.672A4.17,4.17,0,0,1,627.856,283.83Z" transform="translate(-627.01 -281.339)" fill="#4f3cc9"/>
      </g>
      <circle id="Ellipse_20" data-name="Ellipse 20" cx="5.132" cy="5.132" r="5.132" transform="translate(76.71 19.089) rotate(-45)" fill="#fff"/>
      <g id="Group_379" data-name="Group 379" transform="translate(83.884 18.56)">
        <path id="Path_420" data-name="Path 420" d="M767.279,246.977h-.609c0-.124,0-.249-.014-.372a4.828,4.828,0,0,0-8.99-2.05l-.527-.306a5.438,5.438,0,0,1,10.124,2.31C767.274,246.7,767.279,246.837,767.279,246.977Z" transform="translate(-757.139 -241.54)" fill="#4f3cc9"/>
      </g>
      <g id="Group_380" data-name="Group 380" transform="translate(83.15 22.716)">
        <path id="Path_421" data-name="Path 421" d="M757.76,275.151a5.441,5.441,0,0,1-5.268-6.788l.59.151a4.832,4.832,0,0,0,4.677,6.028,4.789,4.789,0,0,0,3.464-1.466l.437.424A5.394,5.394,0,0,1,757.76,275.151Z" transform="translate(-752.323 -268.363)" fill="#4f3cc9"/>
      </g>
      <rect id="Rectangle_166" data-name="Rectangle 166" width="8.187" height="2.862" transform="translate(71.737 24.642) rotate(45)" fill="#fff"/>
      <rect id="Rectangle_167" data-name="Rectangle 167" width="8.187" height="2.862" transform="translate(79.058 32.083) rotate(45)" fill="#fff"/>
      <rect id="Rectangle_168" data-name="Rectangle 168" width="8.187" height="2.862" transform="translate(86.379 39.523) rotate(45)" fill="#fff"/>
      <rect id="Rectangle_169" data-name="Rectangle 169" width="8.187" height="2.862" transform="translate(93.7 46.963) rotate(45)" fill="#fff"/>
      <rect id="Rectangle_170" data-name="Rectangle 170" width="5.447" height="1.472" transform="translate(84.512 61.942) rotate(45)" fill="#4f3cc9"/>
      <rect id="Rectangle_171" data-name="Rectangle 171" width="8.187" height="1.473" transform="translate(89.896 67.592) rotate(45)" fill="#4f3cc9"/>
      <rect id="Rectangle_172" data-name="Rectangle 172" width="12.808" height="1.472" transform="matrix(0.707, 0.707, -0.707, 0.707, 89.201, 61.751)" fill="#4f3cc9"/>
      <rect id="Rectangle_173" data-name="Rectangle 173" width="3.044" height="1.473" transform="translate(14.965 15.741) rotate(135)" fill="#4f3cc9"/>
      <rect id="Rectangle_174" data-name="Rectangle 174" width="4.469" height="1.473" transform="translate(22.698 7.785) rotate(135)" fill="#4f3cc9"/>
      <rect id="Rectangle_175" data-name="Rectangle 175" width="4.576" height="1.473" transform="matrix(-0.707, 0.707, -0.707, -0.707, 11.956, 18.799)" fill="#4f3cc9"/>
      <rect id="Rectangle_176" data-name="Rectangle 176" width="7.159" height="1.473" transform="translate(16.355 19.564) rotate(135)" fill="#4f3cc9"/>
      <rect id="Rectangle_177" data-name="Rectangle 177" width="12.808" height="1.473" transform="translate(92.536 31.851) rotate(45)" fill="#fff"/>
      <rect id="Rectangle_178" data-name="Rectangle 178" width="7.967" height="1.473" transform="translate(95.108 29.213) rotate(45)" fill="#fff"/>
      <g id="Group_381" data-name="Group 381" transform="translate(3.326 53.427)">
        <path id="Path_422" data-name="Path 422" d="M241.82,493.67a3.39,3.39,0,0,1-2.4-.994l-10.181-10.181a3.4,3.4,0,0,1,0-4.809L241.6,465.318a3.4,3.4,0,0,1,4.809,0l1.636,1.636-.431.431-1.636-1.636a2.794,2.794,0,0,0-3.947,0l-12.368,12.368a2.794,2.794,0,0,0,0,3.947l10.181,10.181a2.8,2.8,0,0,0,3.947,0l12.368-12.368a2.8,2.8,0,0,0,0-3.947l-6.954-6.954.431-.431,6.954,6.954a3.4,3.4,0,0,1,0,4.809l-12.368,12.368A3.391,3.391,0,0,1,241.82,493.67Z" transform="translate(-228.24 -464.323)" fill="#4f3cc9"/>
      </g>
      <g id="Group_382" data-name="Group 382" transform="translate(2.013 66.79)">
        <path id="Path_423" data-name="Path 423" d="M234.008,568.028l-10.181-10.181a3.1,3.1,0,0,1,0-4.378l-1.313,1.313a3.1,3.1,0,0,0,0,4.378l10.181,10.181a3.1,3.1,0,0,0,4.378,0l1.313-1.313A3.1,3.1,0,0,1,234.008,568.028Z" transform="translate(-221.304 -553.254)" fill="#4f3cc9"/>
        <path id="Path_424" data-name="Path 424" d="M233.2,569.352a3.39,3.39,0,0,1-2.4-.994l-10.181-10.181a3.4,3.4,0,0,1,0-4.809l1.313-1.313.431.431a2.794,2.794,0,0,0,0,3.947l10.181,10.181a2.8,2.8,0,0,0,3.945,0l0,0h0l.431.431-1.313,1.313A3.39,3.39,0,0,1,233.2,569.352Zm-12.216-15.49a2.791,2.791,0,0,0,.062,3.884l10.181,10.181a2.791,2.791,0,0,0,3.887.059,3.4,3.4,0,0,1-3-.941l-10.181-10.181a3.378,3.378,0,0,1-1-2.4A3.447,3.447,0,0,1,220.981,553.863Z" transform="translate(-219.617 -552.055)" fill="#4f3cc9"/>
      </g>
      <g id="Group_386" data-name="Group 386" transform="translate(14.464 63.228)">
        <g id="Group_383" data-name="Group 383" transform="translate(0 3.715)">
          <path id="Path_425" data-name="Path 425" d="M303.1,556.362h-.609a1.122,1.122,0,0,0-1.12-1.12v-.609A1.731,1.731,0,0,1,303.1,556.362Z" transform="translate(-301.367 -554.633)" fill="#4f3cc9"/>
        </g>
        <g id="Group_384" data-name="Group 384" transform="translate(0 1.832)">
          <path id="Path_426" data-name="Path 426" d="M304.979,545.884h-.609a3.006,3.006,0,0,0-3-3v-.609A3.616,3.616,0,0,1,304.979,545.884Z" transform="translate(-301.367 -542.272)" fill="#4f3cc9"/>
        </g>
        <g id="Group_385" data-name="Group 385">
          <path id="Path_427" data-name="Path 427" d="M306.811,535.689H306.2a4.84,4.84,0,0,0-4.835-4.835v-.609A5.45,5.45,0,0,1,306.811,535.689Z" transform="translate(-301.367 -530.245)" fill="#4f3cc9"/>
        </g>
      </g>
      <g id="Group_390" data-name="Group 390" transform="translate(105.652 36.795)">
        <g id="Group_387" data-name="Group 387">
          <path id="Path_428" data-name="Path 428" d="M900.054,361.126v-.609a1.121,1.121,0,0,0,1.12-1.12h.609A1.731,1.731,0,0,1,900.054,361.126Z" transform="translate(-900.054 -359.397)" fill="#fff"/>
        </g>
        <g id="Group_388" data-name="Group 388">
          <path id="Path_429" data-name="Path 429" d="M900.054,363.009V362.4a3.006,3.006,0,0,0,3-3h.609A3.616,3.616,0,0,1,900.054,363.009Z" transform="translate(-900.054 -359.397)" fill="#fff"/>
        </g>
        <g id="Group_389" data-name="Group 389">
          <path id="Path_430" data-name="Path 430" d="M900.054,364.841v-.609a4.84,4.84,0,0,0,4.835-4.835h.609A5.45,5.45,0,0,1,900.054,364.841Z" transform="translate(-900.054 -359.397)" fill="#fff"/>
        </g>
      </g>
      <g id="Group_397" data-name="Group 397" transform="translate(7.231 57.333)">
        <g id="Group_393" data-name="Group 393">
          <g id="Group_391" data-name="Group 391" transform="translate(0 8.554)">
            <path id="Path_431" data-name="Path 431" d="M255.2,548.761l-1.319-1.319,1.319-1.319.431.431-.889.888.889.889Z" transform="translate(-253.88 -546.123)" fill="#4f3cc9"/>
          </g>
          <g id="Group_392" data-name="Group 392" transform="translate(8.554)">
            <path id="Path_432" data-name="Path 432" d="M312.247,491.714l-.889-.889-.889.889-.431-.431,1.319-1.319,1.319,1.319Z" transform="translate(-310.039 -489.964)" fill="#4f3cc9"/>
          </g>
        </g>
        <g id="Group_396" data-name="Group 396" transform="translate(7.62 7.62)">
          <g id="Group_394" data-name="Group 394" transform="translate(9.442)">
            <path id="Path_433" data-name="Path 433" d="M366.331,542.631l-.431-.431.889-.889-.889-.888.431-.431,1.319,1.319Z" transform="translate(-365.9 -539.992)" fill="#4f3cc9"/>
          </g>
          <g id="Group_395" data-name="Group 395" transform="translate(0 9.442)">
            <path id="Path_434" data-name="Path 434" d="M305.228,603.734l-1.319-1.319.431-.431.889.889.888-.889.431.431Z" transform="translate(-303.908 -601.984)" fill="#4f3cc9"/>
          </g>
        </g>
      </g>
      <g id="Group_398" data-name="Group 398" transform="translate(41.706 71.758)">
        <rect id="Rectangle_179" data-name="Rectangle 179" width="8.063" height="0.609" transform="translate(0 5.702) rotate(-45.001)" fill="#4f3cc9"/>
      </g>
      <g id="Group_399" data-name="Group 399" transform="translate(27.913 78.329)">
        <path id="Path_435" data-name="Path 435" d="M396.339,632.616a5.547,5.547,0,0,1-3.934-1.627l-2.743-2.743.431-.431,2.743,2.743a4.96,4.96,0,0,0,7.007,0l1.683-1.683.431.431-1.684,1.683A5.547,5.547,0,0,1,396.339,632.616Z" transform="translate(-389.661 -627.815)" fill="#4f3cc9"/>
      </g>
      <path id="Path_436" data-name="Path 436" d="M254.189,578a.552.552,0,1,1-.552-.552A.552.552,0,0,1,254.189,578Z" transform="translate(-245.975 -506.793)" fill="#ff688f"/>
      <path id="Path_437" data-name="Path 437" d="M265.056,588.871a.552.552,0,1,1-.552-.552A.552.552,0,0,1,265.056,588.871Z" transform="translate(-255.187 -516.006)" fill="#ff688f"/>
      <path id="Path_438" data-name="Path 438" d="M275.924,599.738a.552.552,0,1,1-.552-.552A.552.552,0,0,1,275.924,599.738Z" transform="translate(-264.399 -525.217)" fill="#ff688f"/>
      <path id="Path_439" data-name="Path 439" d="M286.791,610.606a.552.552,0,1,1-.552-.552A.552.552,0,0,1,286.791,610.606Z" transform="translate(-273.611 -534.43)" fill="#77e0b5"/>
    </g>
    <g id="Group_401" data-name="Group 401" transform="translate(74.838 72.099)">
      <path id="Path_440" data-name="Path 440" d="M687.717,588.319l-3.083,3.083Z" transform="translate(-684.419 -588.104)" fill="#4f3cc9"/>
      <rect id="Rectangle_180" data-name="Rectangle 180" width="4.36" height="0.609" transform="translate(0 3.083) rotate(-45)" fill="#4f3cc9"/>
    </g>
    <g id="Group_402" data-name="Group 402" transform="translate(71.257 78.028)">
      <rect id="Rectangle_181" data-name="Rectangle 181" width="11.389" height="0.609" transform="translate(0 8.054) rotate(-45)" fill="#4f3cc9"/>
    </g>
    <g id="Group_403" data-name="Group 403" transform="translate(120.653 44.91)">
      <rect id="Rectangle_182" data-name="Rectangle 182" width="5.586" height="0.609" transform="translate(0 3.95) rotate(-45)" fill="#4f3cc9"/>
    </g>
    <g id="Group_404" data-name="Group 404" transform="translate(69.378 5.615)">
      <rect id="Rectangle_183" data-name="Rectangle 183" width="6.6" height="0.609" transform="translate(0 4.667) rotate(-45)" fill="#4f3cc9"/>
    </g>
    <g id="Group_405" data-name="Group 405" transform="translate(56.567 13.732)">
      <rect id="Rectangle_184" data-name="Rectangle 184" width="6.6" height="0.609" transform="translate(0 4.667) rotate(-45)" fill="#fff"/>
    </g>
    <g id="Group_406" data-name="Group 406" transform="translate(70.55 15.623)">
      <rect id="Rectangle_185" data-name="Rectangle 185" width="1.918" height="0.609" transform="translate(0 1.356) rotate(-45)" fill="#fff"/>
    </g>
    <g id="Group_407" data-name="Group 407" transform="translate(65.647 19.011)">
      <rect id="Rectangle_186" data-name="Rectangle 186" width="4.136" height="0.609" transform="translate(0 2.924) rotate(-45)" fill="#fff"/>
    </g>
    <g id="Group_408" data-name="Group 408" transform="translate(45.767 3.913)">
      <rect id="Rectangle_187" data-name="Rectangle 187" width="6.211" height="0.609" transform="translate(0 4.392) rotate(-45)" fill="#4f3cc9"/>
    </g>
    <g id="Group_409" data-name="Group 409" transform="translate(5.353 44.456)">
      <rect id="Rectangle_188" data-name="Rectangle 188" width="6.871" height="0.609" transform="matrix(0.707, -0.707, 0.707, 0.707, 0, 4.858)" fill="#4f3cc9"/>
    </g>
    <g id="Group_410" data-name="Group 410" transform="translate(0 52.334)">
      <rect id="Rectangle_189" data-name="Rectangle 189" width="3.435" height="0.609" transform="translate(0 2.429) rotate(-45)" fill="#4f3cc9"/>
    </g>
  </g>
</svg>
