<svg xmlns="http://www.w3.org/2000/svg" xmlns:xlink="http://www.w3.org/1999/xlink" width="87.913" height="106.541" viewBox="0 0 87.913 106.541">
  <defs>
    <clipPath id="clip-path">
      <path id="Path_465" data-name="Path 465" d="M491.523,329.967l2.871-3.52,2.828,3.52,2.871-3.52,2.827,3.52,2.871-3.52,2.827,3.52,2.871-3.52,2.828,3.52,2.871-3.52,2.828,3.52,2.871-3.52,2.827,3.52,2.872-3.52,2.827,3.52,2.872-3.52,2.827,3.52,2.872-3.52,2.827,3.52,2.872-3.52,2.827,3.52,2.872-3.52,2.827,3.52,2.872-3.52,2.82,3.511V244.108H491.517v85.858Z" transform="translate(-491.517 -244.108)" fill="none"/>
    </clipPath>
  </defs>
  <g id="Group_473" data-name="Group 473" transform="translate(-488.079 -65.035)">
    <path id="Path_467" data-name="Path 467" d="M491.523,329.967l2.871-3.52,2.828,3.52,2.871-3.52,2.827,3.52,2.871-3.52,2.827,3.52,2.871-3.52,2.828,3.52,2.871-3.52,2.828,3.52,2.871-3.52,2.827,3.52,2.872-3.52,2.827,3.52,2.872-3.52,2.827,3.52,2.872-3.52,2.827,3.52,2.872-3.52,2.827,3.52,2.872-3.52,2.827,3.52,2.872-3.52,2.82,3.511V244.108H491.517v85.858Z" transform="translate(4.472 -162.025)" fill="rgba(120,120,120,0.34)"/>
    <path id="Path_468" data-name="Path 468" d="M491.523,329.967l2.692-3.52,2.651,3.52,2.692-3.52,2.651,3.52,2.692-3.52,2.65,3.52,2.692-3.52,2.651,3.52,2.692-3.52,2.651,3.52,2.692-3.52,2.65,3.52,2.692-3.52,2.65,3.52,2.692-3.52,2.65,3.52,2.692-3.52,2.65,3.52,2.692-3.52,2.65,3.52,2.692-3.52,2.65,3.52,2.692-3.52,2.643,3.511V244.108h-64.1v85.858Z" transform="translate(5.562 -167.39)" fill="rgba(120,120,120,0.34)"/>
    <path id="Path_448" data-name="Path 448" d="M491.523,329.967l2.871-3.52,2.828,3.52,2.871-3.52,2.827,3.52,2.871-3.52,2.827,3.52,2.871-3.52,2.828,3.52,2.871-3.52,2.828,3.52,2.871-3.52,2.827,3.52,2.872-3.52,2.827,3.52,2.872-3.52,2.827,3.52,2.872-3.52,2.827,3.52,2.872-3.52,2.827,3.52,2.872-3.52,2.827,3.52,2.872-3.52,2.82,3.511V244.108H491.517v85.858Z" transform="translate(0 -168.583)" fill="#f7f7f7"/>
    <g id="Group_466" data-name="Group 466" transform="translate(498.405 86.165)">
      <path id="Path_449" data-name="Path 449" d="M633.038,706.206H610.31a1.218,1.218,0,0,1-1.218-1.218h0a1.218,1.218,0,0,1,1.218-1.218h22.728a1.218,1.218,0,0,1,1.218,1.218h0A1.218,1.218,0,0,1,633.038,706.206Z" transform="translate(-609.092 -687.482)" fill="#c4c4c4"/>
      <path id="Path_450" data-name="Path 450" d="M1355.717,706.206h-8.537a1.218,1.218,0,0,1-1.218-1.218h0a1.218,1.218,0,0,1,1.218-1.218h8.537a1.218,1.218,0,0,1,1.218,1.218h0A1.218,1.218,0,0,1,1355.717,706.206Z" transform="translate(-1302.795 -687.482)" fill="#c4c4c4"/>
      <path id="Path_451" data-name="Path 451" d="M1355.717,798.082h-8.537a1.218,1.218,0,0,1-1.218-1.218h0a1.218,1.218,0,0,1,1.218-1.218h8.537a1.218,1.218,0,0,1,1.218,1.218h0A1.218,1.218,0,0,1,1355.717,798.082Z" transform="translate(-1302.795 -773.976)" fill="#c4c4c4"/>
      <path id="Path_452" data-name="Path 452" d="M1355.717,889.956h-8.537a1.218,1.218,0,0,1-1.218-1.218h0a1.218,1.218,0,0,1,1.218-1.218h8.537a1.218,1.218,0,0,1,1.218,1.218h0A1.218,1.218,0,0,1,1355.717,889.956Z" transform="translate(-1302.795 -860.468)" fill="#c4c4c4"/>
      <path id="Path_453" data-name="Path 453" d="M1355.717,1073.706h-8.537a1.218,1.218,0,0,1-1.218-1.218h0a1.218,1.218,0,0,1,1.218-1.218h8.537a1.218,1.218,0,0,1,1.218,1.218h0A1.218,1.218,0,0,1,1355.717,1073.706Z" transform="translate(-1302.795 -1033.453)" fill="#c4c4c4"/>
      <path id="Path_454" data-name="Path 454" d="M1355.717,1165.58h-8.537a1.218,1.218,0,0,1-1.218-1.218h0a1.218,1.218,0,0,1,1.218-1.218h8.537a1.218,1.218,0,0,1,1.218,1.218h0A1.218,1.218,0,0,1,1355.717,1165.58Z" transform="translate(-1302.795 -1119.945)" fill="#c4c4c4"/>
      <path id="Path_455" data-name="Path 455" d="M624.232,798.082H610.31a1.218,1.218,0,0,1-1.218-1.218h0a1.218,1.218,0,0,1,1.218-1.218h13.923a1.218,1.218,0,0,1,1.218,1.218h0A1.218,1.218,0,0,1,624.232,798.082Z" transform="translate(-609.092 -773.976)" fill="#c4c4c4"/>
      <path id="Path_456" data-name="Path 456" d="M627.583,889.956H610.31a1.218,1.218,0,0,1-1.218-1.218h0a1.218,1.218,0,0,1,1.218-1.218h17.274a1.218,1.218,0,0,1,1.218,1.218h0A1.218,1.218,0,0,1,627.583,889.956Z" transform="translate(-609.092 -860.468)" fill="#c4c4c4"/>
      <path id="Path_457" data-name="Path 457" d="M629.31,1073.706h-19a1.218,1.218,0,0,1-1.218-1.218h0a1.218,1.218,0,0,1,1.218-1.218h19a1.218,1.218,0,0,1,1.218,1.218h0A1.218,1.218,0,0,1,629.31,1073.706Z" transform="translate(-609.092 -1033.453)" fill="#c4c4c4"/>
      <path id="Path_458" data-name="Path 458" d="M631.544,1165.58H610.31a1.218,1.218,0,0,1-1.218-1.218h0a1.218,1.218,0,0,1,1.218-1.218h21.234a1.218,1.218,0,0,1,1.218,1.218h0A1.218,1.218,0,0,1,631.544,1165.58Z" transform="translate(-609.092 -1119.945)" fill="#c4c4c4"/>
      <path id="Path_459" data-name="Path 459" d="M1355.717,428.155h-8.537a1.218,1.218,0,0,1-1.218-1.218h0a1.218,1.218,0,0,1,1.218-1.218h8.537a1.218,1.218,0,0,1,1.218,1.218h0A1.218,1.218,0,0,1,1355.717,428.155Z" transform="translate(-1302.795 -425.72)" fill="#c4c4c4"/>
      <path id="Path_460" data-name="Path 460" d="M1355.717,520.029h-8.537a1.218,1.218,0,0,1-1.218-1.218h0a1.218,1.218,0,0,1,1.218-1.218h8.537a1.218,1.218,0,0,1,1.218,1.218h0A1.218,1.218,0,0,1,1355.717,520.029Z" transform="translate(-1302.795 -512.212)" fill="#c4c4c4"/>
      <path id="Path_461" data-name="Path 461" d="M629.31,428.155h-19a1.218,1.218,0,0,1-1.218-1.218h0a1.218,1.218,0,0,1,1.218-1.218h19a1.218,1.218,0,0,1,1.218,1.218h0A1.218,1.218,0,0,1,629.31,428.155Z" transform="translate(-609.092 -425.72)" fill="#c4c4c4"/>
      <path id="Path_462" data-name="Path 462" d="M631.544,520.029H610.31a1.218,1.218,0,0,1-1.218-1.218h0a1.218,1.218,0,0,1,1.218-1.218h21.234a1.218,1.218,0,0,1,1.218,1.218h0A1.218,1.218,0,0,1,631.544,520.029Z" transform="translate(-609.092 -512.212)" fill="#c4c4c4"/>
    </g>
    <rect id="Rectangle_199" data-name="Rectangle 199" width="31.777" height="10.02" rx="5.01" transform="translate(498.405 138.727)" fill="#e8e8e8"/>
    <g id="Group_468" data-name="Group 468" transform="translate(543.273 136.501)">
      <g id="Group_467" data-name="Group 467" transform="translate(0 0)">
        <path id="Path_463" data-name="Path 463" d="M1379.279,1296.411v1.431h-1.43v-1.431h-2.861v-2.146h2.861v-1.788q-2.862,0-2.861-3,0-3.076,2.861-3.076v-1.431h1.43v1.431h2.861v2.146h-2.861v1.789q2.861,0,2.861,3.076Q1382.14,1296.411,1379.279,1296.411Zm-2.146-6.939q0,.859.715.859v-1.789Q1377.133,1288.543,1377.133,1289.473Zm2.146,3v1.788q.715,0,.715-.858Q1379.994,1292.477,1379.279,1292.477Z" transform="translate(-1374.987 -1284.966)" fill="#f55b62"/>
      </g>
    </g>
    <g id="Group_471" data-name="Group 471" transform="translate(491.517 75.526)">
      <g id="Group_470" data-name="Group 470">
        <g id="Group_469" data-name="Group 469" clip-path="url(#clip-path)">
          <path id="Path_464" data-name="Path 464" d="M1158.993,131.627a25.878,25.878,0,1,1,25.878-25.878A25.907,25.907,0,0,1,1158.993,131.627Z" transform="translate(-1095.529 -89.492)" fill="#595959" opacity="0.13" style="mix-blend-mode: multiply;isolation: isolate"/>
        </g>
      </g>
    </g>
    <g id="Group_472" data-name="Group 472" transform="translate(529.214 65.035)">
      <circle id="Ellipse_21" data-name="Ellipse 21" cx="23.389" cy="23.389" r="23.389" fill="#9ed13f"/>
      <path id="Path_466" data-name="Path 466" d="M1298.4,312.5l-7.083-6.64a3.6,3.6,0,0,1,0-5.258h0a3.6,3.6,0,0,1,4.929,0l3.827,3.587a1.158,1.158,0,0,0,1.583,0l10.98-10.293a3.6,3.6,0,0,1,4.929,0h0a3.6,3.6,0,0,1,0,5.258L1303.331,312.5A3.6,3.6,0,0,1,1298.4,312.5Z" transform="translate(-1281.09 -279.572)" fill="#fff"/>
    </g>
  </g>
</svg>
