<svg id="print_1_" data-name="print (1)" xmlns="http://www.w3.org/2000/svg" width="17.456" height="16.224" viewBox="0 0 17.456 16.224">
  <g id="Group_161" data-name="Group 161">
    <g id="Group_160" data-name="Group 160">
      <path id="Path_200" data-name="Path 200" d="M16.1,22.014H14.247V18.647a.582.582,0,0,0-.582-.582H3.791a.582.582,0,0,0-.582.582v3.368H1.358A1.359,1.359,0,0,0,0,23.372v5.854a1.359,1.359,0,0,0,1.358,1.358H3.209v3.123a.582.582,0,0,0,.582.582h9.874a.582.582,0,0,0,.582-.582V30.584H16.1a1.359,1.359,0,0,0,1.358-1.358V23.372A1.359,1.359,0,0,0,16.1,22.014ZM4.373,19.229h8.71v2.786H4.373Zm8.71,13.9H4.373v-4.76h8.71C13.083,28.509,13.083,33.016,13.083,33.125Zm3.209-3.9a.194.194,0,0,1-.194.194H14.247V27.783a.582.582,0,0,0-.582-.582H3.791a.582.582,0,0,0-.582.582V29.42H1.358a.194.194,0,0,1-.194-.194V23.372a.194.194,0,0,1,.194-.194H16.1a.194.194,0,0,1,.194.194v5.854Z" transform="translate(0 -18.065)" fill="#bad8f5"/>
    </g>
  </g>
  <g id="Group_163" data-name="Group 163" transform="translate(11.602 6.202)">
    <g id="Group_162" data-name="Group 162">
      <path id="Path_201" data-name="Path 201" d="M342.361,199.988H340.88a.582.582,0,0,0,0,1.164h1.481a.582.582,0,0,0,0-1.164Z" transform="translate(-340.298 -199.988)" fill="#bad8f5"/>
    </g>
  </g>
  <g id="Group_165" data-name="Group 165" transform="translate(5.625 13.016)">
    <g id="Group_164" data-name="Group 164">
      <path id="Path_202" data-name="Path 202" d="M170.6,399.834h-5.043a.582.582,0,1,0,0,1.164H170.6a.582.582,0,1,0,0-1.164Z" transform="translate(-164.977 -399.834)" fill="#bad8f5"/>
    </g>
  </g>
  <g id="Group_167" data-name="Group 167" transform="translate(5.625 11.181)">
    <g id="Group_166" data-name="Group 166">
      <path id="Path_203" data-name="Path 203" d="M170.6,346.006h-5.043a.582.582,0,1,0,0,1.164H170.6a.582.582,0,1,0,0-1.164Z" transform="translate(-164.977 -346.006)" fill="#bad8f5"/>
    </g>
  </g>
</svg>
