<svg xmlns="http://www.w3.org/2000/svg" width="40.955" height="20.482" viewBox="0 0 40.955 20.482">
  <g id="reserved" transform="translate(0 -127.971)">
    <g id="Group_67" data-name="Group 67" transform="translate(0 127.971)">
      <g id="Group_66" data-name="Group 66" transform="translate(0 0)">
        <path id="Path_120" data-name="Path 120" d="M40.865,142.1l-6.826-13.651a.844.844,0,0,0-.93-.456L7.518,133.108l-.058.014a.845.845,0,0,0-.435.278l0,0c-.026.032-.051.068-.075.1v0a0,0,0,0,0,0,0c-.012.02-.024.041-.034.063L.09,147.215a.854.854,0,1,0,1.527.763L7.68,135.854l6.061,12.126a.849.849,0,0,0,.93.456l25.6-5.119a.853.853,0,0,0,.6-1.218Zm-25.888,4.534L8.943,134.564,32.8,129.791l6.034,12.068Z" transform="translate(0 -127.971)" fill="#bad8f5"/>
      </g>
    </g>
    <g id="Group_69" data-name="Group 69" transform="translate(13.652 133.093)">
      <g id="Group_68" data-name="Group 68" transform="translate(0 0)">
        <path id="Path_121" data-name="Path 121" d="M189.434,192.686a.862.862,0,0,0-1-.671l-17.064,3.413a.853.853,0,0,0,.164,1.689.944.944,0,0,0,.169-.015l17.064-3.413A.85.85,0,0,0,189.434,192.686Z" transform="translate(-170.678 -191.999)" fill="#bad8f5"/>
      </g>
    </g>
    <g id="Group_71" data-name="Group 71" transform="translate(15.359 138.212)">
      <g id="Group_70" data-name="Group 70" transform="translate(0 0)">
        <path id="Path_122" data-name="Path 122" d="M202.235,256.686a.861.861,0,0,0-1-.671l-8.532,1.706a.853.853,0,0,0,.164,1.689.944.944,0,0,0,.169-.015l8.532-1.706A.851.851,0,0,0,202.235,256.686Z" transform="translate(-192.011 -255.999)" fill="#bad8f5"/>
      </g>
    </g>
    <g id="Group_73" data-name="Group 73" transform="translate(0.001 144.262)">
      <g id="Group_72" data-name="Group 72" transform="translate(0 0)">
        <path id="Path_123" data-name="Path 123" d="M14.112,332.323a.859.859,0,0,0-1-.671L.7,334.134a.853.853,0,0,0,.164,1.689.814.814,0,0,0,.169-.017l12.409-2.479A.851.851,0,0,0,14.112,332.323Z" transform="translate(-0.011 -331.634)" fill="#bad8f5"/>
      </g>
    </g>
  </g>
</svg>
