<svg xmlns="http://www.w3.org/2000/svg" width="50" height="50" viewBox="0 0 50 50">
  <g id="Group_227" data-name="Group 227" transform="translate(-810 -354)">
    <circle id="Ellipse_13" data-name="Ellipse 13" cx="25" cy="25" r="25" transform="translate(810 354)" fill="#c4d9b2"/>
    <g id="surface1" transform="translate(823 367)">
      <path id="Path_8" data-name="Path 8" d="M22.776,1.693H19.765q.016-.5.017-1.006A.687.687,0,0,0,19.094,0H4.369a.687.687,0,0,0-.687.687q0,.506.017,1.006H.687A.687.687,0,0,0,0,2.381a14.9,14.9,0,0,0,2.267,8.182A7.172,7.172,0,0,0,7.715,14.1,7.058,7.058,0,0,0,9.2,15.352v3.055H8.05a2.531,2.531,0,0,0-2.528,2.528v1.153H5.473a.687.687,0,0,0,0,1.375H17.99a.687.687,0,0,0,0-1.375h-.049V20.935a2.531,2.531,0,0,0-2.528-2.528H14.26V15.352a7.054,7.054,0,0,0,1.489-1.25A7.173,7.173,0,0,0,21.2,10.563a14.9,14.9,0,0,0,2.266-8.182A.687.687,0,0,0,22.776,1.693ZM3.411,9.8A13.248,13.248,0,0,1,1.389,3.068H3.775a22.97,22.97,0,0,0,2.135,8.339q.275.55.574,1.039A6.629,6.629,0,0,1,3.411,9.8ZM16.566,20.935v1.153H6.9V20.935A1.155,1.155,0,0,1,8.05,19.782h7.363A1.155,1.155,0,0,1,16.566,20.935Zm-3.681-2.528H10.578V15.949a4.472,4.472,0,0,0,2.307,0Zm.426-4.093a.669.669,0,0,0-.089.045,3.21,3.21,0,0,1-2.979,0,.684.684,0,0,0-.09-.046A5.533,5.533,0,0,1,8.6,13.032a.7.7,0,0,0-.088-.1A10.836,10.836,0,0,1,7.14,10.792,22.691,22.691,0,0,1,5.064,1.375H18.4a22.7,22.7,0,0,1-2.076,9.418,10.844,10.844,0,0,1-1.371,2.138.678.678,0,0,0-.088.1A5.535,5.535,0,0,1,13.311,14.314ZM20.052,9.8a6.63,6.63,0,0,1-3.073,2.645q.3-.489.574-1.039a22.974,22.974,0,0,0,2.135-8.339h2.386A13.248,13.248,0,0,1,20.052,9.8Zm0,0"/>
    </g>
  </g>
</svg>
