<svg xmlns="http://www.w3.org/2000/svg" width="49" height="49" viewBox="0 0 49 49">
  <g id="Group_254" data-name="Group 254" transform="translate(-652 -357)">
    <circle id="Ellipse_12" data-name="Ellipse 12" cx="24.5" cy="24.5" r="24.5" transform="translate(652 357)" fill="#ffe4e9"/>
    <g id="Group_223" data-name="Group 223" transform="translate(59 1.874)">
      <g id="Group_220" data-name="Group 220" transform="translate(604 378.96)">
        <g id="Group_219" data-name="Group 219" transform="translate(0)">
          <path id="Path_6" data-name="Path 6" d="M26.978,236.864a2.447,2.447,0,0,0-3.369.2l-2.4,2.574a2.452,2.452,0,0,0-2.338-1.722H14.594c-.325,0-.433-.124-1-.559a5.723,5.723,0,0,0-7.525.018L4.5,238.764a2.437,2.437,0,0,0-2.244-.028l-1.8.9a.817.817,0,0,0-.365,1.095l4.9,9.79a.817.817,0,0,0,1.095.365l1.8-.9a2.446,2.446,0,0,0,1.352-2.275h9.641a5.738,5.738,0,0,0,4.569-2.284l3.917-5.223A2.441,2.441,0,0,0,26.978,236.864ZM7.15,248.525l-1.074.537L1.91,240.732l1.075-.537a.815.815,0,0,1,1.094.365l3.436,6.872A.816.816,0,0,1,7.15,248.525Zm18.9-9.3-3.917,5.223a4.1,4.1,0,0,1-3.263,1.632H8.663l-3.057-6.115L7.15,238.6a4.089,4.089,0,0,1,5.39,0,2.888,2.888,0,0,0,2.054.947h4.279a.816.816,0,1,1,0,1.632H14.707a.816.816,0,0,0,0,1.632H19.42a2.454,2.454,0,0,0,1.791-.779l3.592-3.856a.816.816,0,0,1,1.25,1.044Z" transform="translate(0 -235.959)" fill="#f2055c"/>
        </g>
      </g>
      <g id="Group_222" data-name="Group 222" transform="translate(613.845 366.126)">
        <g id="Group_221" data-name="Group 221" transform="translate(0 0)">
          <path id="Path_7" data-name="Path 7" d="M188.3,5.58a3.25,3.25,0,0,0,.9-2.25A3.308,3.308,0,0,0,185.943.013a3.362,3.362,0,0,0-3.318,3.318,3.2,3.2,0,0,0,.933,2.256,4.977,4.977,0,0,0-2.564,4.325v.816a.816.816,0,0,0,.816.816h8.213a.816.816,0,0,0,.816-.816V9.912A4.973,4.973,0,0,0,188.3,5.58Zm-2.36-3.936a1.682,1.682,0,0,1,1.632,1.686,1.634,1.634,0,0,1-1.632,1.632,1.682,1.682,0,0,1-1.686-1.632A1.731,1.731,0,0,1,185.943,1.645Zm-3.318,8.267a3.362,3.362,0,0,1,3.318-3.318,3.3,3.3,0,0,1,3.263,3.318Z" transform="translate(-180.994 -0.013)" fill="#f2055c"/>
        </g>
      </g>
    </g>
  </g>
</svg>
