<svg xmlns="http://www.w3.org/2000/svg" width="49" height="49" viewBox="0 0 49 49">
  <g id="Group_224" data-name="Group 224" transform="translate(-425 -354)">
    <circle id="Ellipse_11" data-name="Ellipse 11" cx="24.5" cy="24.5" r="24.5" transform="translate(425 354)" fill="#fff4e9"/>
    <g id="pay" transform="translate(436 364.977)">
      <g id="Group_212" data-name="Group 212" transform="translate(8.34 20.981)">
        <g id="Group_211" data-name="Group 211">
          <path id="Path_2" data-name="Path 2" d="M153.831,384.3a.57.57,0,0,0-.031-.1.554.554,0,0,0-.05-.094.53.53,0,0,0-.151-.151.539.539,0,0,0-.094-.05.512.512,0,0,0-.1-.031.538.538,0,0,0-.213,0,.528.528,0,0,0-.1.031.554.554,0,0,0-.094.05.546.546,0,0,0-.2.245.529.529,0,0,0-.031.1.524.524,0,0,0,0,.213.512.512,0,0,0,.031.1.5.5,0,0,0,.05.094.53.53,0,0,0,.151.151.55.55,0,0,0,.094.05.53.53,0,0,0,.1.031.524.524,0,0,0,.213,0,.514.514,0,0,0,.1-.031.537.537,0,0,0,.094-.05.53.53,0,0,0,.151-.151.539.539,0,0,0,.05-.094.551.551,0,0,0,.031-.1.524.524,0,0,0,0-.213Z" transform="translate(-152.75 -383.857)" fill="#e27f1e"/>
        </g>
      </g>
      <g id="Group_214" data-name="Group 214" transform="translate(0 16.944)">
        <g id="Group_213" data-name="Group 213">
          <path id="Path_3" data-name="Path 3" d="M25.117,314.566l-.007-.016a2.271,2.271,0,0,0-3.076-1.134l-3.8,1.052a2.494,2.494,0,0,0-1.544-1.521l-.014-.005-4.181-1.419a4.313,4.313,0,0,0-3.479-1.6,4.366,4.366,0,0,0-3.41,2.045H.546a.546.546,0,0,0-.546.546V319.4a.546.546,0,0,0,.546.546H3.793a.546.546,0,0,0,.546-.546v-.471H5.861a.546.546,0,0,0,.546-.546v-.157a3.872,3.872,0,0,1,1.995.716,33.037,33.037,0,0,0,3.28,1.675l.024.01a4.9,4.9,0,0,0,1.757.331,4.352,4.352,0,0,0,1.809-.387l8.408-3.011.044-.018A2.331,2.331,0,0,0,25.117,314.566Zm-21.87,4.285H1.092v-5.792H3.246Zm2.068-1.017H4.339v-4.775h.976Zm17.973-1.3-8.4,3.009-.025.009-.022.009a3.539,3.539,0,0,1-2.719.046,31.632,31.632,0,0,1-3.17-1.619,4.915,4.915,0,0,0-2.54-.864v-4.4a3.372,3.372,0,0,1,2.6-1.717,3.151,3.151,0,0,1,2.673,1.256.546.546,0,0,0,.29.231l4.34,1.473a1.225,1.225,0,0,1,.891,1.446,1.064,1.064,0,0,1-1.307.734L11,314.6a.546.546,0,1,0-.33,1.041l4.9,1.553.016,0a2.144,2.144,0,0,0,1.639-.19,2.142,2.142,0,0,0,1.024-1.294q.019-.066.033-.133l4.1-1.136c.592-.2,1.369-.275,1.715.522C24.461,315.907,23.53,316.422,23.288,316.537Z" transform="translate(0 -309.922)" fill="#e27f1e"/>
        </g>
      </g>
      <g id="Group_216" data-name="Group 216" transform="translate(18.524 6.765)">
        <g id="Group_215" data-name="Group 215">
          <path id="Path_4" data-name="Path 4" d="M340.332,123.937a.528.528,0,0,0-.032-.1.517.517,0,0,0-.05-.094.53.53,0,0,0-.151-.151.554.554,0,0,0-.094-.05.544.544,0,0,0-.316-.031.513.513,0,0,0-.1.031.539.539,0,0,0-.094.05.53.53,0,0,0-.151.151.553.553,0,0,0-.05.094.528.528,0,0,0-.031.1.524.524,0,0,0,0,.213.512.512,0,0,0,.031.1.538.538,0,0,0,.05.094.53.53,0,0,0,.151.151.539.539,0,0,0,.094.05.552.552,0,0,0,.1.031.538.538,0,0,0,.106.011.548.548,0,0,0,.107-.011.579.579,0,0,0,.1-.031.554.554,0,0,0,.094-.05.53.53,0,0,0,.151-.151.5.5,0,0,0,.05-.094.512.512,0,0,0,.032-.1.552.552,0,0,0,0-.213Z" transform="translate(-339.25 -123.498)" fill="#e27f1e"/>
        </g>
      </g>
      <g id="Group_218" data-name="Group 218" transform="translate(1.621 0.023)">
        <g id="Group_217" data-name="Group 217" transform="translate(0 0)">
          <path id="Path_5" data-name="Path 5" d="M55.48,1.873H52.233a.546.546,0,0,0-.546.546V2.89H50.165a.546.546,0,0,0-.546.546v.157a3.871,3.871,0,0,1-1.994-.716A33.04,33.04,0,0,0,44.344,1.2l-.024-.01a4.645,4.645,0,0,0-3.565.056l-2.2.787L36.705.183a.546.546,0,0,0-.772,0l-6.08,6.08a.542.542,0,0,0,0,.772l10.39,10.39a.59.59,0,0,0,.772,0l5.551-5.551c.144.012.294.019.449.019a4.366,4.366,0,0,0,3.41-2.045H55.48a.546.546,0,0,0,.546-.546V2.419A.546.546,0,0,0,55.48,1.873ZM36.319,1.341l1.244,1.244a2.381,2.381,0,0,1-2.489,0ZM32.256,7.894,31.011,6.65l1.244-1.244a2.381,2.381,0,0,1,0,2.489Zm8.373,8.373-1.244-1.244a2.377,2.377,0,0,1,2.488,0Zm2.031-2.031a3.47,3.47,0,0,0-4.062,0L33.042,8.681a3.47,3.47,0,0,0,0-4.062l1.246-1.246a3.47,3.47,0,0,0,4.062,0l1.181,1.181a2.164,2.164,0,0,0-1.625,1.19A3.112,3.112,0,1,0,41.485,9.6l1.844.626a3.486,3.486,0,0,0,.578,2.767ZM39.34,8.869l.014.005,1.092.371A2.02,2.02,0,1,1,37.7,6.936,2.417,2.417,0,0,0,39.34,8.869ZM44.694,12.2a2.388,2.388,0,0,1-.349-1.136,4.246,4.246,0,0,0,.963.521Zm4.925-3.118a3.372,3.372,0,0,1-2.6,1.717,3.974,3.974,0,0,1-.57-.04h0a3.127,3.127,0,0,1-2.023-1.107c-.011-.016-.059-.078-.066-.089a.544.544,0,0,0-.3-.25L39.713,7.842A1.225,1.225,0,0,1,38.822,6.4h0a1.064,1.064,0,0,1,1.307-.732l4.892,1.55a.546.546,0,1,0,.33-1.041L41.461,4.938,41.427,4.9h0L39.411,2.889l1.731-.62.019-.007.006,0,.022-.01A3.539,3.539,0,0,1,43.908,2.2a31.629,31.629,0,0,1,3.17,1.619,4.914,4.914,0,0,0,2.54.864Zm2.069-.328h-.976V3.982h.976Zm3.246,0H52.779V2.965h2.154Z" transform="translate(-29.691 -0.023)" fill="#e27f1e"/>
        </g>
      </g>
    </g>
  </g>
</svg>
