<svg xmlns="http://www.w3.org/2000/svg" width="50" height="50" viewBox="0 0 50 50">
  <g id="Group_225" data-name="Group 225" transform="translate(-249 -354)">
    <circle id="Ellipse_10" data-name="Ellipse 10" cx="25" cy="25" r="25" transform="translate(249 354)" fill="#dfefef"/>
    <path id="target" d="M24.091,6.218l1.261-1.261a.762.762,0,0,0-.475-1.3l-2.339-.2-.2-2.339a.762.762,0,0,0-1.3-.475L19.782,1.909A13,13,0,0,0,3.807,22.194,13,13,0,0,0,24.091,6.218ZM21.074,4.231a.762.762,0,0,0,.7.7l1.346.113L21.293,6.862l-1.987-.168-.168-1.987,1.822-1.822ZM15.589,13a2.592,2.592,0,1,1-1.379-2.288l-1.75,1.75a.762.762,0,1,0,1.077,1.077l1.75-1.75a2.572,2.572,0,0,1,.3,1.211Zm-.272-3.4A4.118,4.118,0,1,0,16.4,10.683L18.57,8.508A7.169,7.169,0,1,1,17.493,7.43Zm5.8,11.511A11.477,11.477,0,1,1,4.884,4.886,11.482,11.482,0,0,1,18.67,3.021l-.859.859a.762.762,0,0,0-.223.519c0,.028,0,.056,0,.084l.1,1.215A8.691,8.691,0,1,0,20.3,8.307l1.215.1.064,0h.041l.049,0,.03,0,.048-.009.03-.008.046-.014.029-.011.044-.019.028-.013.043-.024L22,8.289l.044-.032.02-.015a.755.755,0,0,0,.06-.053l.859-.859a11.482,11.482,0,0,1-1.865,13.786Zm0,0" transform="translate(261.001 365.999)" fill="#286868"/>
  </g>
</svg>
