<svg xmlns="http://www.w3.org/2000/svg" width="46.789" height="46.643" viewBox="0 0 46.789 46.643">
  <g id="DİS" transform="translate(0.6 0.673)">
    <g id="Group_53" data-name="Group 53" transform="translate(0 16.12)">
      <path id="Path_101" data-name="Path 101" d="M36.287,201.809,22.618,215.487a.572.572,0,0,1-.8,0L7.364,201.044a.572.572,0,0,1,0-.8l13.678-13.678a.572.572,0,0,1,.8,0L36.3,201.016A.553.553,0,0,1,36.287,201.809Z" transform="translate(-7.2 -186.4)" fill="none" stroke="#bad8f5" stroke-miterlimit="10" stroke-width="1.2"/>
      <path id="Path_102" data-name="Path 102" d="M34.193,206.213l-7.181,7.171-1.558-1.558a.166.166,0,0,1,0-.246l6.925-6.925a.166.166,0,0,1,.246,0Z" transform="translate(-23.742 -202.942)" fill="none" stroke="#bad8f5" stroke-miterlimit="10" stroke-width="1.2"/>
      <path id="Path_103" data-name="Path 103" d="M219.181,391.2,212,398.371l1.567,1.567a.166.166,0,0,0,.246,0l6.925-6.925a.166.166,0,0,0,0-.246Z" transform="translate(-193.338 -372.538)" fill="none" stroke="#bad8f5" stroke-miterlimit="10" stroke-width="1.2"/>
      <path id="Path_104" data-name="Path 104" d="M39.893,394.171,32.722,387l-1.567,1.567a.166.166,0,0,0,0,.246l6.925,6.925a.166.166,0,0,0,.246,0Z" transform="translate(-28.922 -368.721)" fill="none" stroke="#bad8f5" stroke-miterlimit="10" stroke-width="1.2"/>
      <g id="Group_52" data-name="Group 52" transform="translate(10.087 9.91)">
        <g id="Group_51" data-name="Group 51">
          <path id="Path_105" data-name="Path 105" d="M124.971,304.385a.223.223,0,0,0-.055-.255l-1.813-1.8,4.137-4.137a.231.231,0,0,0,0-.328l-2.643-2.643a.231.231,0,0,0-.328,0l-4.137,4.137-1.822-1.822a.238.238,0,0,0-.255-.055.228.228,0,0,0-.146.219L117.9,304.3a.25.25,0,0,0,.237.237h6.616A.261.261,0,0,0,124.971,304.385Z" transform="translate(-117.9 -295.15)" fill="none" stroke="#bad8f5" stroke-miterlimit="10" stroke-width="1.2"/>
        </g>
      </g>
    </g>
    <g id="Group_56" data-name="Group 56" transform="translate(16.257)">
      <path id="Path_106" data-name="Path 106" d="M201.018,38.587,214.7,24.909a.572.572,0,0,0,0-.8L200.244,9.664a.572.572,0,0,0-.8,0L185.764,23.342a.572.572,0,0,0,0,.8L200.216,38.6A.564.564,0,0,0,201.018,38.587Z" transform="translate(-185.6 -9.5)" fill="none" stroke="#bad8f5" stroke-miterlimit="10" stroke-width="1.2"/>
      <path id="Path_107" data-name="Path 107" d="M205.322,36.493l7.171-7.171-1.567-1.567a.166.166,0,0,0-.246,0l-6.925,6.925a.166.166,0,0,0,0,.246Z" transform="translate(-202.051 -26.042)" fill="none" stroke="#bad8f5" stroke-miterlimit="10" stroke-width="1.2"/>
      <path id="Path_108" data-name="Path 108" d="M390.4,221.571l7.171-7.171,1.567,1.567a.166.166,0,0,1,0,.246l-6.925,6.925a.166.166,0,0,1-.246,0Z" transform="translate(-371.738 -195.729)" fill="none" stroke="#bad8f5" stroke-miterlimit="10" stroke-width="1.2"/>
      <path id="Path_109" data-name="Path 109" d="M393.371,42.193,386.2,35.022l1.567-1.567a.166.166,0,0,1,.246,0l6.925,6.925a.166.166,0,0,1,0,.246Z" transform="translate(-367.921 -31.222)" fill="none" stroke="#bad8f5" stroke-miterlimit="10" stroke-width="1.2"/>
      <g id="Group_55" data-name="Group 55" transform="translate(10.056 10.333)">
        <g id="Group_54" data-name="Group 54">
          <path id="Path_110" data-name="Path 110" d="M305.195,129.971a.223.223,0,0,1-.255-.055l-1.813-1.813-4.137,4.137a.231.231,0,0,1-.328,0l-2.643-2.643a.231.231,0,0,1,0-.328l4.137-4.137-1.822-1.822a.238.238,0,0,1-.055-.255.228.228,0,0,1,.219-.146l6.606-.009a.25.25,0,0,1,.237.237v6.616A.237.237,0,0,1,305.195,129.971Z" transform="translate(-295.95 -122.9)" fill="none" stroke="#bad8f5" stroke-miterlimit="10" stroke-width="1.2"/>
        </g>
      </g>
    </g>
  </g>
</svg>
