<svg xmlns="http://www.w3.org/2000/svg" xmlns:xlink="http://www.w3.org/1999/xlink" width="88.844" height="86.599" viewBox="0 0 88.844 86.599">
  <defs>
    <linearGradient id="linear-gradient" x1="0.5" y1="1" x2="0.5" gradientUnits="objectBoundingBox">
      <stop offset="0" stop-color="#e2001a"/>
      <stop offset="0.594" stop-color="#f29400"/>
      <stop offset="0.999" stop-color="#dfdb00"/>
    </linearGradient>
  </defs>
  <g id="Illustrasyon" transform="translate(-163.663 -97.319)">
    <g id="Illustrasyon-2" data-name="Illustrasyon" transform="translate(163.663 97.319)">
      <g id="Group_93" data-name="Group 93" transform="translate(37.95 12.32)">
        <path id="Path_138" data-name="Path 138" d="M304.211,231.926a1.656,1.656,0,0,1-1.313.664,1.626,1.626,0,0,1-1.274-.6l-4.784-6.543,12.085-.094Z" transform="translate(-293.639 -219.611)" fill="#d9dadb" opacity="0.5"/>
        <g id="Group_92" data-name="Group 92">
          <g id="Group_91" data-name="Group 91" transform="translate(1.559)">
            <line id="Line_2" data-name="Line 2" x1="8.517" y1="12.745" fill="none" stroke="#a48a77" stroke-miterlimit="10" stroke-width="2.313"/>
            <g id="Group_89" data-name="Group 89" transform="translate(4.712 7.8)">
              <path id="Path_139" data-name="Path 139" d="M318.986,241.715a1.548,1.548,0,1,0,1.548-1.548A1.548,1.548,0,0,0,318.986,241.715Z" transform="translate(-318.986 -240.167)" fill="#447c42"/>
              <path id="Path_140" data-name="Path 140" d="M333.568,246.671a.432.432,0,1,0,.432-.432A.432.432,0,0,0,333.568,246.671Z" transform="translate(-331.547 -245.397)" fill="#345e32"/>
            </g>
            <g id="Group_90" data-name="Group 90" transform="translate(2.716 5.082)">
              <path id="Path_141" data-name="Path 141" d="M304.59,222.107a1.548,1.548,0,1,0,1.548-1.548A1.549,1.549,0,0,0,304.59,222.107Z" transform="translate(-304.59 -220.559)" fill="#447c42"/>
              <path id="Path_142" data-name="Path 142" d="M306.389,227.124a.432.432,0,1,0,.432-.432A.432.432,0,0,0,306.389,227.124Z" transform="translate(-306.14 -225.842)" fill="#345e32"/>
            </g>
          </g>
          <path id="Path_143" data-name="Path 143" d="M282.954,226.332h-4.94v-.478c4.837,0,4.638-2.421,4.638-2.421v-7.606a1.5,1.5,0,0,0-.151-.964c-1.895-3.248-8.751-12.236-8.751-12.236h18.48s-6.856,8.987-8.751,12.236a1.5,1.5,0,0,0-.151.964v7.606s-.2,2.421,4.638,2.421v.478Z" transform="translate(-273.751 -200.032)" fill="#eceded" opacity="0.5"/>
        </g>
      </g>
      <g id="Group_99" data-name="Group 99" transform="translate(56.653 0)">
        <g id="Group_95" data-name="Group 95" transform="translate(15.28)">
          <path id="Path_144" data-name="Path 144" d="M524.75,106.748a5.861,5.861,0,1,1,5.861-5.861A5.868,5.868,0,0,1,524.75,106.748Z" transform="translate(-518.889 -95.026)" fill="#ffb506"/>
          <g id="Group_94" data-name="Group 94" transform="translate(0 0.043)">
            <path id="Path_145" data-name="Path 145" d="M562.629,143.255c-.119-.168-.172-.181-.185-.181a.016.016,0,0,0-.013.006.361.361,0,0,0-.037.2l.073,3.414a.469.469,0,0,0,.324.39.875.875,0,0,0,.265.038,2.963,2.963,0,0,0,1.349-.511c.217-.127.341-.266.362-.4a.285.285,0,0,0-.062-.224Z" transform="translate(-556.363 -136.456)" fill="#ffb506"/>
            <path id="Path_146" data-name="Path 146" d="M562.444,106.867c.014,0,.067-.013.184-.18l2.075-2.724a.287.287,0,0,0,.064-.227.65.65,0,0,0-.359-.4,2.969,2.969,0,0,0-1.352-.513.873.873,0,0,0-.265.038.471.471,0,0,0-.325.4l-.073,3.408a.363.363,0,0,0,.037.2A.016.016,0,0,0,562.444,106.867Z" transform="translate(-556.363 -101.784)" fill="#ffb506"/>
            <path id="Path_147" data-name="Path 147" d="M526.632,131.2l3.231-1.086c.084-.027.176-.079.176-.111,0,0,0-.055-.233-.118l-3.266-1.03a.282.282,0,0,0-.1-.018c-.191,0-.329.18-.391.508,0,.015-.3,1.154.1,1.683a.468.468,0,0,0,.373.183A.569.569,0,0,0,526.632,131.2Z" transform="translate(-524.961 -124.197)" fill="#ffb506"/>
            <path id="Path_148" data-name="Path 148" d="M545.457,143.156a.016.016,0,0,0-.012-.006c-.039,0-.114.078-.153.134l-2.011,2.76a.475.475,0,0,0,.022.506c.383.546,1.559.6,1.571.6a1.4,1.4,0,0,0,.166.011.5.5,0,0,0,.378-.124.29.29,0,0,0,.074-.2v-3.426C545.5,143.22,545.47,143.169,545.457,143.156Z" transform="translate(-539.845 -136.521)" fill="#ffb506"/>
            <path id="Path_149" data-name="Path 149" d="M529.8,113.445l3.249,1.088a.682.682,0,0,0,.215.054c.012,0,.039,0,.045-.013.015-.03-.029-.124-.078-.19l-1.978-2.784a.474.474,0,0,0-.487-.14c-.64.189-1.066,1.287-1.07,1.3a.654.654,0,0,0-.073.537A.286.286,0,0,0,529.8,113.445Z" transform="translate(-528.108 -109.207)" fill="#ffb506"/>
            <path id="Path_150" data-name="Path 150" d="M533.309,140.948c-.006-.012-.034-.013-.045-.013a.68.68,0,0,0-.213.053l-3.247,1.088a.288.288,0,0,0-.181.152.65.65,0,0,0,.072.533c.006.014.433,1.112,1.071,1.3a.473.473,0,0,0,.491-.144l1.974-2.779C533.28,141.073,533.324,140.978,533.309,140.948Z" transform="translate(-528.107 -134.613)" fill="#ffb506"/>
            <path id="Path_151" data-name="Path 151" d="M545.5,103.3a.294.294,0,0,0-.075-.207.5.5,0,0,0-.378-.124,1.375,1.375,0,0,0-.163.011c-.015,0-1.192.057-1.574.6a.477.477,0,0,0-.019.511l2.008,2.755c.038.055.113.135.154.135a.015.015,0,0,0,.012-.006c.013-.013.042-.064.035-.252Z" transform="translate(-539.85 -101.912)" fill="#ffb506"/>
            <path id="Path_152" data-name="Path 152" d="M566.211,114.573c.006.012.034.013.046.013a.677.677,0,0,0,.213-.053l3.247-1.088a.287.287,0,0,0,.181-.152.651.651,0,0,0-.072-.534c-.006-.014-.432-1.112-1.071-1.3a.473.473,0,0,0-.491.144l-1.974,2.779C566.239,114.449,566.2,114.544,566.211,114.573Z" transform="translate(-559.648 -109.207)" fill="#ffb506"/>
            <path id="Path_153" data-name="Path 153" d="M526.345,97.186a5.6,5.6,0,1,0,5.6,5.6A5.611,5.611,0,0,0,526.345,97.186Zm-4.351,3.26c.017-.044.445-1.146,1.124-1.347a.56.56,0,0,1,.578.168l1.981,2.788c.022.03.132.186.085.279a.122.122,0,0,1-.122.06.742.742,0,0,1-.243-.059l-3.244-1.087a.372.372,0,0,1-.23-.194A.715.715,0,0,1,521.993,100.446Zm-.389,3.371c-.431-.562-.129-1.705-.116-1.754.093-.5.337-.574.474-.574a.365.365,0,0,1,.13.023l3.26,1.028c.2.055.292.118.294.2,0,.114-.2.181-.235.194l-3.236,1.087a.646.646,0,0,1-.131.014A.554.554,0,0,1,521.6,103.817Zm1.671,2.666a.566.566,0,0,1-.158-.022c-.68-.2-1.108-1.3-1.126-1.35a.711.711,0,0,1-.07-.606.373.373,0,0,1,.234-.2l3.241-1.086a.734.734,0,0,1,.242-.058.122.122,0,0,1,.122.06c.047.093-.063.249-.085.28l-1.977,2.783A.565.565,0,0,1,523.275,106.483Zm2.941.757a.372.372,0,0,1-.1.264.573.573,0,0,1-.443.153,1.429,1.429,0,0,1-.173-.011c-.047,0-1.228-.058-1.634-.638a.562.562,0,0,1-.024-.6l2.014-2.764c.019-.028.124-.17.223-.17a.1.1,0,0,1,.074.032.452.452,0,0,1,.059.315Zm-.059-5.184a.1.1,0,0,1-.074.032c-.1,0-.2-.142-.223-.171l-2.01-2.759a.564.564,0,0,1,.021-.606c.407-.581,1.588-.636,1.638-.639a1.387,1.387,0,0,1,.169-.011.573.573,0,0,1,.443.153.374.374,0,0,1,.1.268v3.418A.45.45,0,0,1,526.157,102.055Zm3.3-2.979a.562.562,0,0,1,.157.022c.68.2,1.108,1.3,1.126,1.35a.712.712,0,0,1,.07.606.373.373,0,0,1-.234.2l-3.241,1.086a.739.739,0,0,1-.242.058.123.123,0,0,1-.122-.06c-.047-.093.063-.249.085-.28l1.977-2.783A.564.564,0,0,1,529.456,99.076Zm-3.026,2.729.073-3.413a.564.564,0,0,1,.384-.469.96.96,0,0,1,.291-.042,2.987,2.987,0,0,1,1.4.527.712.712,0,0,1,.4.462.373.373,0,0,1-.084.293l-2.072,2.719c-.1.146-.184.215-.253.215a.1.1,0,0,1-.074-.033A.421.421,0,0,1,526.429,101.806Zm2.544,4.883a.715.715,0,0,1-.4.464,2.983,2.983,0,0,1-1.4.525.96.96,0,0,1-.291-.042.562.562,0,0,1-.383-.464l-.074-3.419a.422.422,0,0,1,.061-.259.1.1,0,0,1,.074-.032c.07,0,.151.069.254.216l2.073,2.721A.372.372,0,0,1,528.974,106.689Zm1.764-1.575c-.016.044-.445,1.146-1.124,1.347a.559.559,0,0,1-.578-.168l-1.981-2.788c-.022-.03-.132-.186-.085-.279a.123.123,0,0,1,.122-.06.741.741,0,0,1,.243.059l3.244,1.087a.372.372,0,0,1,.23.194A.715.715,0,0,1,530.737,105.114Zm-.05-1a.653.653,0,0,1-.125-.012l-3.242-1.089c-.039-.012-.236-.08-.234-.194,0-.08.1-.143.3-.2l3.262-1.029h0a.362.362,0,0,1,.126-.022c.137,0,.381.075.475.578.012.045.314,1.188-.117,1.75A.553.553,0,0,1,530.687,104.119Z" transform="translate(-520.484 -96.929)" fill="#ffffcf"/>
            <path id="Path_154" data-name="Path 154" d="M571.121,129.97c-.062-.331-.2-.511-.391-.511a.281.281,0,0,0-.1.016l-3.268,1.031c-.23.063-.234.116-.234.118,0,.032.092.085.175.111l3.237,1.088a.585.585,0,0,0,.1.01.468.468,0,0,0,.373-.183C571.425,131.121,571.124,129.982,571.121,129.97Z" transform="translate(-560.443 -124.728)" fill="#ffb506"/>
            <path id="Path_155" data-name="Path 155" d="M569.72,142.077l-3.249-1.089a.683.683,0,0,0-.214-.054c-.012,0-.04,0-.046.013-.015.03.029.124.078.19l1.978,2.784a.474.474,0,0,0,.487.14c.64-.189,1.066-1.287,1.07-1.3a.654.654,0,0,0,.073-.537A.287.287,0,0,0,569.72,142.077Z" transform="translate(-559.648 -134.613)" fill="#ffb506"/>
            <path id="Path_156" data-name="Path 156" d="M524.75,95.334a5.861,5.861,0,1,0,5.861,5.861A5.868,5.868,0,0,0,524.75,95.334Zm0,11.466a5.6,5.6,0,1,1,5.6-5.6A5.611,5.611,0,0,1,524.75,106.8Z" transform="translate(-518.889 -95.334)" fill="#ffb506"/>
            <path id="Path_157" data-name="Path 157" d="M545.054,102.775a.375.375,0,0,0-.1-.268.574.574,0,0,0-.443-.153,1.386,1.386,0,0,0-.169.011c-.05,0-1.231.058-1.638.639a.564.564,0,0,0-.021.606l2.01,2.759c.02.029.124.171.223.171a.1.1,0,0,0,.074-.032.449.449,0,0,0,.059-.313Zm-.12,3.672a.015.015,0,0,1-.012.006c-.04,0-.115-.08-.154-.135l-2.008-2.755a.477.477,0,0,1,.019-.511c.382-.546,1.559-.6,1.574-.6a1.378,1.378,0,0,1,.163-.011.5.5,0,0,1,.378.124.3.3,0,0,1,.075.207V106.2C544.976,106.383,544.947,106.434,544.934,106.447Z" transform="translate(-539.322 -101.381)" fill="#ffb506"/>
            <path id="Path_158" data-name="Path 158" d="M561.913,106.42c.07,0,.151-.069.253-.215l2.071-2.719a.373.373,0,0,0,.084-.293.712.712,0,0,0-.4-.462,2.988,2.988,0,0,0-1.4-.527.962.962,0,0,0-.291.042.564.564,0,0,0-.384.469l-.073,3.413a.421.421,0,0,0,.061.259A.1.1,0,0,0,561.913,106.42Zm-.05-.289.072-3.408a.471.471,0,0,1,.325-.4.874.874,0,0,1,.265-.038,2.969,2.969,0,0,1,1.352.513.649.649,0,0,1,.359.4.287.287,0,0,1-.064.227l-2.075,2.724c-.118.167-.171.18-.184.18a.016.016,0,0,1-.013-.006A.362.362,0,0,1,561.863,106.131Z" transform="translate(-555.832 -101.252)" fill="#ffb506"/>
            <path id="Path_159" data-name="Path 159" d="M565.606,114.081a.122.122,0,0,0,.122.06.739.739,0,0,0,.242-.058L569.211,113a.374.374,0,0,0,.234-.2.711.711,0,0,0-.07-.606c-.018-.047-.446-1.149-1.126-1.35a.559.559,0,0,0-.581.173l-1.977,2.783C565.669,113.831,565.56,113.987,565.606,114.081Zm2.129-3.009a.473.473,0,0,1,.491-.144c.639.189,1.066,1.287,1.072,1.3a.651.651,0,0,1,.072.534.288.288,0,0,1-.181.152L565.941,114a.676.676,0,0,1-.213.053c-.012,0-.039,0-.046-.013-.015-.03.029-.124.078-.191Z" transform="translate(-559.12 -108.676)" fill="#ffb506"/>
            <path id="Path_160" data-name="Path 160" d="M529.241,113l3.244,1.087a.74.74,0,0,0,.243.059.122.122,0,0,0,.122-.06c.047-.093-.062-.249-.085-.279l-1.981-2.788a.559.559,0,0,0-.578-.168c-.68.2-1.108,1.3-1.125,1.347a.715.715,0,0,0-.071.609A.371.371,0,0,0,529.241,113Zm-.08-.77c0-.011.43-1.109,1.07-1.3a.474.474,0,0,1,.487.14l1.978,2.784c.049.066.093.16.077.19-.006.012-.034.013-.045.013a.685.685,0,0,1-.215-.054l-3.249-1.088a.286.286,0,0,1-.177-.151A.653.653,0,0,1,529.161,112.226Z" transform="translate(-527.572 -108.676)" fill="#ffb506"/>
            <path id="Path_161" data-name="Path 161" d="M544.991,142.564a.1.1,0,0,0-.074-.032c-.1,0-.2.142-.223.17l-2.014,2.764a.561.561,0,0,0,.024.6c.407.581,1.587.636,1.634.638a1.428,1.428,0,0,0,.173.011.574.574,0,0,0,.443-.153.375.375,0,0,0,.1-.264v-3.421A.452.452,0,0,0,544.991,142.564Zm-.027,3.739a.292.292,0,0,1-.074.2.5.5,0,0,1-.378.124,1.388,1.388,0,0,1-.166-.011c-.012,0-1.188-.056-1.571-.6a.474.474,0,0,1-.022-.506l2.011-2.76c.04-.056.115-.134.153-.134a.015.015,0,0,1,.012.006c.013.013.042.064.035.254Z" transform="translate(-539.317 -135.989)" fill="#ffb506"/>
            <path id="Path_162" data-name="Path 162" d="M562.167,142.673c-.1-.147-.185-.216-.254-.216a.1.1,0,0,0-.074.032.422.422,0,0,0-.061.259l.073,3.419a.562.562,0,0,0,.383.464.962.962,0,0,0,.291.042,2.983,2.983,0,0,0,1.4-.525.715.715,0,0,0,.4-.464.372.372,0,0,0-.081-.29Zm2.069,3c-.021.137-.145.276-.362.4a2.961,2.961,0,0,1-1.349.511.874.874,0,0,1-.265-.038.469.469,0,0,1-.324-.39l-.073-3.414a.36.36,0,0,1,.037-.2.016.016,0,0,1,.013-.006c.013,0,.067.013.185.181l2.076,2.725A.285.285,0,0,1,564.236,145.673Z" transform="translate(-555.831 -135.924)" fill="#ffb506"/>
            <path id="Path_163" data-name="Path 163" d="M569.215,141.463l-3.244-1.087a.741.741,0,0,0-.243-.059.122.122,0,0,0-.122.06c-.047.093.063.249.085.279l1.981,2.788a.559.559,0,0,0,.578.168c.679-.2,1.108-1.3,1.124-1.347a.715.715,0,0,0,.071-.609A.372.372,0,0,0,569.215,141.463Zm.081.77c0,.011-.431,1.109-1.07,1.3a.474.474,0,0,1-.487-.14l-1.978-2.784c-.049-.066-.093-.161-.078-.19.006-.012.034-.013.046-.013a.683.683,0,0,1,.214.054l3.249,1.088a.287.287,0,0,1,.177.151A.654.654,0,0,1,569.3,142.232Z" transform="translate(-559.12 -134.081)" fill="#ffb506"/>
            <path id="Path_164" data-name="Path 164" d="M570.674,129.42c-.094-.5-.338-.578-.475-.578a.361.361,0,0,0-.127.022h0l-3.263,1.029c-.2.055-.294.118-.3.2,0,.114.195.181.234.194l3.242,1.089a.655.655,0,0,0,.125.012.553.553,0,0,0,.441-.216C570.988,130.608,570.686,129.465,570.674,129.42Zm-.185,1.7a.468.468,0,0,1-.373.183.59.59,0,0,1-.1-.01l-3.237-1.088c-.083-.026-.176-.079-.175-.111,0,0,0-.054.234-.118l3.268-1.031a.284.284,0,0,1,.1-.016c.191,0,.329.18.391.511C570.594,129.45,570.895,130.589,570.489,131.118Z" transform="translate(-559.913 -124.197)" fill="#ffb506"/>
            <path id="Path_165" data-name="Path 165" d="M532.849,140.377a.122.122,0,0,0-.122-.06.735.735,0,0,0-.242.058l-3.242,1.086a.373.373,0,0,0-.234.2.71.71,0,0,0,.07.606c.018.047.446,1.149,1.126,1.35a.559.559,0,0,0,.581-.173l1.977-2.783C532.787,140.627,532.9,140.47,532.849,140.377Zm-2.128,3.009a.474.474,0,0,1-.491.144c-.639-.189-1.066-1.287-1.071-1.3a.649.649,0,0,1-.072-.533.287.287,0,0,1,.181-.152l3.247-1.088a.679.679,0,0,1,.213-.053c.012,0,.039,0,.045.013.015.03-.029.124-.078.191Z" transform="translate(-527.572 -134.081)" fill="#ffb506"/>
            <path id="Path_166" data-name="Path 166" d="M526.111,130.755l3.236-1.087c.04-.012.237-.08.235-.194,0-.08-.1-.143-.294-.2l-3.26-1.028a.363.363,0,0,0-.13-.023c-.137,0-.381.075-.474.574-.013.048-.315,1.191.116,1.754a.553.553,0,0,0,.441.216A.647.647,0,0,0,526.111,130.755Zm-.5-.254c-.405-.529-.1-1.668-.1-1.683.061-.327.2-.508.391-.508a.285.285,0,0,1,.1.018l3.266,1.03c.229.063.233.115.233.118,0,.031-.092.084-.176.111l-3.231,1.086a.571.571,0,0,1-.109.011A.468.468,0,0,1,525.607,130.5Z" transform="translate(-524.418 -123.665)" fill="#ffb506"/>
          </g>
        </g>
        <g id="Group_98" data-name="Group 98" transform="translate(0 4.641)">
          <path id="Path_167" data-name="Path 167" d="M477.686,221.219h-9.879L466.8,198.033h11.9Z" transform="translate(-458.74 -188.395)" fill="url(#linear-gradient)"/>
          <g id="Group_96" data-name="Group 96" transform="translate(8.548 7.925)">
            <path id="Path_168" data-name="Path 168" d="M474.393,191.757a.8.8,0,0,1-1.122.12l-2.649-2.137a.8.8,0,0,1-.12-1.122l2.137-2.649a.8.8,0,0,1,1.122-.12l2.649,2.137a.8.8,0,0,1,.12,1.122Z" transform="translate(-470.326 -185.672)" fill="#f6f6f6" stroke="#eceded" stroke-miterlimit="10" stroke-width="6" opacity="0.5"/>
            <path id="Path_169" data-name="Path 169" d="M513.644,205.293a.783.783,0,0,1-.52.978l-3.195.976a.783.783,0,0,1-.978-.52l-.977-3.194a.783.783,0,0,1,.52-.978l3.195-.976a.783.783,0,0,1,.978.52Z" transform="translate(-502.726 -199.344)" fill="#f6f6f6" stroke="#eceded" stroke-miterlimit="10" stroke-width="6" opacity="0.5"/>
          </g>
          <g id="Group_97" data-name="Group 97">
            <path id="Path_170" data-name="Path 170" d="M422.9,160.922l-6.1-30.776a1.992,1.992,0,0,0-2.4-1.571l-5.73,2.033" transform="translate(-408.667 -128.507)" fill="none" stroke="#000" stroke-linecap="round" stroke-miterlimit="10" stroke-width="5"/>
            <path id="Path_171" data-name="Path 171" d="M471.06,184.035H459.137l-1.217-30.661h14.357Z" transform="translate(-451.092 -149.927)" fill="#eceded" opacity="0.3"/>
          </g>
        </g>
      </g>
      <g id="Group_107" data-name="Group 107" transform="translate(0 38.472)">
        <g id="Group_106" data-name="Group 106" transform="translate(0 1.935)">
          <g id="Group_102" data-name="Group 102" transform="translate(28.696)">
            <g id="Group_100" data-name="Group 100" transform="translate(0 14.098)">
              <path id="Path_172" data-name="Path 172" d="M213.1,497.586a16.6,16.6,0,0,1-5.821.552l-.279-9.83a50.394,50.394,0,0,0,6.366-.111Z" transform="translate(-207 -488.197)" fill="#e8ceb8"/>
            </g>
            <g id="Group_101" data-name="Group 101" transform="translate(4.534)">
              <path id="Path_173" data-name="Path 173" d="M404.253,390.678l.474-1.328c2.467-2.561-.19-2.846-.19-2.846-2.562.664-2.656,2.01-3.226,2.941a31.491,31.491,0,0,1-4.024,4.692c.366-.118.734-.231,1.083-.328A52.529,52.529,0,0,1,404.253,390.678Z" transform="translate(-375.443 -386.504)" fill="#9c9e9f"/>
              <path id="Path_174" data-name="Path 174" d="M256.961,399.452c-.537-.356.432-1.48.644-1.644,2.046-1.573,3.509-2.293,4.08-3.226,2.163-3.532-1.686-3.336-2.941-2.657a24.718,24.718,0,0,1-6.546,3.7c-9.437,3.917-9.772,8.349-9.772,8.349a13.774,13.774,0,0,1-2.721.8l1.348,10.44a24.1,24.1,0,0,0,6.885-2.691c1.844-.982,8.6-4.152,10.9-4.282,3.474-.2,3.935-1.483,4.744-2.561.729-.972,3.7-2.467,3.7-2.467a13.658,13.658,0,0,0,4.364-2.656l4.269-5.5c1.139-.284,1.423-.759,1.423-.759l.1-.3a1.4,1.4,0,0,0-.405-1.206c-.705-.613-2.051-.239-2.173-.2a6.455,6.455,0,0,0-3.366,1.939,19,19,0,0,0-1.686,1.766c-1.233.22-4.139,2.748-4.363,2.945-1.464.546-5.654,1.623-5.943,1.7a3.735,3.735,0,0,1-2.442-1.388Z" transform="translate(-239.705 -390.832)" fill="#fff"/>
              <path id="Path_175" data-name="Path 175" d="M383.679,387.578h-.039a17.346,17.346,0,0,0-3.367.983,13.247,13.247,0,0,0-3.794,2.978l-.011.013-.016.006a52.772,52.772,0,0,0-5.87,3.125l-.018.008c-1.685.468-3.862,1.318-3.883,1.326a3.276,3.276,0,0,1-1.71.184,3.737,3.737,0,0,0,2.442,1.389c.288-.074,4.479-1.151,5.943-1.7.224-.2,3.131-2.725,4.363-2.945a19.013,19.013,0,0,1,1.686-1.766,6.453,6.453,0,0,1,3.366-1.939c.122-.035,1.467-.409,2.173.2a1.4,1.4,0,0,1,.4,1.206l.594-.891a1.823,1.823,0,0,0-.382-1.479A2.7,2.7,0,0,0,383.679,387.578Z" transform="translate(-347.605 -387.429)" fill="#c6c7c8"/>
            </g>
          </g>
          <g id="Group_105" data-name="Group 105" transform="translate(0 12.787)">
            <g id="Group_103" data-name="Group 103" transform="translate(26.457 0.532)">
              <rect id="Rectangle_26" data-name="Rectangle 26" width="4.041" height="13.829" fill="#fff"/>
              <circle id="Ellipse_1" data-name="Ellipse 1" cx="1.04" cy="1.04" r="1.04" transform="translate(1.061 10.664)" fill="#f8b334"/>
            </g>
            <g id="Group_104" data-name="Group 104">
              <rect id="Rectangle_27" data-name="Rectangle 27" width="26.412" height="14.457" transform="translate(0 0.532)" fill="#1a171b"/>
              <rect id="Rectangle_28" data-name="Rectangle 28" width="17.279" height="33.406" transform="translate(4.852)" fill="#fff"/>
            </g>
          </g>
        </g>
        <path id="Path_176" data-name="Path 176" d="M261.49,374.69c-.8.483-4.02.517-4.02.517H207.009s-3.251.061-4.09-.447c-.641-.389-1.22-2.211-1.22-2.211h60.883S262.131,374.3,261.49,374.69Z" transform="translate(-173.738 -372.548)" fill="#f6f6f6"/>
      </g>
    </g>
  </g>
</svg>
