<svg xmlns="http://www.w3.org/2000/svg" width="25.239" height="26.455" viewBox="0 0 25.239 26.455">
  <g id="transfer" transform="translate(-14.35 -2.25)">
    <g id="Group_57" data-name="Group 57" transform="translate(15.1 3)">
      <path id="Path_111" data-name="Path 111" d="M79.442,72.576H60.806a.308.308,0,0,1-.306-.306V52.606a.308.308,0,0,1,.306-.306H79.442a.308.308,0,0,1,.306.306V72.27A.3.3,0,0,1,79.442,72.576Z" transform="translate(-58.257 -49.864)" fill="none" stroke="#353745" stroke-miterlimit="10" stroke-width="1.5"/>
      <path id="Path_112" data-name="Path 112" d="M168.34,5.243H158.8V3.094A.094.094,0,0,1,158.894,3h9.347a.094.094,0,0,1,.094.094V5.243Z" transform="translate(-151.7 -3)" fill="none" stroke="#353745" stroke-miterlimit="10" stroke-width="1.5"/>
      <path id="Path_113" data-name="Path 113" d="M168.34,462.7H158.8v2.149a.094.094,0,0,0,.094.094h9.347a.094.094,0,0,0,.094-.094V462.7Z" transform="translate(-151.7 -439.988)" fill="none" stroke="#353745" stroke-miterlimit="10" stroke-width="1.5"/>
      <path id="Path_114" data-name="Path 114" d="M17.343,170.44V160.9H15.194a.094.094,0,0,0-.094.094v9.347a.094.094,0,0,0,.094.094h2.149Z" transform="translate(-15.1 -153.099)" fill="none" stroke="#353745" stroke-miterlimit="10" stroke-width="1.5"/>
      <path id="Path_115" data-name="Path 115" d="M450.2,158.84V149.3h2.149a.094.094,0,0,1,.094.094v9.347a.094.094,0,0,1-.094.094H450.2Z" transform="translate(-428.704 -142.072)" fill="none" stroke="#353745" stroke-miterlimit="10" stroke-width="1.5"/>
      <path id="settings" d="M14.3,9.842a1.375,1.375,0,0,1,.882-1.283,5.45,5.45,0,0,0-.659-1.589,1.393,1.393,0,0,1-.559.12,1.372,1.372,0,0,1-1.255-1.931A5.433,5.433,0,0,0,11.125,4.5a1.374,1.374,0,0,1-2.565,0,5.45,5.45,0,0,0-1.589.659A1.372,1.372,0,0,1,5.716,7.09a1.348,1.348,0,0,1-.559-.12A5.57,5.57,0,0,0,4.5,8.562a1.374,1.374,0,0,1,0,2.565,5.45,5.45,0,0,0,.659,1.589,1.372,1.372,0,0,1,1.811,1.811,5.482,5.482,0,0,0,1.589.659,1.371,1.371,0,0,1,2.56,0,5.45,5.45,0,0,0,1.589-.659,1.374,1.374,0,0,1,1.811-1.811,5.482,5.482,0,0,0,.659-1.589A1.381,1.381,0,0,1,14.3,9.842ZM9.867,12.065A2.226,2.226,0,1,1,12.093,9.84,2.225,2.225,0,0,1,9.867,12.065Z" transform="translate(2.028 2.633)" fill="#353745"/>
    </g>
  </g>
</svg>
