<svg xmlns="http://www.w3.org/2000/svg" width="17.246" height="22.995" viewBox="0 0 17.246 22.995">
  <g id="shopping-list" transform="translate(-64)">
    <g id="Group_679" data-name="Group 679" transform="translate(66.875 8.624)">
      <g id="Group_678" data-name="Group 678" transform="translate(0)">
        <path id="Path_491" data-name="Path 491" d="M133.562,192.219a.721.721,0,0,0-1.018,0l-2.366,2.367-.928-.93a.718.718,0,0,0-1.016,1.016l1.437,1.437a.712.712,0,0,0,.507.211.722.722,0,0,0,.509-.21l2.874-2.874A.719.719,0,0,0,133.562,192.219Z" transform="translate(-128.024 -192.008)" fill="#4187b5"/>
      </g>
    </g>
    <g id="Group_681" data-name="Group 681" transform="translate(66.875 14.372)">
      <g id="Group_680" data-name="Group 680" transform="translate(0)">
        <path id="Path_492" data-name="Path 492" d="M133.562,320.219a.721.721,0,0,0-1.018,0l-2.366,2.367-.928-.928a.718.718,0,0,0-1.016,1.016l1.437,1.437a.72.72,0,0,0,1.016,0l2.874-2.874A.719.719,0,0,0,133.562,320.219Z" transform="translate(-128.024 -320.008)" fill="#4187b5"/>
      </g>
    </g>
    <g id="Group_683" data-name="Group 683" transform="translate(74.06 10.06)">
      <g id="Group_682" data-name="Group 682" transform="translate(0)">
        <path id="Path_493" data-name="Path 493" d="M291.593,224h-2.874a.719.719,0,1,0,0,1.437h2.874a.719.719,0,1,0,0-1.437Z" transform="translate(-288 -224)" fill="#4187b5"/>
      </g>
    </g>
    <g id="Group_685" data-name="Group 685" transform="translate(74.06 15.809)">
      <g id="Group_684" data-name="Group 684" transform="translate(0)">
        <path id="Path_494" data-name="Path 494" d="M291.593,352h-2.874a.719.719,0,1,0,0,1.437h2.874a.719.719,0,1,0,0-1.437Z" transform="translate(-288 -352)" fill="#4187b5"/>
      </g>
    </g>
    <g id="Group_687" data-name="Group 687" transform="translate(64)">
      <g id="Group_686" data-name="Group 686" transform="translate(0)">
        <path id="Path_495" data-name="Path 495" d="M79.809,2.874H76.935V2.156a.719.719,0,0,0-.719-.719H74.657a2.157,2.157,0,0,0-4.067,0H69.03a.719.719,0,0,0-.719.719v.719H65.437A1.44,1.44,0,0,0,64,4.312V21.558A1.44,1.44,0,0,0,65.437,23H79.809a1.44,1.44,0,0,0,1.437-1.437V4.312A1.44,1.44,0,0,0,79.809,2.874Zm-10.06,0h1.437a.719.719,0,0,0,.719-.719.719.719,0,1,1,1.437,0,.719.719,0,0,0,.719.719H75.5V4.312H69.749Zm10.06,18.684H65.437V4.312h2.874V5.03a.719.719,0,0,0,.719.719h7.186a.719.719,0,0,0,.719-.719V4.312h2.874Z" transform="translate(-64)" fill="#4187b5"/>
      </g>
    </g>
  </g>
</svg>
