<svg id="Group_888" data-name="Group 888" xmlns="http://www.w3.org/2000/svg" width="128.844" height="135.737" viewBox="0 0 128.844 135.737">
  <path id="Path_332" data-name="Path 332" d="M274.666,57.715l-11.6,3.135L222,39.533,269.023,22.6l4.075-1.567,2.821-.94,19.436-6.9a46.764,46.764,0,0,1,2.821,24.452,54.617,54.617,0,0,1-1.567,6.9,48.053,48.053,0,0,1-3.448,8.464" transform="translate(-177.798 -13.2)" fill="#272e33"/>
  <line id="Line_12" data-name="Line 12" x1="46.396" y2="12.54" transform="translate(49.845 47.337)"/>
  <path id="Path_333" data-name="Path 333" d="M214.367,36.267c-.627-.627-1.254-.94-1.567-1.567" transform="translate(-197.439 32.7)" fill="#272e33"/>
  <path id="Union_1" data-name="Union 1" d="M66.146,30.1H0l17.238-4.7,15.675-4.39,46.4-12.541,17.557-4.7,9.091-2.509L110.035,0a52.248,52.248,0,0,1,0,26.021c-.315,1.255-.941,2.821-1.255,4.076Z" transform="translate(16.93 38.872)" fill="#272e33"/>
  <path id="Path_337" data-name="Path 337" d="M270.2,28.3,223.8,40.84h0" transform="translate(-173.955 19.037)" fill="#272e33"/>
  <path id="Path_338" data-name="Path 338" d="M334.022,36.74a64.389,64.389,0,0,1-20.69,38.873,63.581,63.581,0,0,1-89.971-5.329A61.114,61.114,0,0,1,208,36.74V35.8" transform="translate(-207.686 35.049)" fill="#272e33"/>
  <path id="Path_340" data-name="Path 340" d="M207.9,36.1H334.863" transform="translate(-207.9 35.689)" fill="#272e33"/>
  <path id="Path_342" data-name="Path 342" d="M288.678,53.051,253.567,63.083l-13.48,3.762L221.9,72.174a6.838,6.838,0,0,1-1.254-1.567,46.738,46.738,0,0,1-11.286-22.571A48.5,48.5,0,0,1,213.44,17l11.6,5.643,6.27,2.821,14.421,6.9Z" transform="translate(-206.857 -5.087)" fill="#272e33"/>
  <line id="Line_13" data-name="Line 13" transform="translate(27.274 13.167)"/>
  <rect id="Rectangle_122" data-name="Rectangle 122" width="127.903" height="2.194" transform="translate(0.94 128.844)" fill="#22282c"/>
  <path id="Path_344" data-name="Path 344" d="M321.134,58.862l-107.84-.627L211.1,55.1H323.642Z" transform="translate(-201.069 76.875)" fill="#272e33"/>
</svg>