<?xml version="1.0" encoding="utf-8"?>
<!-- Generator: Adobe Illustrator 25.2.1, SVG Export Plug-In . SVG Version: 6.00 Build 0)  -->
<svg version="1.1" id="Capa_1" xmlns="http://www.w3.org/2000/svg" xmlns:xlink="http://www.w3.org/1999/xlink" x="0px" y="0px"
	 viewBox="0 0 512 512" style="enable-background:new 0 0 512 512;" xml:space="preserve">
<g>
	<path d="M497,45.1H15c-8.3,0-15,6.7-15,15v30c0,8.3,6.7,15,15,15h482c8.3,0,15-6.7,15-15v-30C512,51.8,505.3,45.1,497,45.1z"/>
	<path d="M368.8,436.9H286V281.2v-15.5v-78.1h48.2c29.7,0,54.4-21.6,59.2-50H118.7c4.8,28.4,29.4,50,59.2,50h48v93.7h0.2v155.7
		h-82.8c-8.3,0-15,6.7-15,15s6.7,15,15,15h225.6c8.3,0,15-6.7,15-15S377.1,436.9,368.8,436.9z"/>
</g>
</svg>
