<svg xmlns="http://www.w3.org/2000/svg" width="40.756" height="42.765" viewBox="0 0 40.756 42.765">
  <g id="Group_57" data-name="Group 57" transform="translate(0.75 0.75)">
    <path id="Path_111" data-name="Path 111" d="M91.823,85.828H61.007a.509.509,0,0,1-.507-.506V52.807a.509.509,0,0,1,.507-.507H91.823a.509.509,0,0,1,.507.507V85.322A.5.5,0,0,1,91.823,85.828Z" transform="translate(-56.791 -48.272)" fill="none" stroke="#353745" stroke-miterlimit="10" stroke-width="1.5"/>
    <path id="Path_112" data-name="Path 112" d="M174.576,6.709H158.8V3.155A.155.155,0,0,1,158.955,3h15.457a.155.155,0,0,1,.155.155V6.709Z" transform="translate(-147.06 -3)" fill="none" stroke="#353745" stroke-miterlimit="10" stroke-width="1.5"/>
    <path id="Path_113" data-name="Path 113" d="M174.576,462.7H158.8v3.554a.155.155,0,0,0,.155.155h15.457a.155.155,0,0,0,.155-.155V462.7Z" transform="translate(-147.06 -425.144)" fill="none" stroke="#353745" stroke-miterlimit="10" stroke-width="1.5"/>
    <path id="Path_114" data-name="Path 114" d="M18.809,176.676V160.9H15.255a.155.155,0,0,0-.155.155v15.457a.155.155,0,0,0,.155.155h3.554Z" transform="translate(-15.1 -148)" fill="none" stroke="#353745" stroke-miterlimit="10" stroke-width="1.5"/>
    <path id="Path_115" data-name="Path 115" d="M450.2,165.076V149.3h3.554a.155.155,0,0,1,.155.155v15.457a.155.155,0,0,1-.155.155H450.2Z" transform="translate(-414.654 -137.348)" fill="none" stroke="#353745" stroke-miterlimit="10" stroke-width="1.5"/>
    <path id="Path_533" data-name="Path 533" d="M-5863.153-1603.991v-9.2h9.265Z" transform="translate(5867.686 1618.043)" fill="#e0e0e4"/>
    <path id="Path_538" data-name="Path 538" d="M0,9.2V0H9.265Z" transform="translate(34.762 36.772) rotate(180)" fill="#e0e0e4"/>
    <path id="Path_534" data-name="Path 534" d="M-5848.673-1613.222h-5.131l-9.363,9.265v8.236l18.1-17.5Z" transform="translate(5867.666 1618.042)" fill="#dfbbf6"/>
    <path id="Path_537" data-name="Path 537" d="M14.494,0H9.363L0,9.265V17.5L18.1,0Z" transform="translate(34.795 36.805) rotate(180)" fill="#dfbbf6"/>
    <path id="Path_535" data-name="Path 535" d="M-5834.591-1611.391h-8.791l-18.072,17.484v10.223Z" transform="translate(5865.938 1616.211)" fill="#b6ecc3"/>
    <path id="Path_536" data-name="Path 536" d="M26.863,0H18.072L0,17.484V27.707Z" transform="translate(34.811 36.805) rotate(180)" fill="#fff"/>
    <path id="Path_539" data-name="Path 539" d="M-5831.175-1611.391l.093,4.269-26.907,27.659h-3.449v-4.379l26.852-27.549Z" transform="translate(5865.938 1616.211)" fill="#f2b8b8"/>
    <path id="Path_540" data-name="Path 540" d="M2.344,2.651a.953.953,0,0,1-.772-.327A1.319,1.319,0,0,1,1.3,1.447,5.554,5.554,0,0,1,1.755-.8,8.913,8.913,0,0,1,3.312-3.081,7.428,7.428,0,0,0,4.477-4.652,3.061,3.061,0,0,0,4.8-6.039,1.642,1.642,0,0,0,4.176-7.4,2.807,2.807,0,0,0,2.4-7.9a6.153,6.153,0,0,0-1.9.275,8.97,8.97,0,0,0-1.715.772,1.627,1.627,0,0,1-1.243.275,1.154,1.154,0,0,1-.772-.615,1.429,1.429,0,0,1-.079-1.047,1.836,1.836,0,0,1,.838-1.021A8.534,8.534,0,0,1-.012-10.345a9.936,9.936,0,0,1,2.618-.38,7.1,7.1,0,0,1,2.893.55A4.607,4.607,0,0,1,7.435-8.657,3.808,3.808,0,0,1,8.129-6.38a4.865,4.865,0,0,1-.537,2.251,8.471,8.471,0,0,1-1.9,2.277A9.015,9.015,0,0,0,3.993.086a4.748,4.748,0,0,0-.6,1.728.841.841,0,0,1-.3.6A1.108,1.108,0,0,1,2.344,2.651ZM2.291,8.122a1.9,1.9,0,0,1-1.427-.55A1.939,1.939,0,0,1,.328,6.159,1.861,1.861,0,0,1,.865,4.785a1.928,1.928,0,0,1,1.427-.537,1.875,1.875,0,0,1,1.427.537,1.913,1.913,0,0,1,.51,1.374,2,2,0,0,1-.51,1.414A1.851,1.851,0,0,1,2.291,8.122Z" transform="translate(17.246 22.321)" fill="#353745"/>
  </g>
</svg>
