<svg xmlns="http://www.w3.org/2000/svg" width="27.539" height="17.055" viewBox="0 0 27.539 17.055">
  <g id="Group_545" data-name="Group 545" transform="translate(-45.051 -610.972)">
    <g id="table_1_" data-name="table (1)" transform="translate(47 525.594)">
      <path id="Path_475" data-name="Path 475" d="M129.437,177.877a3,3,0,0,0,2.957-2.5H118.666a3,3,0,0,0,2.957,2.5h2.408v8.559h-4.138a.75.75,0,0,0,0,1.5h11.275a.75.75,0,0,0,0-1.5h-4.138v-8.559Z" transform="translate(-112.735 -85.502)" fill="#001858"/>
      <path id="Path_476" data-name="Path 476" d="M24.84,85.378H.75a.75.75,0,0,0-.75.75v1.5a.75.75,0,0,0,.75.75H24.84a.75.75,0,0,0,.75-.75v-1.5A.75.75,0,0,0,24.84,85.378Z" transform="translate(0 0)" fill="#001858"/>
    </g>
    <path id="Union_2" data-name="Union 2" d="M17530.463,12456.263l-4.15-4.163a1.179,1.179,0,0,1,.035-1.637l4.119-4.114a1.188,1.188,0,0,1,1.68,0,1.17,1.17,0,0,1,.348.832,1.183,1.183,0,0,1-.348.845l-3.281,3.278,3.277,3.282a1.163,1.163,0,0,1,.348.836,1.188,1.188,0,0,1-2.027.841Zm-3.785-4.5,4.141,4.145a.693.693,0,0,0,.484.2.7.7,0,0,0,.488-.2.683.683,0,0,0,.2-.486.683.683,0,0,1-.2.486.7.7,0,0,1-.488.2.693.693,0,0,1-.484-.2l-4.141-4.145a.681.681,0,0,1-.178-.444A.681.681,0,0,0,17526.678,12451.766Zm5.113-4.1-3.635,3.635,3.635-3.635a.682.682,0,0,0,.2-.485A.682.682,0,0,1,17531.791,12447.669Z" transform="translate(-17480.949 -11829.24)" fill="#001858"/>
  </g>
</svg>
