<svg id="chef" xmlns="http://www.w3.org/2000/svg" width="18.999" height="23.999" viewBox="0 0 18.999 23.999">
  <g id="Group_779" data-name="Group 779" transform="translate(0 0)">
    <g id="Group_778" data-name="Group 778">
      <path id="Path_523" data-name="Path 523" d="M77.425,384H64.475a.432.432,0,0,0-.432.431l0,1.259a1.762,1.762,0,0,0,1.762,1.764H76.1a1.764,1.764,0,0,0,1.762-1.762v-1.261A.432.432,0,0,0,77.425,384Z" transform="translate(-61.449 -363.455)"/>
      <path id="Path_524" data-name="Path 524" d="M14.249,2.315a3.381,3.381,0,0,0-.824.107A4.735,4.735,0,0,0,9.5,0C6.642,0,4.318,3.116,4.318,6.946c0,.319-.194.579-.432.579s-.432-.259-.432-.579a10.28,10.28,0,0,1,.639-3.6.744.744,0,0,0-.049-.621.379.379,0,0,0-.441-.2C1.481,3.231,0,5.765,0,8.683a6.856,6.856,0,0,0,2.6,5.674l0,4.744a.7.7,0,0,0,.126.41.387.387,0,0,0,.306.17H15.977c.239,0,.432-.259.432-.579V14.349A6.863,6.863,0,0,0,19,8.683C19,5.172,16.868,2.315,14.249,2.315ZM6.319,16.077a.371.371,0,0,1-.274.131A.4.4,0,0,1,5.711,16a9.39,9.39,0,0,1-1.393-3.841c0-.32.193-.579.432-.579s.432.259.432.579a8.089,8.089,0,0,0,1.2,3.106A.723.723,0,0,1,6.319,16.077Zm3.612-.448c0,.32-.193.579-.432.579s-.432-.259-.432-.579V12.156c0-.32.193-.579.432-.579s.432.259.432.579v3.473ZM13.288,16a.4.4,0,0,1-.334.211.37.37,0,0,1-.274-.131.722.722,0,0,1-.06-.815,8.119,8.119,0,0,0,1.2-3.106c0-.32.193-.579.432-.579s.432.259.432.579A9.391,9.391,0,0,1,13.288,16Z" transform="translate(0 0)"/>
    </g>
  </g>
</svg>
