<svg xmlns="http://www.w3.org/2000/svg" width="38.421" height="40.312" viewBox="0 0 38.421 40.312">
  <g id="transfer" transform="translate(0.75 0.75)">
    <g id="Group_57" data-name="Group 57">
      <path id="Path_111" data-name="Path 111" d="M89.96,83.835H60.976a.479.479,0,0,1-.476-.476V52.776a.479.479,0,0,1,.476-.476H89.96a.479.479,0,0,1,.476.476V83.358A.469.469,0,0,1,89.96,83.835Z" transform="translate(-57.011 -48.512)" fill="none" stroke="#bad8f5" stroke-miterlimit="10" stroke-width="1.5"/>
      <path id="Path_112" data-name="Path 112" d="M173.638,6.489H158.8V3.146A.146.146,0,0,1,158.946,3h14.538a.146.146,0,0,1,.146.146V6.489Z" transform="translate(-147.758 -3)" fill="none" stroke="#bad8f5" stroke-miterlimit="10" stroke-width="1.5"/>
      <path id="Path_113" data-name="Path 113" d="M173.638,462.7H158.8v3.343a.146.146,0,0,0,.146.146h14.538a.146.146,0,0,0,.146-.146V462.7Z" transform="translate(-147.758 -427.377)" fill="none" stroke="#bad8f5" stroke-miterlimit="10" stroke-width="1.5"/>
      <path id="Path_114" data-name="Path 114" d="M18.589,175.738V160.9H15.246a.146.146,0,0,0-.146.146v14.538a.146.146,0,0,0,.146.146h3.343Z" transform="translate(-15.1 -148.767)" fill="none" stroke="#bad8f5" stroke-miterlimit="10" stroke-width="1.5"/>
      <path id="Path_115" data-name="Path 115" d="M450.2,164.138V149.3h3.343a.146.146,0,0,1,.146.146v14.538a.146.146,0,0,1-.146.146H450.2Z" transform="translate(-416.767 -138.058)" fill="none" stroke="#bad8f5" stroke-miterlimit="10" stroke-width="1.5"/>
    </g>
    <g id="Group_61" data-name="Group 61" transform="translate(8.314 11.246)">
      <g id="Group_58" data-name="Group 58" transform="translate(7.899 4.895)">
        <path id="Path_116" data-name="Path 116" d="M230.71,216.331h1.422v-3a.273.273,0,0,1,.469-.192l5.456,5.433a.267.267,0,0,1,.077.192.3.3,0,0,1-.077.192l-5.456,5.448a.284.284,0,0,1-.3.061.278.278,0,0,1-.169-.254v-2.989H226.1" transform="translate(-226.1 -213.062)" fill="none" stroke="#bad8f5" stroke-miterlimit="10" stroke-width="1.5"/>
      </g>
      <g id="Group_60" data-name="Group 60">
        <g id="Group_59" data-name="Group 59">
          <path id="Path_117" data-name="Path 117" d="M135.825,157.518H129.3v3a.273.273,0,0,1-.469.192l-5.456-5.433a.267.267,0,0,1-.077-.192.3.3,0,0,1,.077-.192l5.456-5.448a.284.284,0,0,1,.3-.061.278.278,0,0,1,.169.254v2.989h5.871" transform="translate(-123.3 -149.362)" fill="none" stroke="#bad8f5" stroke-miterlimit="10" stroke-width="1.5"/>
        </g>
      </g>
    </g>
  </g>
</svg>
