<?xml version="1.0" encoding="utf-8"?>
<!-- Generator: Adobe Illustrator 26.1.0, SVG Export Plug-In . SVG Version: 6.00 Build 0)  -->
<svg version="1.0" id="katman_1" xmlns="http://www.w3.org/2000/svg" xmlns:xlink="http://www.w3.org/1999/xlink" x="0px" y="0px"
	 viewBox="0 0 1024 768" enable-background="new 0 0 1024 768" xml:space="preserve">
<path fill="#434E54" d="M681.78,133.15l9.61,5.01l1.53-2.94c0.45-0.87,1.35-1.38,2.33-1.37c0.54,0.01,1.08-0.02,1.62-0.07
	c0.97-0.09,1.91,0.35,2.43,1.17l1.78,2.8l9.15-5.82l-1.78-2.8c-0.52-0.82-0.52-1.86-0.03-2.7c0.28-0.47,0.53-0.95,0.75-1.44
	c0.4-0.89,1.26-1.49,2.23-1.53l3.32-0.14l-0.47-10.83l-3.33,0.15c-0.98,0.04-1.87-0.49-2.35-1.34c-0.13-0.23-0.27-0.46-0.41-0.68
	c-0.14-0.23-0.29-0.45-0.45-0.66c-0.56-0.79-0.67-1.82-0.22-2.68l1.54-2.97l-9.61-5.01l-1.54,2.95c-0.45,0.87-1.35,1.38-2.33,1.37
	c-0.54-0.01-1.08,0.02-1.61,0.07c-0.97,0.09-1.91-0.35-2.43-1.17l-1.78-2.8l-9.15,5.82l1.78,2.8c0.52,0.82,0.52,1.86,0.03,2.7
	c-0.27,0.47-0.52,0.94-0.74,1.43c-0.4,0.89-1.25,1.49-2.23,1.53l-3.32,0.15l0.47,10.83l3.33-0.14c0.97-0.04,1.86,0.49,2.34,1.34
	c0.13,0.23,0.27,0.46,0.41,0.69c0.14,0.23,0.29,0.45,0.45,0.66c0.57,0.8,0.67,1.83,0.22,2.7L681.78,133.15z M687.92,123.5
	c-2.63-4.14-1.42-9.62,2.72-12.25c4.14-2.63,9.63-1.42,12.26,2.72c2.63,4.14,1.41,9.63-2.72,12.27
	C696.05,128.86,690.56,127.63,687.92,123.5z"/>
<path fill="#434E54" d="M600.19,166.41l10.1,14.83l4.54-3.1c1.33-0.91,3.06-0.96,4.47-0.18c0.78,0.43,1.59,0.82,2.42,1.17
	c1.49,0.62,2.52,2,2.64,3.61l0.41,5.48l17.9-1.34l-0.41-5.48c-0.12-1.61,0.69-3.12,2.07-3.96c0.77-0.47,1.51-0.97,2.22-1.51
	c1.28-0.98,2.99-1.19,4.45-0.48l4.95,2.39l7.79-16.17l-4.97-2.39c-1.46-0.7-2.34-2.18-2.38-3.79c-0.01-0.44-0.03-0.88-0.07-1.32
	c-0.03-0.44-0.08-0.88-0.13-1.31c-0.2-1.6,0.45-3.18,1.78-4.09l4.57-3.12l-10.1-14.83l-4.55,3.1c-1.34,0.91-3.06,0.96-4.47,0.18
	c-0.78-0.43-1.58-0.82-2.41-1.16c-1.48-0.62-2.51-2-2.63-3.6l-0.41-5.48l-17.9,1.34l0.41,5.48c0.12,1.61-0.69,3.12-2.07,3.96
	c-0.76,0.46-1.5,0.97-2.21,1.51c-1.28,0.98-2.99,1.19-4.45,0.49l-4.96-2.39l-7.79,16.17l4.96,2.39c1.45,0.7,2.33,2.17,2.37,3.78
	c0.01,0.44,0.03,0.88,0.07,1.33c0.03,0.44,0.08,0.88,0.13,1.32c0.2,1.6-0.45,3.2-1.79,4.11L600.19,166.41z M616.7,157.13
	c-0.6-8.1,5.46-15.14,13.56-15.75c8.1-0.6,15.16,5.46,15.76,13.56c0.6,8.1-5.48,15.16-13.57,15.76
	C624.35,171.3,617.3,165.22,616.7,157.13z"/>
<path fill="#434E54" d="M235.49,685.03c-101.81-222.12-93.27-434.97,10.62-521.87c85.81-71.78,180.81-59.28,180.81-59.28
	c68.66,9.03,113.26,52.13,120.85,59.66c76.22,75.71,34.43,154.5,97.14,208.39c68.09,58.51,156.7-0.53,204.99,48.78
	c28.21,28.81,43.09,95.02-29.31,264.32H235.49z"/>
<g>
	<g>
		<path fill="#FFC800" d="M236.7,490.78c1.42,9.71,0.89,19.72-1.48,29.22c-1.11,4.45-2.64,8.74-4.48,12.92
			c-2.32,5.35-4.75,10.57-4.17,16.42c0.56,0.38-1.37,0.32-1.44-0.25c-15.63-8.9-35.68-10.53-47.71-25.08
			c-5.7-6.89-8.57-15.62-9.93-24.36c-1.48-9.51-1.89-20.04,0.56-29.42c2.07-7.93,6.7-15.58,14.15-19.46
			c7.69-4,17.76-3.67,25.86-1.15C225.54,455.03,234.23,473.88,236.7,490.78z"/>
		<g>
			<path fill="#1A2E35" d="M244.72,606.49c-2.13-7.11-4.26-14.22-6.45-21.31c-4.29-13.89-8.75-27.73-13.68-41.41
				c-2.96-8.19-6.07-16.31-9.36-24.34c0.56-5.05,0.78-10.08,1.87-15.11c1.31-6.06,3.21-11.91,4.97-17.84
				c0.11-0.36-0.48-0.56-0.63-0.21c-3.51,8.17-8.09,18.63-8.2,28.3c-3.82-9.09-7.9-18.06-12.29-26.89
				c-0.25-7.53-0.52-14.82,0.69-22.4c0.05-0.34-0.46-0.44-0.53-0.1c-1.17,6.36-2,13.18-1.53,19.77c-3.36-6.63-6.9-13.19-10.67-19.64
				c-0.34-0.58-1.14,0.01-0.85,0.59c5.87,11.31,11.32,22.86,16.44,34.56c-7.08-6.28-15.66-11.03-24.51-14.19
				c-0.39-0.14-0.68,0.42-0.29,0.59c10.07,4.21,18.53,10.16,26.51,17.55c3.67,8.57,7.17,17.21,10.51,25.91
				c-9.78-9.59-23.17-15.9-36.11-19.28c-0.44-0.12-0.56,0.56-0.13,0.69c14.98,4.51,26.62,13.01,38.02,23.21
				c1.32,3.52,2.62,7.05,3.9,10.58c4.83,13.4,9.4,26.88,13.79,40.43c2.1,6.49,4.17,13,6.21,19.51c2.19,7.01,3.9,14.41,6.74,21.18
				c0.27,0.65,1.43,0.5,1.29-0.28C249.13,619.64,246.69,613.04,244.72,606.49z"/>
			<path fill="#1A2E35" d="M218.79,477.1c-2.8,4.29-4.67,9.01-5.63,14.03c-0.02,0.13,0.18,0.21,0.22,0.07
				c1.74-4.73,3.79-9.3,6.1-13.77C219.73,476.98,219.06,476.69,218.79,477.1z"/>
			<path fill="#1A2E35" d="M190.91,509.66c-4.05-2.3-9.42-4.12-14.03-4.72c-0.13-0.02-0.21,0.17-0.07,0.22
				c2.26,0.94,4.62,1.59,6.91,2.47c2.29,0.88,4.53,1.95,6.84,2.76C191.04,510.56,191.37,509.93,190.91,509.66z"/>
			<path fill="#1A2E35" d="M183.05,470.49c-1.42-0.94-2.93-2.15-4.51-2.79c-0.25-0.1-0.46,0.21-0.26,0.4
				c1.25,1.15,2.99,2.01,4.45,2.89C183.01,471.15,183.33,470.67,183.05,470.49z"/>
		</g>
	</g>
	<g>
		<path fill="#FFC800" d="M289.4,543.87c-11.26,3.34-22.58,6.43-33.83,9.73c-0.98,0.29-20.01-36.18-13.13-54.96
			c6.36-17.39,20.91-30.4,38.27-36.31c8.04-2.73,17.92-5.02,26.41-3.15c7.55,1.67,12.88,7.85,15.34,14.95
			c3.34,9.65,2.23,21.16,0.41,31.02c-1.69,9.14-5.03,18.14-11.08,25.31C305.8,537.57,298.17,541.27,289.4,543.87z"/>
		<g>
			<path fill="#1A2E35" d="M305.72,509.21c-7.17,3.61-14.43,6.23-22.07,8.69c-4.79,1.54-10.15,2.93-14.74,5.34
				c4.75-10.6,9.97-20.98,15.51-31.26c7.27-2.11,14.92-5.39,20.41-10.54c0.3-0.28-0.08-0.7-0.41-0.47c-6,4.24-12.62,6.78-19.25,9.65
				c1.5-2.77,3.01-5.53,4.55-8.29c0.43-0.77-0.63-1.53-1.14-0.78c-5.9,8.51-11.21,17.54-16,26.87c-1.19-8.23-1.62-16.25-1.16-24.62
				c0.01-0.21-0.29-0.23-0.33-0.02c-1.39,8.85-1.33,18.22,0.28,27.05c-3.95,7.88-7.55,15.95-10.78,24.13
				c-1.29-4.91-2.95-9.74-4.07-14.7c-1.6-7.13-2.36-14.39-1.62-21.67c0.02-0.21-0.29-0.23-0.33-0.02
				c-2.18,12.92-0.19,27.51,4.72,39.78c-1.88,4.92-3.68,9.86-5.32,14.81c-8.41,25.33-13.59,51.45-14.94,78.11
				c-0.03,0.62,0.88,0.68,0.95,0.07c3.06-26.16,8.46-52.19,16.78-77.19c3.27-9.82,7.02-19.35,11.15-28.7
				c6.65-1.96,13.27-4.63,19.8-6.89c6.37-2.21,12.9-4.76,18.25-8.95C306.18,509.43,305.95,509.09,305.72,509.21z"/>
			<path fill="#1A2E35" d="M316.22,498.62c-6.89,2.45-13.41,5.88-20.29,8.36c-0.32,0.12-0.13,0.63,0.19,0.56
				c7.28-1.5,14.5-3.75,20.36-8.53C316.7,498.83,316.46,498.53,316.22,498.62z"/>
			<path fill="#1A2E35" d="M260,483.76c0.08-0.36-0.45-0.57-0.56-0.2c-1.89,6.35-3.19,13.08-1.35,19.57
				c0.07,0.25,0.47,0.26,0.49-0.03C258.9,496.56,258.53,490.2,260,483.76z"/>
			<path fill="#1A2E35" d="M288.45,469.1c-2.31,2.95-3.14,7.13-2.99,10.79c0.01,0.24,0.4,0.38,0.46,0.1
				c0.84-3.63,2.24-6.94,3.36-10.47C289.44,469,288.77,468.68,288.45,469.1z"/>
		</g>
	</g>
	<g>
		<path fill="#FFC800" d="M155.48,559.96c3.3,10.47,11.14,24.96,23.56,25.07c8.05,0.08,16.16-0.88,24.23-0.99
			c8.64-0.13,17.31-0.11,25.93,0.4c0.71,0.04-1.04-25.88-21.81-38.5c-5.82-3.54-12.94-4.66-19.54-6.09
			c-7.56-1.64-15.34-2.75-23.09-2.4c-4.77,0.19-8.74,1.2-10.44,6.09C152.56,548.64,153.9,554.98,155.48,559.96z"/>
		<g>
			<path fill="#1A2E35" d="M164.42,546.85c5.05,1.3,10.14,2.79,15.21,4.4c-1.35-1.4-2.68-2.83-4.19-4.08
				c-2.18-1.81-4.57-3.25-6.9-4.84c-0.2-0.13-0.08-0.51,0.17-0.41c4.61,1.81,9.4,5.59,12.25,9.74c6.31,2.04,12.57,4.29,18.59,6.76
				c4.27,1.75,8.21,3.84,11.9,6.27c-1.33-2.56-2.53-5.2-4.31-7.49c-2.76-3.57-6.49-5.56-10.1-8.1c-0.34-0.24-0.05-0.72,0.32-0.55
				c8.15,3.62,13.11,9.5,16.2,17.57c4.26,3.04,8.16,6.59,11.78,10.7c13.74,15.61,24.57,36.38,24.61,57.57
				c0,0.51-0.81,0.65-0.91,0.12c-3.9-21.05-12.21-39.96-26.21-56.3c-0.98-1.15-1.99-2.24-3.02-3.3c-3.78-0.4-7.52-0.9-11.35-0.84
				c-4.42,0.07-8.81,0.65-13.21,1.01c-7.25,0.59-15.27,0.67-21.81-2.97c-0.29-0.16-0.09-0.66,0.23-0.54
				c14.58,5.3,29.88-1.42,44.49,1.74c-6.24-5.98-13.32-10.49-21.56-13.9c-0.45-0.18-0.89-0.36-1.34-0.54
				c-9.36,1.12-19.24,3.56-28.35,0.52c-0.27-0.09-0.16-0.5,0.12-0.43c8.81,2.2,17.25-0.57,25.94-1.01
				c-9.46-3.68-19.11-6.62-28.6-10.27C163.57,547.36,163.56,546.63,164.42,546.85z"/>
			<path fill="#1A2E35" d="M160.29,556.06c4.57,0.75,9.03,0.78,13.62,1.03c0.1,0.01,0.14,0.17,0.03,0.19
				c-4.48,1.01-9.38,0.39-13.74-0.88C159.97,556.34,160.07,556.02,160.29,556.06z"/>
			<path fill="#1A2E35" d="M191.06,547.08c2.48,0.86,4.8,2.97,6.74,4.69c0.24,0.21-0.08,0.64-0.34,0.44
				c-1.14-0.83-2.32-1.62-3.51-2.38c-1.08-0.7-2.29-1.26-3.28-2.08C190.35,547.49,190.69,546.95,191.06,547.08z"/>
		</g>
	</g>
	<g>
		<path fill="#FFC800" d="M264.4,580.8c-0.15,0.34,0.34,0.67,0.53,0.31c0.02,0,0.02,0,0.02-0.02c0.08,0.1,0.17,0.19,0.32,0.21
			c8.4,1.81,16.83,3.66,25.38,4.43c6.87,0.61,14.79,0.99,20.8-3c8.15-5.4,13.51-19.84,9.1-29.02c-5.21-10.89-20.91-4.98-28.79-1.11
			C279.65,558.52,269.92,568.52,264.4,580.8z"/>
		<g>
			<path fill="#1A2E35" d="M258.31,585.84c4.62-4.52,9.73-8.29,15.15-11.53c3.71-6.31,9.42-11.54,15.37-15.66
				c0.3-0.21,0.55,0.27,0.28,0.48c-5.13,3.95-9.13,8.58-12.95,13.62c6.06-3.38,12.47-6.17,19.01-8.65
				c2.28-4.18,5.98-8.08,10.21-10.23c0.08-0.04,0.19,0.07,0.11,0.14c-3.69,2.89-6.65,5.88-9.22,9.68c3.86-1.44,7.76-2.78,11.66-4.08
				c0.35-0.12,0.48,0.42,0.15,0.55c-6.94,2.71-14.04,5.57-20.91,8.87c8.68,1.16,16.5,1.43,25.33-0.07c0.23-0.04,0.33,0.29,0.1,0.36
				c-8.52,2.43-18.28,2.88-26.87,0.4c-4.39,2.16-8.67,4.51-12.75,7.14c3.41-0.44,6.84,0.16,10.3,0.84c6.03,1.2,11.93,2.26,18.1,2.05
				c0.23-0.01,0.29,0.37,0.06,0.41c-10.5,1.81-20.43-2.97-30.84-1.72c-3.85,2.65-7.5,5.57-10.84,8.85
				c-6.54,6.42-11.78,14.1-15.81,22.31c-4.38,8.92-6.76,18.37-10.3,27.59c-0.16,0.4-0.72,0.25-0.65-0.18
				C236.03,618.83,245.07,598.79,258.31,585.84z"/>
			<path fill="#1A2E35" d="M289.98,560.93c0.61-1.25,1.68-2.32,2.69-3.26c0.88-0.82,1.95-1.89,3.1-2.32c0.11-0.04,0.16,0.1,0.1,0.17
				c-0.86,0.98-2.06,1.69-2.99,2.63c-0.94,0.94-1.71,2.04-2.66,2.97C290.1,561.24,289.91,561.08,289.98,560.93z"/>
			<path fill="#1A2E35" d="M307.31,566.57c1.56-0.39,3.21-0.36,4.79-0.69c1.6-0.33,3.09-0.9,4.64-1.39c0.2-0.06,0.32,0.23,0.14,0.34
				c-2.56,1.52-6.59,2.81-9.57,2.22C307.06,567,307.07,566.62,307.31,566.57z"/>
		</g>
	</g>
	<g>
		<g>
			<polygon fill="#375A64" points="215.04,614.61 216.41,630.26 221.09,683.12 262.49,683.12 268.33,630.26 270.06,614.61 			"/>
			<polygon fill="#1A2E35" points="215.04,614.61 216.41,630.26 268.33,630.26 270.06,614.61 			"/>
		</g>
		
			<rect x="210.94" y="610.34" transform="matrix(-1 -1.224647e-16 1.224647e-16 -1 485.0932 1233.3773)" fill="#375A64" width="63.22" height="12.7"/>
	</g>
</g>
<g>
	<polygon fill="#586773" points="358.45,253.83 366.53,253.83 371.67,266.27 362.27,266.95 	"/>
	<polygon fill="#586773" points="285.52,253.83 293.59,253.83 283.28,273.61 279.07,262.36 	"/>
	<path fill="#586773" d="M388.61,308.4c0-22.83-12-42.93-30.16-54.56V314l-36.46,21.15L285.52,314v-60.17
		c-18.16,11.65-30.14,31.73-30.14,54.56c0,29.23,19.67,53.97,46.75,62.23v218.53c-15.37,7.4-25.97,23.12-25.97,41.32
		c0,25.3,20.52,45.83,45.83,45.83c25.3,0,45.83-20.53,45.83-45.83c0-18.2-10.61-33.92-25.97-41.32V370.63
		C368.94,362.36,388.61,337.63,388.61,308.4z M355.59,630.48l-16.81,29.09h-33.6l-16.79-29.09l16.79-29.09h33.6L355.59,630.48z"/>
	<path fill="#93ACBF" d="M396.69,308.4c0-22.83-12-42.93-30.16-54.56V314l-36.46,21.15L293.59,314v-60.17
		c-18.16,11.65-30.14,31.73-30.14,54.56c0,29.23,19.67,53.97,46.75,62.23v218.53c-15.37,7.4-25.97,23.12-25.97,41.32
		c0,25.3,20.52,45.83,45.83,45.83c25.3,0,45.83-20.53,45.83-45.83c0-18.2-10.61-33.92-25.97-41.32V370.63
		C377.02,362.36,396.69,337.63,396.69,308.4z M363.67,630.48l-16.81,29.09h-33.6l-16.79-29.09l16.79-29.09h33.6L363.67,630.48z"/>
	<path fill="#586773" d="M330.07,572.81L330.07,572.81c-3.7,0-6.72-3.03-6.72-6.72V385.83c0-3.7,3.03-6.72,6.72-6.72l0,0
		c3.7,0,6.72,3.03,6.72,6.72v180.26C336.79,569.79,333.77,572.81,330.07,572.81z"/>
</g>
<path fill="#2B454E" d="M847.35,698.52H198.67c-4.36,0-7.89-3.53-7.89-7.89l0,0c0-4.36,3.53-7.89,7.89-7.89h648.68
	c4.36,0,7.89,3.53,7.89,7.89l0,0C855.24,694.99,851.71,698.52,847.35,698.52z"/>
<path fill="#FFFFFF" d="M416.9,491.5c-1.36,0.46-2.63,1.17-3.76,2.1C414.09,492.32,415.37,491.52,416.9,491.5z"/>
<path fill="#FFFFFF" d="M425.32,531.19c-1.86,0.3-3.57,0.27-5.13,0H425.32z"/>
<path fill="#FFFFFF" d="M507.29,491.5c-0.47-0.02-0.96,0.05-1.47,0.19c0.11-0.18,0.23-0.35,0.34-0.53
	C506.53,491.26,506.91,491.36,507.29,491.5z"/>
<path fill="#FFFFFF" d="M418.37,491.69c-0.51-0.14-1.01-0.21-1.47-0.19c0.37-0.14,0.76-0.24,1.14-0.34
	C418.14,491.34,418.26,491.51,418.37,491.69z"/>
<path fill="#FFFFFF" d="M504,531.19c-1.56,0.27-3.27,0.3-5.13,0H504z"/>
<path fill="#FFFFFF" d="M511.05,493.6c-1.13-0.92-2.4-1.64-3.76-2.1C508.81,491.52,510.09,492.32,511.05,493.6z"/>
<g>
	<g>
		<g>
			<g>
				<path fill="#FFABA1" d="M738.69,578.15c0,0-4.69,65.05-4.69,65.1c-0.06,12.74,0.11,23.91,0.73,29.68c0,0.03,0,0.06,0.01,0.09
					c0.23,2.18,0.53,3.57,0.92,3.94c0.03,0.03,0.04,0.06,0.07,0.08c3.78,2.59,105.58,6.07,109.17,5c3.61-1.06,0.81-11.39-3.03-14.68
					c-3.87-3.29-42.24-22.05-42.24-22.05l4.06-65.02L738.69,578.15z"/>
				<path fill="#FFFFFF" d="M734,629.57c0,0,0,13.63,0,13.68c-0.06,12.74,0.11,23.91,0.73,29.68c0,0.03,0,0.06,0.01,0.09
					c0.36,2.15,0.69,3.57,0.92,3.94c0.03,0.03,0.04,0.06,0.07,0.08c3.78,2.59,105.58,6.07,109.17,5c3.61-1.06,0.81-11.39-3.03-14.68
					c-3.87-3.29-42.24-22.05-42.24-22.05l0.19-13.88L734,629.57z"/>
				<g>
					<path fill="#FFC800" d="M844.91,682.04c-3.6,1.08-105.39-2.41-109.17-5c-1.46-0.96-1.81-15.82-1.73-33.79
						c0-0.19,0.01-0.38,0.01-0.56l65.7,1.51l-0.06,1.11c0,0,38.37,18.76,42.23,22.05C845.71,670.65,848.5,680.98,844.91,682.04z"/>
					<g>
						<path fill="#1A2E35" d="M843.89,678.06c-17.14-1.01-86.39-3.46-103.41-3.15c-0.14,0-0.14,0.1,0,0.11
							c16.97,1.37,86.23,3.26,103.41,3.33C844.24,678.34,844.25,678.08,843.89,678.06z"/>
						<path fill="#1A2E35" d="M805.15,645.7c-6.71-1.49-15-0.74-20.33,3.9c-0.21,0.18,0.05,0.47,0.27,0.41
							c6.73-1.87,13-3.01,20-3.45C805.59,646.52,805.64,645.8,805.15,645.7z"/>
						<path fill="#1A2E35" d="M809.93,648.8c-6.71-1.49-15-0.74-20.33,3.9c-0.21,0.18,0.05,0.47,0.27,0.41
							c6.73-1.87,13-3.01,20-3.45C810.36,649.62,810.41,648.91,809.93,648.8z"/>
						<path fill="#1A2E35" d="M814.7,651.91c-6.71-1.49-15-0.74-20.33,3.9c-0.21,0.18,0.05,0.47,0.27,0.41
							c6.73-1.87,13-3.01,20-3.45C815.14,652.73,815.18,652.01,814.7,651.91z"/>
					</g>
				</g>
			</g>
			<g>
				<path fill="#2B454E" d="M730.08,646.05l71.26-1.42c0,0,8.69-128.22,7.07-170.97c-1.76-46.43-21.7-184.6-21.7-184.6h-60.18
					c0,0,15.38,138.7,15.71,185.15C742.53,517.28,730.08,646.05,730.08,646.05z"/>
				<g>
					<path fill="#1A2E35" d="M774.88,289.07l-36.15,125.07c-4.28-59.19-12.21-125.07-12.21-125.07H774.88z"/>
					<path fill="#1A2E35" d="M737.94,295.87l3.82,41.24l3.54,41.27c2.27,27.52,4.42,55.05,6.06,82.63
						c0.4,6.89,0.64,13.82,0.55,20.75c-0.15,6.92-0.43,13.82-0.78,20.72c-0.71,13.8-1.6,27.58-2.66,41.34
						c-1.04,13.77-2.16,27.53-3.34,41.29l-3.84,41.24l3.08-41.3c1.03-13.77,2.01-27.54,2.9-41.31c0.87-13.77,1.8-27.55,2.44-41.33
						c0.33-6.89,0.58-13.78,0.7-20.67c0.07-6.88-0.2-13.75-0.61-20.64c-1.5-27.55-3.68-55.08-5.69-82.62L737.94,295.87z"/>
					<g>
						<g>
							<path fill="#1A2E35" d="M798.36,632.74c-11.12-0.1-7.93-0.23-19.06-0.2c-5.44,0.01-41.22,0.14-46.3,1.04
								c-0.11,0.02-0.11,0.21,0,0.23c5.1,0.78,40.87,0.04,46.31-0.08c11.12-0.24,7.93-0.29,19.05-0.66
								C798.57,633.06,798.57,632.75,798.36,632.74z"/>
						</g>
					</g>
				</g>
			</g>
		</g>
		<g>
			<g>
				<path fill="#FFABA1" d="M622.86,543.25c0,0-34.37,55.87-34.4,55.91c-5.58,11.45-10.27,21.59-12.21,27.06
					c-0.01,0.03-0.03,0.05-0.03,0.09c-0.73,2.06-1.07,3.45-0.88,3.95c0.01,0.04,0.01,0.08,0.03,0.1c2.28,3.97,92.5,51.25,96.2,51.84
					c3.71,0.61,5.67-9.91,3.64-14.54c-2.06-4.64-28.5-38.19-28.5-38.19l33.79-56.12L622.86,543.25z"/>
				<path fill="#FFFFFF" d="M575.35,630.27c0,0.03,0,0.07,0.02,0.1c2.29,3.97,92.51,51.25,96.21,51.85
					c3.71,0.61,5.67-9.92,3.64-14.55c-2.08-4.65-28.5-38.19-28.5-38.19l6.03-10.02c-14.74-7.86-41.55-21.66-58.19-30.21
					c-3.62,5.88-6.1,9.9-6.1,9.92c-5.59,11.45-10.28,21.58-12.21,27.05c-0.02,0.03-0.03,0.07-0.03,0.1
					C575.49,628.38,575.16,629.76,575.35,630.27z"/>
				<g>
					<path fill="#FFC800" d="M671.58,682.21c-3.71-0.59-93.92-47.87-96.21-51.85c-0.9-1.5,5.23-15.04,13.1-31.2
						c0.08-0.17,0.17-0.34,0.25-0.5l58.54,29.85l-0.54,0.98c0,0,26.44,33.54,28.49,38.19C677.25,672.29,675.28,682.82,671.58,682.21
						z"/>
					<g>
						<path fill="#1A2E35" d="M672.39,678.18c-15.01-8.34-76.34-40.58-91.82-47.68c-0.13-0.06-0.17,0.03-0.05,0.1
							c14.7,8.59,76.29,40.33,91.74,47.84C672.59,678.59,672.71,678.36,672.39,678.18z"/>
						<path fill="#1A2E35" d="M651.52,632.23c-5.4-4.25-13.2-7.17-20.01-5.3c-0.26,0.07-0.16,0.45,0.07,0.49
							c6.88,1.23,13.02,2.93,19.52,5.56C651.56,633.16,651.91,632.53,651.52,632.23z"/>
						<path fill="#1A2E35" d="M654.47,637.09c-5.4-4.25-13.2-7.17-20.01-5.3c-0.26,0.07-0.16,0.45,0.07,0.49
							c6.88,1.23,13.02,2.93,19.52,5.56C654.51,638.02,654.86,637.4,654.47,637.09z"/>
						<path fill="#1A2E35" d="M657.43,641.96c-5.4-4.25-13.2-7.17-20.01-5.3c-0.26,0.07-0.16,0.45,0.07,0.49
							c6.88,1.23,13.02,2.93,19.52,5.56C657.47,642.89,657.82,642.27,657.43,641.96z"/>
					</g>
				</g>
			</g>
			<g>
				<path fill="#2B454E" d="M780.54,289.01c0,0,0,0.02-0.02,0.06c-0.26,1.24-4.47,20.76-8.83,37.53
					c-3.17,12.25-6.44,23.02-8.31,24.13c-2.12,1.25-12.45,5.83-15.92,7.27c0,0-23.24,116.02-35.51,151.99
					c-11.32,33.2-58.17,121.93-58.17,121.93l-67.97-34.34c0,0,53.08-90.05,58.66-106.22c8.65-25.05,41.07-147.36,41.07-147.36
					s-0.25-38.29,12.65-55.01H780.54z"/>
				<g>
					<path fill="#1A2E35" d="M652.79,618.68c-9.71-5.43-6.85-4.01-16.62-9.32c-4.78-2.6-36.22-19.67-41.11-21.32
						c-0.11-0.04-0.2,0.13-0.11,0.2c4.1,3.13,35.83,19.65,40.66,22.16c9.87,5.13,7.09,3.55,17.02,8.57
						C652.82,619.06,652.97,618.78,652.79,618.68z"/>
					<path fill="#1A2E35" d="M702.99,333.37c1.86-0.48,3.85-0.63,5.75-0.93c1.53-0.24,3.06-0.51,4.58-0.85
						c2.85-0.63,5.74-1.58,8.08-3.4c2.63-2.05,3.97-5.15,5.24-8.14c0.75-1.77,1.53-3.53,2.32-5.29c0.38-0.85,0.77-1.7,1.16-2.55
						c0.46-0.99,1.1-2.02,1.43-3.06c0.05-0.15,0.29-0.07,0.23,0.07c-0.3,0.69-0.43,1.48-0.65,2.2c-0.26,0.85-0.5,1.71-0.77,2.56
						c-0.47,1.52-0.93,3.05-1.43,4.56c-0.9,2.72-1.7,5.56-3.24,8c-2.81,4.47-7.82,6.27-12.84,6.9c-1.44,0.18-2.89,0.28-4.33,0.37
						c-1.79,0.1-3.7,0.26-5.48,0.04C702.77,333.83,702.69,333.44,702.99,333.37z"/>
					<g>
						<path fill="#1A2E35" d="M768.89,347.99c-7.38,2.54-14.5,6.14-21.3,9.92c-0.27,0.15-0.09,0.56,0.2,0.44
							c7.18-3.08,14.49-6.03,21.49-9.5C769.82,348.58,769.45,347.8,768.89,347.99z"/>
						<path fill="#1A2E35" d="M771.05,298.84c-0.02-0.25-0.45-0.3-0.45-0.04c0.06,8.52-0.49,16.02-1.2,23.98
							c-0.33,3.7-3.31,24.13-9.72,22.64c-1.07-0.25-1.62-1.31-1.79-2.92c-0.2-1.95,0.53-4.33,0.85-6.27
							c0.71-4.28,1.28-8.57,1.65-12.89c0.69-8.06,0.72-16.13-0.26-24.17c-0.03-0.26-0.41-0.24-0.41,0.02
							c0.01,11.16-0.28,22.3-1.95,33.36c-0.8,5.31-3.48,13.31,2.08,14.13c5.66,0.83,9.32-12.57,10.01-16.23
							C771.78,320.23,771.86,309.19,771.05,298.84z"/>
						<path fill="#1A2E35" d="M759.84,345.97c-0.58,1.37-1.05,2.8-1.44,4.23c-0.31,1.11-0.73,2.32-0.6,3.48
							c0.02,0.23,0.32,0.25,0.44,0.09c0.75-0.95,1.07-2.26,1.49-3.39c0.49-1.31,1-2.61,1.45-3.93
							C761.49,345.58,760.2,345.12,759.84,345.97z"/>
					</g>
					<path fill="#1A2E35" d="M604.16,586.31c9.68-18.21,19.65-36.26,29.66-54.3c4.93-8.89,10.09-17.68,14.8-26.69
						c4.65-8.9,7.81-18.25,10.76-27.83c5.98-19.45,11.66-39,17.01-58.64c5.35-19.64,10.35-39.37,15.07-59.17
						c1.18-4.95,2.48-9.9,3.43-14.9c0.99-5.2,0.69-10.05-0.02-15.26c-0.65-4.76-0.84-9.44-0.11-14.21c0.72-4.71,1.9-9.34,3.32-13.88
						c0.75-2.39,1.56-4.77,2.38-7.13c0.09-0.26,0.5-0.14,0.42,0.13c-2.93,9.59-5.93,19.28-5.3,29.44c0.3,4.88,1.59,9.68,1.51,14.59
						c-0.08,4.89-1.37,9.68-2.47,14.41c-4.62,19.92-9.61,39.76-14.89,59.51c-5.29,19.75-10.89,39.42-16.83,58.99
						c-2.88,9.52-5.58,19.18-9.68,28.27c-4.1,9.1-9.29,17.7-14.18,26.39c-10.1,17.96-20.28,35.88-30.69,53.66
						c-1.32,2.25-2.65,4.5-3.98,6.75C604.3,586.59,604.08,586.46,604.16,586.31z"/>
				</g>
			</g>
		</g>
	</g>
	<g>
		<g>
			<g>
				<path fill="#A8A8A8" d="M844.23,136.23l-11.01,42.27c-0.46,1.24,0.15,2.25,1.38,2.26l21.86,0.18c1.22,0.01,2.59-0.99,3.05-2.23
					l11.01-42.27c0.46-1.24-0.15-2.25-1.37-2.26L847.28,134C846.06,133.99,844.69,134.99,844.23,136.23z"/>
				<path fill="#DCDCDC" d="M846.82,136.23l-11.01,42.27c-0.46,1.24,0.15,2.25,1.38,2.26l21.86,0.18c1.22,0.01,2.59-0.99,3.05-2.23
					l11.01-42.27c0.46-1.24-0.15-2.25-1.37-2.26L849.88,134C848.65,133.99,847.29,134.98,846.82,136.23z"/>
				<path fill="#375A64" d="M852.8,138.21c-0.03,1.03-0.89,1.83-1.91,1.8c-1.03-0.03-1.83-0.89-1.8-1.91
					c0.03-1.03,0.89-1.83,1.91-1.8C852.03,136.33,852.83,137.18,852.8,138.21z"/>
			</g>
			<g>
				<path fill="#FFABA1" d="M776.38,199.23c11.92,26.54,42.88,63.85,54.36,64.2c5.46,0.16,15.2,1.63,22.48-4.52
					c15.88-13.44,29.41-39.43,32.33-54.39c1.04-5.32-24.73-17.32-28.64-13.04c-9.15,10.03-19.92,29.82-21.51,29.67
					c-5.87-0.55-31.14-20.32-47.33-32.53C767.75,173.29,771.63,188.65,776.38,199.23z"/>
				<g>
					<path fill="#FFABA1" d="M886.66,176.94c-2.57-10.88-4.89-13.28-2.18-23.61c1.78-6.78-1.79-10.83-6.7-5.45
						c-8.04,8.8-7.68,23.54-6.09,28.61L886.66,176.94z"/>
					<g>
						<path fill="#FFABA1" d="M884.21,209.14c0,0,5.09-15.02,3.51-26.88c-1.1-8.21-5.47-25.79-28.23-35.42
							c-5.4-2.28-14.71-1.71-7.25,5.22c5.3,4.92,10.15,6.44,12.71,9.87c0,0-11.76,2.14-13.83,7.63c-0.93,2.46-3.3,9.22-4.4,14.75
							c0,0,1.14,0.56,2.69,1.07c0,0-1.45,5.32,2.3,12.81L884.21,209.14z"/>
					</g>
					<path fill="#FFABA1" d="M885.42,174.59c-3.26-2.86-10.28-8.81-17.71-11.68c-8.25-3.19-25.01-7.11-27.3-0.99
						c-1.68,4.49,4.59,6.54,4.59,6.54s-7.27-0.16-7.9,4.22c-0.58,3.99,4.37,5.3,4.37,5.3s-4.43,0.66-4.24,4.62
						c0.22,4.76,9.46,2.59,13.85,7.21C852.06,190.84,885.42,174.59,885.42,174.59z"/>
					<g>
						<path fill="#1A2E35" d="M865.79,172.19c-3.51-2.19-12.75-5.12-20.66-3.85c-0.18,0.03-0.25,0.18-0.08,0.19
							c9,0.46,17.27,2.61,20.72,3.74C865.81,172.28,865.83,172.21,865.79,172.19z"/>
					</g>
					<g>
						<path fill="#1A2E35" d="M862.33,180.42c-3.22-1.58-12.88-4.17-20.85-2.61c-0.18,0.04-0.24,0.19-0.07,0.19
							c9.43,0.09,17.39,1.58,20.9,2.5C862.35,180.52,862.37,180.45,862.33,180.42z"/>
					</g>
				</g>
			</g>
			<g>
				<path fill="#FFC800" d="M815.25,206.28l-19.61,32.98c0,0-22.12-35.94-25.64-48.34c-3.96-13.96,4.04-12.93,16.15-6.32
					C798.24,191.22,815.25,206.28,815.25,206.28z"/>
				<path opacity="0.1" d="M815.25,206.28l-19.61,32.98c0,0-22.12-35.94-25.64-48.34c-3.96-13.96,4.04-12.93,16.15-6.32
					C798.24,191.22,815.25,206.28,815.25,206.28z"/>
				<g>
					<path fill="#1A2E35" d="M808.59,203.9c-3.07,3.86-10.63,16.74-11.9,18.85c-0.67,1.12-3.15,5.68-3.83,6.79
						c-0.09,0.14,0.15,0.25,0.23,0.11c1.29-2.11,2.81-4.1,4.12-6.2c1.34-2.16,9.48-14.93,11.54-19.44
						C808.8,203.9,808.66,203.81,808.59,203.9z"/>
				</g>
			</g>
		</g>
		<g>
			<g>
				<g>
					<path fill="#FFC800" d="M688.83,303.02c0-0.01,103.31,14.34,103.31,14.35c-0.29,2.02,5.47-81.72-14.57-134.24
						c-1.37-3.58-17.11-9.41-25.18-3.81C717,203.89,688.64,304.33,688.83,303.02z"/>
				</g>
			</g>
			<path opacity="0.1" d="M750.43,180.77l27.75,4.1c0.08,0.15,0.14,0.32,0.18,0.48l-28.43-4.19
				C750.09,181.01,750.26,180.89,750.43,180.77z M741.76,189.09l39.73,5.83c-0.03-0.15-0.08-0.31-0.14-0.46l-39.23-5.79
				C741.99,188.81,741.86,188.95,741.76,189.09z M735.28,197.25l48.72,7.17c-0.03-0.15-0.06-0.31-0.11-0.46l-48.32-7.12
				C735.46,196.98,735.37,197.12,735.28,197.25z M729.72,205.56l56.33,8.3c-0.03-0.17-0.06-0.32-0.09-0.48l-56-8.24
				C729.89,205.28,729.8,205.42,729.72,205.56z M724.76,213.96l62.97,9.27c-0.02-0.15-0.05-0.31-0.08-0.46l-62.66-9.23
				C724.92,213.68,724.84,213.82,724.76,213.96z M720.24,222.43l68.86,10.13c-0.02-0.15-0.05-0.31-0.06-0.46L720.45,222
				C720.37,222.14,720.3,222.29,720.24,222.43z M716.05,230.93l74.14,10.91c-0.02-0.15-0.03-0.31-0.05-0.46l-73.89-10.88
				C716.18,230.64,716.12,230.78,716.05,230.93z M712.12,239.48l78.94,11.62c-0.02-0.15-0.03-0.31-0.05-0.46l-78.7-11.59
				C712.25,239.21,712.19,239.34,712.12,239.48z M708.45,248.06l83.27,12.26c0-0.15-0.02-0.31-0.03-0.46l-83.07-12.23
				C708.56,247.79,708.49,247.93,708.45,248.06z M704.93,256.66l87.28,12.85c-0.02-0.15-0.02-0.29-0.03-0.45l-87.08-12.82
				C705.06,256.38,704.99,256.52,704.93,256.66z M701.62,265.3l90.89,13.39c0.02-0.15,0-0.29,0-0.45l-90.73-13.35
				C701.72,265.02,701.66,265.16,701.62,265.3z M698.44,273.96l94.22,13.88c0.02-0.14,0.02-0.29,0-0.45l-94.06-13.85
				C698.55,273.68,698.5,273.82,698.44,273.96z M695.42,282.65l97.26,14.31v-0.43l-97.12-14.31
				C695.51,282.36,695.46,282.51,695.42,282.65z M692.51,291.35l100.01,14.72c0-0.15,0-0.31,0.02-0.46l-99.88-14.71
				C692.61,291.06,692.56,291.21,692.51,291.35z M689.77,300.07l102.45,15.07c0-0.14,0.02-0.29,0.02-0.45l-102.34-15.06
				C689.84,299.78,689.8,299.93,689.77,300.07z"/>
		</g>
		<g>
			<g>
				<g>
					<path fill="#FFABA1" d="M773.94,195.24c-5.04,0.82-14.95-5.74-17.99-13.07c-0.21-0.5,1.07-5.42,2.33-11.47
						c0.75-3.68,1.5-7.79,1.91-11.58c0.08-0.78,23.2,8.38,23.2,8.38s-3.21,7.71-3.89,14.34c-0.05,0.55-0.05,1.08-0.01,1.58
						c0,0.07,0.01,0.16,0.01,0.26C779.67,186.68,779.33,194.36,773.94,195.24z"/>
				</g>
				<path fill="#1A2E35" d="M779.51,183.41c-0.01,0.08,0,0.17,0,0.26c-0.76,0.02-1.57-0.03-2.45-0.14
					c-13.99-1.83-15.79-19.79-16.02-24.32c4.17,1.07,22.36,8.28,22.36,8.28s-3.21,7.72-3.89,14.35
					C779.47,182.39,779.46,182.91,779.51,183.41z"/>
			</g>
			<g>
				<g>
					<path fill="#FFABA1" d="M758.99,129.05c-3.24,8.28-0.64,33.1,4.97,39.02c8.13,8.58,22.38,10.44,29.91,0.45
						c7.3-9.68,3.34-41.98-3.01-47.45C781.5,113,763.77,116.82,758.99,129.05z"/>
				</g>
				<g>
					<g>
						<path fill="#1A2E35" d="M781.75,145.54c-0.02-0.06-0.12,0.09-0.11,0.16c0.22,1.67,0.19,3.61-1.27,4.32
							c-0.05,0.02-0.03,0.11,0.02,0.09C782.21,149.67,782.23,147.08,781.75,145.54z"/>
						<path fill="#1A2E35" d="M780.08,143.94c-2.71,0.06-2.38,5.48,0.13,5.42C782.68,149.3,782.36,143.88,780.08,143.94z"/>
					</g>
					<g>
						<path fill="#1A2E35" d="M791.48,145.22c0.01-0.07,0.14,0.07,0.14,0.14c0.05,1.68,0.39,3.6,1.94,4.06
							c0.05,0.01,0.05,0.1-0.01,0.09C791.68,149.37,791.26,146.82,791.48,145.22z"/>
						<path fill="#1A2E35" d="M792.88,143.38c2.69-0.37,3.22,5.03,0.74,5.37C791.16,149.09,790.62,143.69,792.88,143.38z"/>
					</g>
					<path fill="#1A2E35" d="M777.8,141.59c0.73-0.23,1.36-0.56,2.05-0.87c0.78-0.34,1.44-0.53,1.93-1.28
						c0.26-0.4,0.1-1.09-0.27-1.38c-0.86-0.67-1.92-0.49-2.88-0.12c-1.04,0.4-1.74,0.98-2.3,1.95
						C775.79,140.84,776.84,141.89,777.8,141.59z"/>
					<path fill="#1A2E35" d="M794.81,140.53c-0.76-0.08-1.45-0.27-2.19-0.43c-0.84-0.17-1.52-0.23-2.15-0.86
						c-0.34-0.34-0.32-1.04-0.02-1.4c0.7-0.83,1.78-0.87,2.8-0.7c1.1,0.18,1.91,0.6,2.65,1.44
						C796.61,139.38,795.81,140.63,794.81,140.53z"/>
					<path fill="#1A2E35" d="M781.14,161.21c0.43,0.37,0.86,0.89,1.47,0.9c0.59,0.01,1.26-0.29,1.78-0.53
						c0.05-0.02,0.11,0.03,0.08,0.08c-0.4,0.67-1.29,1.13-2.08,1.04c-0.77-0.09-1.18-0.72-1.41-1.4
						C780.95,161.2,781.08,161.15,781.14,161.21z"/>
					<g>
						<g>
							<path fill="#1A2E35" d="M782.6,156.08c1.03,1.4,2.46,2.11,3.97,2.31c0.67,0.09,1.38,0.07,2.06-0.03
								c0.13-0.01,0.27-0.03,0.39-0.07c0.12-0.02,0.23-0.04,0.36-0.08c0.19-0.04,0.29-0.21,0.31-0.4l0-0.01
								c0-0.06-0.01-0.11-0.03-0.17c0,0,0,0,0-0.01l-0.01-0.15c-0.04-1.29-0.29-3.25-0.29-3.25c0.49,0.21,2.96,1.15,2.88,0.47
								c-0.67-5.57-1.42-11.76-3.26-17.16c-0.05-0.18-0.33-0.12-0.3,0.06c0.43,5.38,1.81,10.64,2.33,16.04
								c-0.79-0.25-2.07-0.71-2.75-0.66c-0.18,0.06,0.54,3.78,0.51,4.36c0,0,0,0.02-0.01,0.06c-2.15,0.41-3.83-0.15-6.03-1.48
								C782.62,155.83,782.49,155.95,782.6,156.08z"/>
						</g>
					</g>
					<g>
						<path fill="#1A2E35" d="M787.83,157.75c0,0-1.05,1.61-2.59,2.27c-0.57,0.24-1.18,0.36-1.85,0.23
							c-1.36-0.27-1.47-1.5-1.29-2.57c0.15-0.88,0.5-1.65,0.5-1.65S784.68,157.74,787.83,157.75z"/>
						<path fill="#FF99BC" d="M785.24,160.02c-0.57,0.24-1.18,0.36-1.85,0.23c-1.36-0.27-1.47-1.5-1.29-2.57
							C783.55,157.74,785.03,158.63,785.24,160.02z"/>
					</g>
				</g>
				<path fill="#1A2E35" d="M794.93,129.08c-1.04-2.07-2.23-4.16-3.54-4.5c-1.31-0.35-1.97,2.83-4.87,3.2
					c-3.92,0.5-6.04-3.01-11.57-3.07c-7.94-0.08-11.03,6.73-10.56,17.96c0.42,10.03-5.58,11.33-5.58,11.33s-4.97-21.88,0.83-29.57
					c5.8-7.68,19.9-11.76,29.91-5.34C793.2,121.43,794.93,129.08,794.93,129.08z"/>
				<g>
					<path fill="#FFABA1" d="M763.63,149.75c0,0-5.1-8.24-8.8-6.47c-3.71,1.77-0.19,13.5,3.94,15.31c4.13,1.81,5.89-1.98,5.89-1.98
						L763.63,149.75z"/>
					<path fill="#1A2E35" d="M755.92,146.62c-0.07-0.01-0.09,0.08-0.03,0.11c2.89,1.37,4.3,4.2,5.23,7.11
						c-0.82-1.15-1.98-1.81-3.51-0.85c-0.08,0.05-0.01,0.18,0.07,0.16c1.23-0.19,2.09,0.07,2.86,1.09c0.54,0.72,0.89,1.61,1.26,2.43
						c0.12,0.27,0.61,0.16,0.53-0.15c-0.01-0.02-0.01-0.05-0.02-0.07C762.59,152.68,759.95,147.23,755.92,146.62z"/>
				</g>
			</g>
		</g>
		<g>
			<path fill="#FFABA1" d="M736.83,204.73c-6.97,24.13-22.91,73.79-14.64,90.46c10.85,21.88,54.22,41.54,65.52,47.17
				c4.92,2.45,23.17-29.31,21-34.77c-2.17-5.47-48.67-32.65-51.45-36.06s1.33-42.45-0.05-63.72
				C755.47,180.98,742.73,184.31,736.83,204.73z"/>
			<g>
				<path fill="#FFABA1" d="M821.19,321.46c-1.57-2.33-0.36-3.17,4.39-1.64c4.81,1.54,22.23,11.61,25.24,5.21
					c3.02-6.41-21.88-20.27-29.98-22.21c-8.1-1.96-21.88-2.24-21.88-2.24C803.26,304.25,812.84,314.15,821.19,321.46z"/>
				<path fill="#FFABA1" d="M775.57,335.02c12.49,9.89,27.44,22.97,45.25,25.44c3.49,0.48,5.75-0.99,5.75-0.99
					c7.96,1.25,10.94-2.14,10.94-2.14c7.77-1.11,10.34-4.99,10.34-4.99s9.36,1.36,11.13-4.16c2-6.19-11.54-6.89-18.75-11.83
					c-16.52-11.32-36.83-32.04-41.27-35.78L775.57,335.02z"/>
				<g>
					<path fill="#1A2E35" d="M814.58,336.66c4.93,3.24,9.68,6.54,15.02,9.09c5.86,2.8,11.97,4.51,18.14,6.41
						c0.19,0.06,0.13,0.33-0.07,0.3c-11.72-1.66-24.34-7.81-33.25-15.58C814.21,336.69,814.33,336.5,814.58,336.66z"/>
					<path fill="#1A2E35" d="M806.29,345.64c4.97,2.88,13.74,7.89,31.25,11.52c0.06,0.01,0.06,0.11-0.01,0.11
						c-11.69-0.84-21.85-4.74-31.38-11.39C805.86,345.67,805.96,345.44,806.29,345.64z"/>
					<path fill="#1A2E35" d="M801.93,350.54c8.64,4.58,14.66,6.37,24.6,8.88c0.06,0.01,0.05,0.12-0.02,0.11
						c-11.6-1.67-15.62-3.59-24.78-8.72C801.42,350.64,801.6,350.36,801.93,350.54z"/>
				</g>
			</g>
			<g>
				<path fill="#FFC800" d="M759.57,236.99l-37.69,7.22c0,0,12.2-40.4,19.14-51.26c7.81-12.23,12.36-5.56,15.44,7.88
					C759.56,214.27,759.57,236.99,759.57,236.99z"/>
				<path opacity="0.1" d="M759.57,236.99l-37.69,7.22c0,0,12.2-40.4,19.14-51.26c7.81-12.23,12.36-5.56,15.44,7.88
					C759.56,214.27,759.57,236.99,759.57,236.99z"/>
				<g>
					<path fill="#1A2E35" d="M756.94,230.43c-4.92,0.27-19.57,3.16-22,3.61c-1.28,0.24-6.34,1.42-7.62,1.64
						c-0.16,0.03-0.09,0.28,0.07,0.25c2.44-0.44,4.93-0.62,7.38-1.04c2.5-0.43,17.46-2.82,22.2-4.28
						C757.08,230.58,757.05,230.42,756.94,230.43z"/>
					<path fill="#1A2E35" d="M734.12,208.44c0.05-0.17-0.19-0.23-0.26-0.08c-1.42,3.29-2.75,6.63-4.04,9.98
						c0.23-1.87,0.68-3.67,1.25-5.49c0.03-0.08-0.09-0.11-0.12-0.04c-0.78,2.01-1.2,4.19-1.44,6.34c-0.89,2.34-1.75,4.68-2.59,7.04
						c-2.13,5.99-4.35,11.98-6.13,18.08c-0.1,0.33,0.2,0.62,0.53,0.55c1.3-0.29,2.59-0.62,3.87-1c0.13-0.04,0.12-0.26-0.03-0.25
						c-1.1,0.07-2.2,0.2-3.29,0.33c2.22-5.73,4.14-11.58,6.19-17.37C730.18,220.53,732.24,214.51,734.12,208.44z"/>
					<path fill="#1A2E35" d="M759.6,220.52c0.13-2.02,0.26-4.04,0.32-6.07c0-0.04-0.06-0.04-0.06,0c-0.15,1.48-0.27,2.97-0.38,4.45
						c-0.26-2.96-0.56-5.92-1.01-8.85c-0.01-0.04-0.08-0.03-0.08,0.01c0.01,4.5,0.28,9,0.4,13.5c0.12,4.41,0.31,8.82,0.51,13.23
						c-0.83,0.3-1.67,0.58-2.51,0.84c-0.16,0.05-0.1,0.27,0.06,0.25c0.96-0.14,1.91-0.27,2.88-0.37c0.23-0.02,0.43-0.17,0.43-0.42
						C760.19,231.6,760.02,226.04,759.6,220.52z"/>
				</g>
			</g>
		</g>
	</g>
</g>
<g>
	<g>
		<path d="M597.51,192.49H433.09c-26.07,0-47.41,21.33-47.41,47.37v381.98c0,26.07,21.34,47.41,47.41,47.41h164.43
			c26.07,0,47.4-21.34,47.4-47.41V239.86C644.91,213.82,623.59,192.49,597.51,192.49z M402.62,239.54
			c0-16.8,13.67-30.46,30.47-30.46h164.43c16.8,0,30.49,13.66,30.49,30.46v381.95c0,16.8-13.69,30.49-30.49,30.49H433.09
			c-16.8,0-30.47-13.69-30.47-30.49V239.54z"/>
	</g>
	<path fill="#FFFFFF" d="M628,421.45v200.04c0,16.8-13.69,30.49-30.49,30.49H433.09c-16.8,0-30.47-13.69-30.47-30.49V459.02
		l0.05-0.16c5.25-0.47,10.65,1.32,14.46,5.93c-7.35-17.87,7.92-30.35,19.9-25.27c-2.86-11.05,9.99-22.45,21.21-17.46
		c0.32-0.13,0.63-0.27,0.96-0.38c0.61-0.02,1.26,0.06,1.92,0.25c-0.15-0.23-0.3-0.46-0.44-0.69c-6.18-9.82-5.27-18.83-1.56-25.22
		c4.57-7.86,13.37-11.78,18.52-8.49c0,0,7.45,5.9,14.21-13.65c2.18-6.3,12.59-30.33,20.18-44.59c2.52-4.73,4.73-8.37,6.23-9.96
		c1.51,1.59,3.71,5.23,6.23,9.96c7.59,14.26,18,38.29,20.18,44.59c6.76,19.55,14.21,13.65,14.21,13.65
		c5.15-3.29,13.96,0.64,18.52,8.49c3.72,6.39,4.63,15.4-1.56,25.22c-0.14,0.23-0.29,0.46-0.44,0.69c0.67-0.19,1.32-0.27,1.92-0.25
		c0.94,0.32,1.83,0.74,2.7,1.23c8.11-6.79,19.92-4.7,24.47,3.69C608.32,418.03,620.6,415.88,628,421.45z"/>
</g>
<g>
	<g>
		<circle fill="#FFCA00" cx="518.04" cy="417.1" r="6.76"/>
		<path opacity="0.9" fill="#FFCA00" d="M478.89,425.84c0,3.55,2.88,6.42,6.42,6.42s6.42-2.88,6.42-6.42s-2.88-6.42-6.42-6.42
			S478.89,422.29,478.89,425.84z"/>
		<path opacity="0.8" fill="#FFCA00" d="M458.75,448.14c0,3.36,2.73,6.09,6.09,6.09c3.36,0,6.09-2.73,6.09-6.09
			c0-3.36-2.73-6.09-6.09-6.09C461.48,442.05,458.75,444.78,458.75,448.14z"/>
		<circle opacity="0.7" fill="#FFCA00" cx="457.84" cy="478.11" r="5.76"/>
		<path opacity="0.6" fill="#FFCA00" d="M458.89,506.38c0,3,2.43,5.43,5.43,5.43c3,0,5.43-2.43,5.43-5.43c0-3-2.43-5.43-5.43-5.43
			C461.32,500.96,458.89,503.39,458.89,506.38z"/>
		<path opacity="0.5" fill="#FFCA00" d="M479.05,529.51c0,2.81,2.28,5.1,5.1,5.1c2.81,0,5.1-2.28,5.1-5.1c0-2.81-2.28-5.1-5.1-5.1
			C481.33,524.41,479.05,526.7,479.05,529.51z"/>
		<path opacity="0.4" fill="#FFCA00" d="M513.48,539.18c0,2.63,2.13,4.76,4.76,4.76s4.76-2.13,4.76-4.76c0-2.63-2.13-4.76-4.76-4.76
			S513.48,536.55,513.48,539.18z"/>
		<path opacity="0.3" fill="#FFCA00" d="M548.37,528.77c0,2.45,1.98,4.43,4.43,4.43s4.43-1.98,4.43-4.43c0-2.45-1.98-4.43-4.43-4.43
			S548.37,526.32,548.37,528.77z"/>
		<path opacity="0.2" fill="#FFCA00" d="M568.38,504.51c0,2.26,1.84,4.1,4.1,4.1c2.26,0,4.1-1.84,4.1-4.1c0-2.26-1.84-4.1-4.1-4.1
			C570.22,500.41,568.38,502.25,568.38,504.51z"/>
		<path opacity="0.1" fill="#FFCA00" d="M575.01,477.51c0,2.08,1.69,3.77,3.77,3.77c2.08,0,3.77-1.69,3.77-3.77
			c0-2.08-1.69-3.77-3.77-3.77C576.7,473.74,575.01,475.43,575.01,477.51z"/>
		<path opacity="0.05" fill="#FFCA00" d="M565.59,442.75c0,1.9,1.54,3.44,3.44,3.44c1.9,0,3.44-1.54,3.44-3.44
			c0-1.9-1.54-3.44-3.44-3.44C567.13,439.31,565.59,440.85,565.59,442.75z"/>
		<circle opacity="0.01" fill="#FFCA00" cx="545.65" cy="423.19" r="3.1"/>
	</g>
	<polygon fill="#FFCA00" points="541.54,475.27 532.49,475.27 532.49,505.62 502.12,505.62 502.12,475.27 493.09,475.27 
		517.32,448.67 	"/>
</g>
<g>
	<path fill="#F8B100" d="M547.37,315.39c0,29.9-26.28,62.75-26.28,62.75s-32.2-38.77-32.2-62.75c0-23.98,29.24-43.04,29.24-43.04
		S547.37,285.49,547.37,315.39z"/>
	<path fill="#FFCA00" d="M538.42,308.39c0,20.83-18.23,43.71-18.23,43.71s-22.34-27-22.34-43.71c0-16.71,20.29-29.98,20.29-29.98
		S538.42,287.56,538.42,308.39z"/>
	<path fill="#E95A0C" d="M588.39,309.63c-16.23,0-37.12-27.94-37.12-27.94s11.09-69.03,17.6-69.03
		C589.7,212.67,594.89,309.63,588.39,309.63z"/>
	<path fill="#EE7A00" d="M573.44,214.34c4.77,14.02,7.54,28.74,8.59,43.51c0.75,10.61,1.82,21.71,1.34,32.35
		c-0.28,6.06-1.26,11.93-3.86,17.12c3.01,1.43,6.02,2.31,8.88,2.31C594.39,309.63,590.43,227.15,573.44,214.34z"/>
	<path fill="#E95A0C" d="M448.64,309.63c16.23,0,37.12-27.94,37.12-27.94s-11.1-69.02-17.6-69.03
		C447.33,212.67,442.14,309.63,448.64,309.63z"/>
	<path fill="#EE7A00" d="M463.59,214.34c-4.77,14.02-7.55,28.74-8.59,43.51c-0.75,10.61-1.82,21.71-1.34,32.35
		c0.28,6.06,1.26,11.93,3.86,17.12c-3.01,1.43-6.02,2.31-8.88,2.31C442.64,309.63,446.59,227.15,463.59,214.34z"/>
	<path fill="#E95A0C" d="M554.28,288.34c0,4.8-3.08,8.7-6.89,8.7l-58.53,0c-3.8,0-6.89-3.89-6.89-8.7l0-1.23
		c0-4.8,3.08-8.7,6.89-8.7l58.53,0c3.8,0,6.89,3.89,6.88,8.7L554.28,288.34z"/>
	<path fill="#FFFFFF" d="M517.92,65.86c0,0-55.33,30.13-55.33,132.02c0,49.85,18.24,90.94,18.24,90.94l37.09,0l37.09,0
		c0,0,18.24-41.09,18.24-90.94C573.25,95.99,517.92,65.86,517.92,65.86z"/>
	<path fill="#D9D9D9" d="M522.55,252.37c-5.73,1.94-7.46,10.08-9.39,15.09c-0.83,2.17-2.62,7.66-6.02,6.52
		c-6.08-2.03-9.37-12.86-11.34-17.98c-4.94-12.83-8.52-26.5-11.89-39.82c-7-27.62-5.17-55.26,2.84-82.43
		c3.75-12.74,8.46-25.29,14.35-37.21c5.18-10.49,12.9-19.55,17.29-30.41c-0.29-0.18-0.46-0.27-0.46-0.27s-55.33,30.13-55.33,132.02
		c0,49.85,18.24,90.94,18.24,90.94l74.18,0c0,0,0.48-1.08,1.27-3.08C540.11,283.35,525.87,270.03,522.55,252.37z"/>
	<path fill="#E95A0C" d="M552.37,104.75c-15.67-28.67-34.44-38.89-34.44-38.89s-18.77,10.23-34.44,38.9L552.37,104.75z"/>
	<path fill="#E95A0C" d="M554.28,180.35c0,19.55-15.85,35.4-35.4,35.4c-19.55,0-35.4-15.85-35.4-35.4c0-19.55,15.85-35.4,35.4-35.4
		C538.43,144.95,554.28,160.8,554.28,180.35z"/>
	<path fill="#FFF19C" d="M546,180.35c0,14.98-12.14,27.12-27.12,27.12c-7.9,0-15.02-3.38-19.99-8.79c-1.29-1.41-2.44-2.96-3.41-4.62
		c-0.49-0.82-0.93-1.66-1.31-2.53c-1.09-2.39-1.83-4.95-2.17-7.66c-0.16-1.15-0.24-2.32-0.24-3.52c0-14.98,12.15-27.12,27.12-27.12
		c7.43,0,14.16,2.99,19.06,7.84c1.89,1.86,3.51,4.01,4.78,6.35c0.46,0.83,0.86,1.7,1.23,2.57c0.72,1.75,1.27,3.61,1.61,5.52
		C545.85,177.08,545.99,178.7,546,180.35z"/>
	<path fill="#FFFFFF" d="M542.72,167.42l-48.55,24.11c-1.09-2.39-1.83-4.95-2.17-7.66l45.94-22.8
		C539.83,162.93,541.45,165.08,542.72,167.42z"/>
	<path fill="#FFFFFF" d="M545.56,175.52l-46.66,23.16c-1.29-1.41-2.44-2.96-3.41-4.62L543.95,170
		C544.67,171.75,545.22,173.6,545.56,175.52z"/>
	<path fill="#A3B6C1" d="M535.5,158.93c4.47,4.83,7.21,11.3,7.21,18.41c0,14.97-12.14,27.12-27.12,27.12
		c-6.27,0-12.03-2.13-16.62-5.7c4.95,5.36,12.04,8.71,19.91,8.71c14.98,0,27.12-12.14,27.12-27.12
		C546,171.64,541.89,163.89,535.5,158.93z"/>
</g>
</svg>
