<svg id="waiter_4_" data-name="waiter (4)" xmlns="http://www.w3.org/2000/svg" width="24.015" height="24.016" viewBox="0 0 24.015 24.016">
  <path id="Path_57" data-name="Path 57" d="M175.554,258.532a8.532,8.532,0,0,0,.6,2.872,19.215,19.215,0,0,1-8.271,0,8.4,8.4,0,0,0,0-6.219,19.215,19.215,0,0,1,8.271,0c-.056.14-.106.275-.146.415h0a8.362,8.362,0,0,0-.446,2.922v.01h0Z" transform="translate(-160.005 -242.787)" fill="#f8b64c"/>
  <path id="Path_58" data-name="Path 58" d="M24.023,343.864H.008a7.25,7.25,0,0,1,3.537-6.229,6.881,6.881,0,0,1,1.071-.53L8.449,335.6l.027,0,3.54,2.862,3.547-2.862v-.015l.026.01,3.827,1.506a7.368,7.368,0,0,1,1.075.53,7.242,7.242,0,0,1,3.533,6.229" transform="translate(-0.008 -319.848)" fill="#cdd6e0"/>
  <g id="Group_28" data-name="Group 28" transform="translate(0 16.682)">
    <path id="Path_59" data-name="Path 59" d="M382.674,363h6.066a7.242,7.242,0,0,0-3.533-6.229,7.39,7.39,0,0,0-1.075-.53l-1.459-.574Z" transform="translate(-364.725 -355.664)" fill="#f2f2f2"/>
    <path id="Path_60" data-name="Path 60" d="M6.075,363H.008a7.242,7.242,0,0,1,3.533-6.229,7.4,7.4,0,0,1,1.076-.53l1.459-.574V363Z" transform="translate(-0.008 -355.664)" fill="#f2f2f2"/>
  </g>
  <g id="Group_30" data-name="Group 30" transform="translate(10.13 12.814)" opacity="0.1">
    <g id="Group_29" data-name="Group 29">
      <path id="Path_61" data-name="Path 61" d="M221.85,273.189a8.362,8.362,0,0,0-.446,2.922l.008.018-2.51,2.032L215.986,276l1.562-1.926Z" transform="translate(-215.986 -273.189)" fill="#40596b"/>
    </g>
  </g>
  <g id="Group_31" data-name="Group 31" transform="translate(6.004 7.517)">
    <path id="Path_62" data-name="Path 62" d="M130.248,161.8c.078.9-.358,1.67-.973,1.724s-1.179-.63-1.259-1.528.358-1.67.974-1.724,1.178.63,1.258,1.528" transform="translate(-128.007 -160.271)" fill="#f8b64c"/>
    <path id="Path_63" data-name="Path 63" d="M338.315,162.009c-.078.9-.642,1.583-1.258,1.528s-1.053-.826-.973-1.724.641-1.583,1.258-1.528,1.052.826.973,1.724" transform="translate(-326.315 -160.282)" fill="#f8b64c"/>
  </g>
  <path id="Path_64" data-name="Path 64" d="M155.959,38.221v1.7a9.63,9.63,0,0,1-.07,1.076,10.062,10.062,0,0,1-.375,1.731,9.757,9.757,0,0,1-2.107,3.662l-.5.54a2.379,2.379,0,0,1-1.761.775h-.75a2.4,2.4,0,0,1-1.756-.775l-.49-.54A9.746,9.746,0,0,1,145.672,41a8.566,8.566,0,0,1-.07-1.076.882.882,0,0,1-.005-.115V38.251a5.18,5.18,0,0,1,10.16-1.421,4.849,4.849,0,0,1,.2,1.391" transform="translate(-138.768 -31.522)" fill="#ffd15c"/>
  <g id="Group_32" data-name="Group 32" transform="translate(16.618 15.224)">
    <path id="Path_65" data-name="Path 65" d="M354.312,324.586a.016.016,0,0,1-.011.005v-.011a.016.016,0,0,1,.011.006" transform="translate(-354.301 -324.58)" fill="#acb3ba"/>
    <path id="Path_66" data-name="Path 66" d="M354.792,324.581v.011a.015.015,0,0,1-.01-.005.017.017,0,0,1,.01-.006" transform="translate(-354.758 -324.581)" fill="#acb3ba"/>
  </g>
  <g id="Group_33" data-name="Group 33" transform="translate(3.537 15.751)">
    <path id="Path_67" data-name="Path 67" d="M305.859,337.839A13.919,13.919,0,0,0,304,344.068H299.42a55,55,0,0,0,1.536-8.265l3.827,1.506a7.338,7.338,0,0,1,1.075.53" transform="translate(-288.913 -335.803)" fill="#40596b"/>
    <path id="Path_68" data-name="Path 68" d="M81.859,344.067H77.276a13.972,13.972,0,0,0-1.856-6.229,6.878,6.878,0,0,1,1.071-.53l3.832-1.506a55,55,0,0,0,1.535,8.265" transform="translate(-75.42 -335.802)" fill="#40596b"/>
  </g>
  <g id="Group_34" data-name="Group 34" transform="translate(8.441 15.751)">
    <path id="Path_69" data-name="Path 69" d="M183.533,338.669l-3.54-2.862-.026,0a32.931,32.931,0,0,0,.789,5.027Z" transform="translate(-179.966 -335.802)" fill="#f2f2f2"/>
    <path id="Path_70" data-name="Path 70" d="M256.136,338.669,259.7,335.8a32.936,32.936,0,0,1-.789,5.027Z" transform="translate(-252.563 -335.802)" fill="#f2f2f2"/>
  </g>
  <g id="Group_35" data-name="Group 35" transform="translate(5.919 0)">
    <path id="Path_71" data-name="Path 71" d="M211.955,391.194l-1.221.611v-.167a.2.2,0,0,0-.2-.2h-1.123a.2.2,0,0,0-.2.2v.167l-1.221-.611a.2.2,0,0,0-.285.177v1.924a.2.2,0,0,0,.285.177l1.221-.611v.167a.2.2,0,0,0,.2.2h1.123a.2.2,0,0,0,.2-.2v-.167l1.221.611a.2.2,0,0,0,.285-.177V391.37a.2.2,0,0,0-.285-.177" transform="translate(-203.886 -372.825)" fill="#40596b"/>
    <path id="Path_72" data-name="Path 72" d="M137.477,9.147c.179-1.287.5-1.212.5-1.212,2.039-3.934-.969-4.51-.969-4.51.322-2.11-.858-2.611-.858-2.611a7.251,7.251,0,0,0-7.118.322c-1.574,1.5-2.252,0-2.252,0-1.288,2.9,0,3.576,0,3.576a7.31,7.31,0,0,0-.053,3.133l.474,1.3.215-.556.472-2.146s.68-1.8,1.288-2.019c.592-.209.981.676,6.224.19a.525.525,0,0,1,.548.353,3.5,3.5,0,0,0,.979,1.21.475.475,0,0,1,.2.355l.043,2.1Z" transform="translate(-126.205 0)" fill="#40596b"/>
  </g>
</svg>
