<svg xmlns="http://www.w3.org/2000/svg" width="23.976" height="25.973" viewBox="0 0 23.976 25.973">
  <g id="_037-waitress" data-name="037-waitress" transform="translate(-19.678 0.002)">
    <path id="Path_86" data-name="Path 86" d="M126.446,8.635c-.575.394-.459.63-.359.728a.32.32,0,0,1,.1.188c.212,1.327-.557,1.1-.557,1.1-.78,0-.451.533-.451.533.451.822-.205,1.026-.205,1.026a.626.626,0,0,0-.5.577.345.345,0,0,1-.108.233c-.734.685-.99.73-1.075.705a.3.3,0,0,0-.155,0,5.1,5.1,0,0,1-3.259-.136.216.216,0,1,0-.391,0,5.1,5.1,0,0,1-3.259.136.3.3,0,0,0-.155,0c-.084.025-.34-.02-1.075-.705a.339.339,0,0,1-.108-.233.625.625,0,0,0-.5-.577s-.657-.205-.205-1.026c0,0,.327-.533-.452-.533,0,0-.768.232-.557-1.1a.335.335,0,0,1,.094-.188c.1-.1.216-.334-.358-.728a1.011,1.011,0,0,1-.209-1.655.334.334,0,0,0,.019-.4.615.615,0,0,1,.039-.733.331.331,0,0,0-.022-.389c-.311-.369-.769-1.207.993-1.584,0,0,.971-.194.232-.657a.3.3,0,0,1-.114-.12c-.093-.175-.214-.563.689-.354a.328.328,0,0,0,.3-.07.41.41,0,0,0,.076-.426.335.335,0,0,1,.015-.214,1.856,1.856,0,0,1,2.477-1.1.344.344,0,0,0,.436-.2.811.811,0,0,1,1.012-.518.341.341,0,0,0,.292-.071,1.668,1.668,0,0,1,1.08,0,.34.34,0,0,0,.292.071.812.812,0,0,1,1.012.518.343.343,0,0,0,.436.2,1.855,1.855,0,0,1,2.477,1.1.328.328,0,0,1,.015.214.406.406,0,0,0,.077.426.325.325,0,0,0,.3.07c.9-.209.782.179.689.354a.3.3,0,0,1-.114.12c-.739.463.232.657.232.657,1.763.377,1.3,1.215.995,1.585a.333.333,0,0,0-.022.389.618.618,0,0,1,.04.733.33.33,0,0,0,.018.4,1.01,1.01,0,0,1-.209,1.654" transform="translate(-87.976 0)" fill="#40596b"/>
    <rect id="Rectangle_14" data-name="Rectangle 14" width="0.002" height="0.003" transform="translate(31.415 16.091)" fill="#ffd15c"/>
    <path id="Path_87" data-name="Path 87" d="M107.963,292.719c-1.288-3.183-5-4.88-5-4.88a8.453,8.453,0,0,1,.188,2.365,6.9,6.9,0,0,1-1.629,3.954A8.167,8.167,0,0,0,99.6,298.94a8.168,8.168,0,0,0-1.919-4.783,6.894,6.894,0,0,1-1.629-3.954,8.494,8.494,0,0,1,.188-2.365s-3.713,1.7-5,4.88c0,0,2.122-1.667,3.638-1.137l-1.137,3.486s4.215.908,5.858,4.082l0,.005s0-.005,0-.005c1.643-3.175,5.857-4.082,5.857-4.082l-1.136-3.486c1.516-.53,3.638,1.137,3.638,1.137" transform="translate(-67.932 -273.24)" fill="#4cdbc4"/>
    <path id="Path_88" data-name="Path 88" d="M107.963,292.719c-1.288-3.183-5-4.88-5-4.88a8.453,8.453,0,0,1,.188,2.365,6.9,6.9,0,0,1-1.629,3.954A8.167,8.167,0,0,0,99.6,298.94a8.168,8.168,0,0,0-1.919-4.783,6.894,6.894,0,0,1-1.629-3.954,8.494,8.494,0,0,1,.188-2.365s-3.713,1.7-5,4.88c0,0,2.122-1.667,3.638-1.137l-1.137,3.486s4.215.908,5.858,4.082l0,.005s0-.005,0-.005c1.643-3.175,5.857-4.082,5.857-4.082l-1.136-3.486c1.516-.53,3.638,1.137,3.638,1.137" transform="translate(-67.932 -273.24)" fill="#84dbff"/>
    <path id="Path_89" data-name="Path 89" d="M185.85,312.524a6.9,6.9,0,0,0,1.629,3.953,8.179,8.179,0,0,1,1.919,4.783,8.179,8.179,0,0,1,1.919-4.783,6.9,6.9,0,0,0,1.629-3.953c.017-.261.016-.541.005-.829a28.97,28.97,0,0,0-7.1-.208,8.181,8.181,0,0,0,0,1.037" transform="translate(-157.728 -295.559)" fill="#f2f2f2"/>
    <path id="Path_90" data-name="Path 90" d="M43.21,333.48a7.119,7.119,0,0,0-4.1-5.291,7.3,7.3,0,0,0-1.136-.4h0a8.172,8.172,0,0,1,2.056,2.853s-2.122-1.667-3.638-1.137l1.136,3.486s-4.213.908-5.857,4.082c0,0,0,.006,0,.005l0-.005c-1.643-3.175-5.858-4.082-5.858-4.082l1.137-3.486c-1.516-.53-3.638,1.137-3.638,1.137a8.153,8.153,0,0,1,2.051-2.849l-.005,0a6.479,6.479,0,0,0-1.1.378,7.107,7.107,0,0,0-4.134,5.309l-.444,3.652H43.654Z" transform="translate(0 -311.161)" fill="#40596b"/>
    <g id="Group_45" data-name="Group 45" transform="translate(28.004 14.745)">
      <path id="Path_91" data-name="Path 91" d="M329.013,290.735V290.7l-.021.025.021.011" transform="translate(-321.628 -290.698)" fill="#f8b64c"/>
      <path id="Path_92" data-name="Path 92" d="M183.82,290.7l0,0v0h0" transform="translate(-183.818 -290.698)" fill="#f8b64c"/>
      <path id="Path_93" data-name="Path 93" d="M185.836,297.73c1.008.521,2.923,1.678,3.587,3.233.65-1.523,2.5-2.664,3.524-3.2a8.412,8.412,0,0,0-.108-1.661,6.062,6.062,0,0,1-3.416,2.029,6.067,6.067,0,0,1-3.466-2.09,8.441,8.441,0,0,0-.121,1.689" transform="translate(-185.73 -295.77)" fill="#f8b64c"/>
    </g>
    <rect id="Rectangle_15" data-name="Rectangle 15" width="0.002" height="0.003" transform="translate(31.682 9.672)" fill="#ffd15c"/>
    <g id="Group_46" data-name="Group 46" transform="translate(25.671 7.818)">
      <path id="Path_94" data-name="Path 94" d="M139.221,155.98c.215.92.1,1.734-.253,1.816s-.816-.6-1.031-1.517-.1-1.734.254-1.816.816.6,1.03,1.517" transform="translate(-137.829 -154.441)" fill="#f8b64c"/>
      <path id="Path_95" data-name="Path 95" d="M345.174,155.683c-.214.92-.1,1.734.254,1.816s.754-.613,1.03-1.517c.166-.539.09-1.641-.253-1.816-.325-.166-.816.6-1.031,1.517" transform="translate(-334.553 -154.143)" fill="#f8b64c"/>
    </g>
    <path id="Path_96" data-name="Path 96" d="M159.538,86.943c-1.491,4.73-5.063,5.089-5.063,5.089s-3.572-.359-5.063-5.089a8.49,8.49,0,0,1-.128-4.523s.409-3.508,5.191-3.508,5.192,3.508,5.192,3.508a8.49,8.49,0,0,1-.13,4.523" transform="translate(-122.778 -74.91)" fill="#ffd15c"/>
    <path id="Path_97" data-name="Path 97" d="M141.441,39.423h-4.748a3.167,3.167,0,0,0-3.056,2.336l-.388,2.091-.309,1.279.816.73a14.211,14.211,0,0,0,2.786-1.815s.116.581-.735,1.123a5.358,5.358,0,0,0,2.557-1.123s-.116.62-1.2,1.162a6.783,6.783,0,0,0,5.267-1.9,3.434,3.434,0,0,0,2.175,2.486l.885-.781-.929-3.06-.085-.282a3.171,3.171,0,0,0-3.033-2.249" transform="translate(-107.516 -37.425)" fill="#40596b"/>
    <g id="Group_48" data-name="Group 48" transform="translate(29.488 15.076)" opacity="0.1">
      <g id="Group_47" data-name="Group 47">
        <path id="Path_98" data-name="Path 98" d="M218.691,297.226a6.047,6.047,0,0,1-3.416,2.029,5.58,5.58,0,0,1-2.2-.945l-.012.034,2.8,2.8a9.687,9.687,0,0,1,2.934-2.254,8.382,8.382,0,0,0-.108-1.662" transform="translate(-213.066 -297.226)" fill="#40596b"/>
      </g>
    </g>
    <path id="Path_99" data-name="Path 99" d="M204.092,359.446l-1.676.919-1.677-.919a.8.8,0,0,0-1.187.7v1.241a.8.8,0,0,0,1.187.7l1.677-.92,1.676.92a.8.8,0,0,0,1.188-.7v-1.241a.8.8,0,0,0-1.188-.7" transform="translate(-170.749 -341.119)" fill="#ff7058"/>
    <path id="Path_100" data-name="Path 100" d="M154.481,38.409c4.782,0,5.192,3.508,5.192,3.508a5.645,5.645,0,0,1,.246,1.338,13.459,13.459,0,0,0-.246-3.5s-.41-3.508-5.192-3.508-5.191,3.508-5.191,3.508a13.414,13.414,0,0,0-.247,3.5,5.6,5.6,0,0,1,.247-1.338s.409-3.508,5.191-3.508" transform="translate(-122.783 -34.408)" fill="#f2f2f2"/>
  </g>
</svg>
