<svg xmlns="http://www.w3.org/2000/svg" width="15.168" height="16.925" viewBox="0 0 15.168 16.925">
  <g id="writing" transform="translate(0)">
    <g id="Group_338" data-name="Group 338">
      <g id="Group_337" data-name="Group 337">
        <path id="Path_356" data-name="Path 356" d="M114.591,200.661a.661.661,0,0,0-.661-.661h-6.81a.661.661,0,0,0,0,1.322h6.81A.661.661,0,0,0,114.591,200.661Z" transform="translate(-103.818 -193.389)" fill="#bad8f5"/>
        <path id="Path_357" data-name="Path 357" d="M107.12,280a.661.661,0,0,0,0,1.322h4.136a.661.661,0,0,0,0-1.322Z" transform="translate(-103.818 -270.744)" fill="#bad8f5"/>
        <path id="Path_358" data-name="Path 358" d="M31.426,15.6H29.215a1.324,1.324,0,0,1-1.322-1.322V2.645a1.324,1.324,0,0,1,1.322-1.322h8.128a1.324,1.324,0,0,1,1.322,1.322V6.71a.661.661,0,1,0,1.322,0V2.645A2.648,2.648,0,0,0,37.343,0H29.215A2.648,2.648,0,0,0,26.57,2.645V14.28a2.648,2.648,0,0,0,2.645,2.645h2.211a.661.661,0,1,0,0-1.322Z" transform="translate(-26.57)" fill="#bad8f5"/>
        <path id="Path_359" data-name="Path 359" d="M250.876,272.6a1.985,1.985,0,0,0-2.8,0l-3.63,3.622a.661.661,0,0,0-.166.276l-.79,2.6a.661.661,0,0,0,.809.829l2.668-.739a.661.661,0,0,0,.291-.169l3.622-3.615A1.986,1.986,0,0,0,250.876,272.6Zm-4.433,5.362-1.342.372.393-1.294,2.449-2.444.935.935Zm3.5-3.492-.128.128-.935-.935.128-.127a.661.661,0,0,1,.935.935Z" transform="translate(-236.288 -263.032)" fill="#bad8f5"/>
        <path id="Path_360" data-name="Path 360" d="M113.93,120h-6.81a.661.661,0,0,0,0,1.322h6.81a.661.661,0,1,0,0-1.322Z" transform="translate(-103.818 -116.033)" fill="#bad8f5"/>
      </g>
    </g>
  </g>
</svg>
