<svg xmlns="http://www.w3.org/2000/svg" width="19.268" height="19.268" viewBox="0 0 19.268 19.268">
  <g id="BuyutecIcon" transform="translate(1.768)" opacity="1">
    <path id="Path_178" data-name="Path 178" d="M0,5,5,0" transform="translate(0 12.5)" fill="none" stroke="#001858" stroke-linecap="round" stroke-width="2.5"/>
    <g id="Path_177" data-name="Path 177" transform="translate(2.5)" fill="none">
      <path d="M7.5,0A7.5,7.5,0,1,1,0,7.5,7.5,7.5,0,0,1,7.5,0Z" stroke="none"/>
      <path d="M 7.5 2.5 C 4.742989540100098 2.5 2.5 4.742989540100098 2.5 7.5 C 2.5 10.25700950622559 4.742989540100098 12.5 7.5 12.5 C 10.25700950622559 12.5 12.5 10.25700950622559 12.5 7.5 C 12.5 4.742989540100098 10.25700950622559 2.5 7.5 2.5 M 7.5 0 C 11.64213943481445 0 15 3.35785961151123 15 7.5 C 15 11.64213943481445 11.64213943481445 15 7.5 15 C 3.35785961151123 15 0 11.64213943481445 0 7.5 C 0 3.35785961151123 3.35785961151123 0 7.5 0 Z" stroke="none" fill="#001858"/>
    </g>
  </g>
</svg>
